STARTFONT 2.1
COMMENT
COMMENT Converted from OpenType font "KH-Dot-Dougenzaka-16.ttf" by "otf2bdf 3.0".
COMMENT
FONT -FreeType-KH Dot Dougenzaka 16-Medium-R-Normal--17-120-100-100-P-157-ISO10646-1
SIZE 12 100 100
FONTBOUNDINGBOX 17 17 0 -2
STARTPROPERTIES 19
FOUNDRY "FreeType"
FAMILY_NAME "KH Dot Dougenzaka 16"
WEIGHT_NAME "Medium"
SLANT "R"
SETWIDTH_NAME "Normal"
ADD_STYLE_NAME ""
PIXEL_SIZE 17
POINT_SIZE 120
RESOLUTION_X 100
RESOLUTION_Y 100
SPACING "P"
AVERAGE_WIDTH 157
CHARSET_REGISTRY "ISO10646"
CHARSET_ENCODING "1"
FONT_ASCENT 14
FONT_DESCENT 2
COPYRIGHT "Copyright (c) Keitarou Hiraki, Font Silo. 1990-2015"
_OTF_FONTFILE "KH-Dot-Dougenzaka-16.ttf"
_OTF_PSNAME "KH-Dot-Dougenzaka-16"
ENDPROPERTIES
CHARS 7263
STARTCHAR 0020
ENCODING 32
SWIDTH 540 0
DWIDTH 9 0
BBX 0 0 0 0
BITMAP
ENDCHAR
STARTCHAR 0021
ENCODING 33
SWIDTH 540 0
DWIDTH 9 0
BBX 3 14 2 0
BITMAP
40
40
E0
E0
E0
40
40
40
40
00
00
40
E0
40
ENDCHAR
STARTCHAR 0022
ENCODING 34
SWIDTH 540 0
DWIDTH 9 0
BBX 7 6 0 9
BITMAP
44
EE
EE
66
22
CC
ENDCHAR
STARTCHAR 0023
ENCODING 35
SWIDTH 540 0
DWIDTH 9 0
BBX 7 14 0 0
BITMAP
44
44
44
FE
FE
44
44
44
44
44
FE
FE
44
44
ENDCHAR
STARTCHAR 0024
ENCODING 36
SWIDTH 540 0
DWIDTH 9 0
BBX 7 16 0 -1
BITMAP
10
3A
3A
76
D2
D2
70
70
1C
1C
16
96
96
DC
B8
10
ENDCHAR
STARTCHAR 0025
ENCODING 37
SWIDTH 540 0
DWIDTH 9 0
BBX 7 14 0 0
BITMAP
70
70
D8
88
DA
74
08
10
20
5C
B6
22
36
1C
ENDCHAR
STARTCHAR 0026
ENCODING 38
SWIDTH 540 0
DWIDTH 9 0
BBX 9 14 0 0
BITMAP
3800
3800
6C00
4400
6C00
3800
3000
6F80
D200
DA00
CC00
CC00
6600
3B80
ENDCHAR
STARTCHAR 0027
ENCODING 39
SWIDTH 540 0
DWIDTH 9 0
BBX 3 6 1 9
BITMAP
40
E0
E0
60
20
C0
ENDCHAR
STARTCHAR 0028
ENCODING 40
SWIDTH 540 0
DWIDTH 9 0
BBX 4 16 3 -1
BITMAP
10
20
20
20
60
40
C0
C0
C0
C0
C0
40
60
20
20
10
ENDCHAR
STARTCHAR 0029
ENCODING 41
SWIDTH 540 0
DWIDTH 9 0
BBX 4 16 1 -1
BITMAP
80
40
40
40
60
20
30
30
30
30
30
20
60
40
40
80
ENDCHAR
STARTCHAR 002A
ENCODING 42
SWIDTH 540 0
DWIDTH 9 0
BBX 7 7 0 2
BITMAP
10
92
54
38
54
92
10
ENDCHAR
STARTCHAR 002B
ENCODING 43
SWIDTH 540 0
DWIDTH 9 0
BBX 7 9 0 1
BITMAP
10
10
10
10
FE
10
10
10
10
ENDCHAR
STARTCHAR 002C
ENCODING 44
SWIDTH 540 0
DWIDTH 9 0
BBX 3 5 2 -2
BITMAP
40
E0
60
20
C0
ENDCHAR
STARTCHAR 002D
ENCODING 45
SWIDTH 540 0
DWIDTH 9 0
BBX 7 1 0 5
BITMAP
FE
ENDCHAR
STARTCHAR 002E
ENCODING 46
SWIDTH 540 0
DWIDTH 9 0
BBX 3 3 2 0
BITMAP
40
E0
40
ENDCHAR
STARTCHAR 002F
ENCODING 47
SWIDTH 540 0
DWIDTH 9 0
BBX 9 17 0 -2
BITMAP
0180
0180
0180
0200
0200
0400
0400
0800
0800
1000
1000
2000
2000
4000
4000
8000
8000
ENDCHAR
STARTCHAR 0030
ENCODING 48
SWIDTH 540 0
DWIDTH 9 0
BBX 7 14 0 0
BITMAP
38
38
44
44
C6
C6
C6
C6
C6
C6
C6
44
44
38
ENDCHAR
STARTCHAR 0031
ENCODING 49
SWIDTH 540 0
DWIDTH 9 0
BBX 6 14 1 0
BITMAP
10
10
30
F0
30
30
30
30
30
30
30
30
30
FC
ENDCHAR
STARTCHAR 0032
ENCODING 50
SWIDTH 540 0
DWIDTH 9 0
BBX 7 14 0 0
BITMAP
38
38
6C
86
06
06
0C
08
10
20
40
40
FE
FC
ENDCHAR
STARTCHAR 0033
ENCODING 51
SWIDTH 540 0
DWIDTH 9 0
BBX 7 14 0 0
BITMAP
78
78
4C
06
06
06
3C
0C
06
06
06
C6
CC
78
ENDCHAR
STARTCHAR 0034
ENCODING 52
SWIDTH 540 0
DWIDTH 9 0
BBX 7 14 0 0
BITMAP
0C
0C
0C
1C
1C
2C
2C
4C
4C
FE
FE
0C
0C
0C
ENDCHAR
STARTCHAR 0035
ENCODING 53
SWIDTH 540 0
DWIDTH 9 0
BBX 7 14 0 0
BITMAP
7C
7C
7C
40
40
80
F8
9C
06
06
02
86
C4
78
ENDCHAR
STARTCHAR 0036
ENCODING 54
SWIDTH 540 0
DWIDTH 9 0
BBX 7 14 0 0
BITMAP
18
18
30
60
60
C0
F8
C4
C6
C6
C6
C6
44
38
ENDCHAR
STARTCHAR 0037
ENCODING 55
SWIDTH 540 0
DWIDTH 9 0
BBX 7 14 0 0
BITMAP
7E
7E
FE
82
02
04
04
0C
08
18
18
30
30
30
ENDCHAR
STARTCHAR 0038
ENCODING 56
SWIDTH 540 0
DWIDTH 9 0
BBX 7 14 0 0
BITMAP
38
38
44
C6
C6
C6
6C
7C
C6
C6
C6
C6
44
38
ENDCHAR
STARTCHAR 0039
ENCODING 57
SWIDTH 540 0
DWIDTH 9 0
BBX 7 14 0 0
BITMAP
38
38
44
C6
C6
C6
C6
46
3E
06
0C
0C
18
30
ENDCHAR
STARTCHAR 003A
ENCODING 58
SWIDTH 540 0
DWIDTH 9 0
BBX 3 9 2 0
BITMAP
40
E0
40
00
00
00
40
E0
40
ENDCHAR
STARTCHAR 003B
ENCODING 59
SWIDTH 540 0
DWIDTH 9 0
BBX 3 11 2 -2
BITMAP
40
E0
40
00
00
00
40
E0
60
20
C0
ENDCHAR
STARTCHAR 003C
ENCODING 60
SWIDTH 540 0
DWIDTH 9 0
BBX 7 14 0 0
BITMAP
02
02
04
08
10
20
40
80
40
20
10
08
04
02
ENDCHAR
STARTCHAR 003D
ENCODING 61
SWIDTH 540 0
DWIDTH 9 0
BBX 7 4 0 4
BITMAP
FE
00
00
FE
ENDCHAR
STARTCHAR 003E
ENCODING 62
SWIDTH 540 0
DWIDTH 9 0
BBX 7 14 0 0
BITMAP
80
80
40
20
10
08
04
02
04
08
10
20
40
80
ENDCHAR
STARTCHAR 003F
ENCODING 63
SWIDTH 540 0
DWIDTH 9 0
BBX 7 14 0 0
BITMAP
78
78
E4
42
02
02
06
1C
18
10
00
10
38
10
ENDCHAR
STARTCHAR 0040
ENCODING 64
SWIDTH 540 0
DWIDTH 9 0
BBX 7 14 0 0
BITMAP
38
38
6C
C6
D6
EE
EE
EE
EE
EE
D4
C0
60
3C
ENDCHAR
STARTCHAR 0041
ENCODING 65
SWIDTH 540 0
DWIDTH 9 0
BBX 9 14 0 0
BITMAP
1800
1800
1800
1800
1800
2C00
2C00
2C00
2C00
4600
7E00
4600
4600
EF80
ENDCHAR
STARTCHAR 0042
ENCODING 66
SWIDTH 540 0
DWIDTH 9 0
BBX 7 14 0 0
BITMAP
F8
F8
64
66
66
66
64
7C
66
66
66
66
64
F8
ENDCHAR
STARTCHAR 0043
ENCODING 67
SWIDTH 540 0
DWIDTH 9 0
BBX 7 14 0 0
BITMAP
3A
3A
66
46
C2
C2
C0
C0
C0
C0
C2
46
64
3C
ENDCHAR
STARTCHAR 0044
ENCODING 68
SWIDTH 540 0
DWIDTH 9 0
BBX 7 14 0 0
BITMAP
F8
F8
6C
64
66
66
66
66
66
66
66
64
6C
F8
ENDCHAR
STARTCHAR 0045
ENCODING 69
SWIDTH 540 0
DWIDTH 9 0
BBX 7 14 0 0
BITMAP
FE
FE
62
62
60
60
64
7C
64
60
60
62
62
FE
ENDCHAR
STARTCHAR 0046
ENCODING 70
SWIDTH 540 0
DWIDTH 9 0
BBX 7 14 0 0
BITMAP
FE
FE
62
62
60
60
64
7C
64
64
60
60
60
F8
ENDCHAR
STARTCHAR 0047
ENCODING 71
SWIDTH 540 0
DWIDTH 9 0
BBX 9 14 0 0
BITMAP
3A00
3A00
6E00
4600
C200
C200
C000
DF80
C600
C600
C600
4600
6E00
3600
ENDCHAR
STARTCHAR 0048
ENCODING 72
SWIDTH 540 0
DWIDTH 9 0
BBX 9 14 0 0
BITMAP
F780
F780
6600
6600
6600
6600
6600
7E00
6600
6600
6600
6600
6600
F780
ENDCHAR
STARTCHAR 0049
ENCODING 73
SWIDTH 540 0
DWIDTH 9 0
BBX 6 14 1 0
BITMAP
FC
FC
30
30
30
30
30
30
30
30
30
30
30
FC
ENDCHAR
STARTCHAR 004A
ENCODING 74
SWIDTH 540 0
DWIDTH 9 0
BBX 9 16 0 -2
BITMAP
3F80
3F80
0C00
0C00
0C00
0C00
0C00
0C00
0C00
0C00
0C00
0C00
0C00
CC00
C800
7000
ENDCHAR
STARTCHAR 004B
ENCODING 75
SWIDTH 540 0
DWIDTH 9 0
BBX 9 14 0 0
BITMAP
F780
F780
6200
6400
6400
6800
6800
7800
6800
6C00
6C00
6600
6600
F780
ENDCHAR
STARTCHAR 004C
ENCODING 76
SWIDTH 540 0
DWIDTH 9 0
BBX 7 14 0 0
BITMAP
F8
F8
60
60
60
60
60
60
60
60
62
62
66
FE
ENDCHAR
STARTCHAR 004D
ENCODING 77
SWIDTH 540 0
DWIDTH 9 0
BBX 9 14 0 0
BITMAP
C380
C380
4200
6600
6600
7E00
7E00
5600
5600
4600
4600
4600
4600
EF80
ENDCHAR
STARTCHAR 004E
ENCODING 78
SWIDTH 540 0
DWIDTH 9 0
BBX 9 14 0 0
BITMAP
C780
C780
6200
6200
7200
7200
5A00
5A00
4E00
4E00
4600
4600
4200
E200
ENDCHAR
STARTCHAR 004F
ENCODING 79
SWIDTH 540 0
DWIDTH 9 0
BBX 7 14 0 0
BITMAP
38
38
6C
44
C6
C6
C6
C6
C6
C6
C6
44
6C
38
ENDCHAR
STARTCHAR 0050
ENCODING 80
SWIDTH 540 0
DWIDTH 9 0
BBX 7 14 0 0
BITMAP
F8
F8
64
66
66
66
66
64
78
60
60
60
60
F0
ENDCHAR
STARTCHAR 0051
ENCODING 81
SWIDTH 540 0
DWIDTH 9 0
BBX 7 16 0 -2
BITMAP
38
38
6C
44
C6
C6
C6
E6
D6
D6
D6
54
74
38
30
1C
ENDCHAR
STARTCHAR 0052
ENCODING 82
SWIDTH 540 0
DWIDTH 9 0
BBX 9 14 0 0
BITMAP
F800
F800
6400
6600
6600
6600
6400
7800
6800
6C00
6C00
6600
6600
F780
ENDCHAR
STARTCHAR 0053
ENCODING 83
SWIDTH 540 0
DWIDTH 9 0
BBX 7 14 0 0
BITMAP
3A
3A
66
C2
C2
60
70
1C
0C
06
86
86
CC
B8
ENDCHAR
STARTCHAR 0054
ENCODING 84
SWIDTH 540 0
DWIDTH 9 0
BBX 9 14 0 0
BITMAP
FF80
FF80
DB80
9980
9980
1800
1800
1800
1800
1800
1800
1800
1800
7E00
ENDCHAR
STARTCHAR 0055
ENCODING 85
SWIDTH 540 0
DWIDTH 9 0
BBX 9 14 0 0
BITMAP
F780
F780
6200
6200
6200
6200
6200
6200
6200
6200
6200
6200
6600
3C00
ENDCHAR
STARTCHAR 0056
ENCODING 86
SWIDTH 540 0
DWIDTH 9 0
BBX 9 14 0 0
BITMAP
F780
F780
6200
6200
6200
6200
3400
3400
3400
3400
1800
1800
1800
1800
ENDCHAR
STARTCHAR 0057
ENCODING 87
SWIDTH 540 0
DWIDTH 9 0
BBX 9 14 0 0
BITMAP
DB80
DB80
DA00
DA00
DA00
DA00
DA00
DA00
6C00
6C00
6C00
6C00
6C00
6C00
ENDCHAR
STARTCHAR 0058
ENCODING 88
SWIDTH 540 0
DWIDTH 9 0
BBX 9 14 0 0
BITMAP
F780
F780
6200
6200
3400
3400
1800
1800
1800
2C00
2C00
4600
4600
EF80
ENDCHAR
STARTCHAR 0059
ENCODING 89
SWIDTH 540 0
DWIDTH 9 0
BBX 9 14 0 0
BITMAP
F780
F780
6200
6200
6200
3400
3400
3400
1800
1800
1800
1800
1800
3C00
ENDCHAR
STARTCHAR 005A
ENCODING 90
SWIDTH 540 0
DWIDTH 9 0
BBX 7 14 0 0
BITMAP
FE
FE
8E
8C
0C
18
18
30
30
60
62
C2
C6
FE
ENDCHAR
STARTCHAR 005B
ENCODING 91
SWIDTH 540 0
DWIDTH 9 0
BBX 5 15 2 -1
BITMAP
F8
F8
C0
C0
C0
C0
C0
C0
C0
C0
C0
C0
C0
C0
F8
ENDCHAR
STARTCHAR 005C
ENCODING 92
SWIDTH 540 0
DWIDTH 9 0
BBX 9 14 0 0
BITMAP
F780
F780
6200
6200
6200
3400
3400
FF80
1800
1800
FF80
1800
1800
3C00
ENDCHAR
STARTCHAR 005D
ENCODING 93
SWIDTH 540 0
DWIDTH 9 0
BBX 5 15 1 -1
BITMAP
F8
F8
18
18
18
18
18
18
18
18
18
18
18
18
F8
ENDCHAR
STARTCHAR 005E
ENCODING 94
SWIDTH 540 0
DWIDTH 9 0
BBX 7 5 0 9
BITMAP
10
10
38
6C
82
ENDCHAR
STARTCHAR 005F
ENCODING 95
SWIDTH 540 0
DWIDTH 9 0
BBX 7 1 0 -1
BITMAP
FE
ENDCHAR
STARTCHAR 0060
ENCODING 96
SWIDTH 540 0
DWIDTH 9 0
BBX 3 6 3 9
BITMAP
40
E0
E0
C0
80
60
ENDCHAR
STARTCHAR 0061
ENCODING 97
SWIDTH 540 0
DWIDTH 9 0
BBX 9 9 0 0
BITMAP
3C00
C400
C600
1E00
6600
C600
C600
EF80
7600
ENDCHAR
STARTCHAR 0062
ENCODING 98
SWIDTH 540 0
DWIDTH 9 0
BBX 7 15 0 0
BITMAP
E0
60
60
60
60
60
78
6C
66
66
66
66
66
6C
58
ENDCHAR
STARTCHAR 0063
ENCODING 99
SWIDTH 540 0
DWIDTH 9 0
BBX 7 9 0 0
BITMAP
38
46
C6
C0
C0
C0
C2
64
38
ENDCHAR
STARTCHAR 0064
ENCODING 100
SWIDTH 540 0
DWIDTH 9 0
BBX 9 15 0 0
BITMAP
0E00
0600
0600
0600
0600
0600
3E00
6E00
C600
C600
C600
C600
C600
6E00
3780
ENDCHAR
STARTCHAR 0065
ENCODING 101
SWIDTH 540 0
DWIDTH 9 0
BBX 7 9 0 0
BITMAP
38
64
C6
C2
FE
C0
C0
62
3C
ENDCHAR
STARTCHAR 0066
ENCODING 102
SWIDTH 540 0
DWIDTH 9 0
BBX 7 15 0 0
BITMAP
1C
26
26
26
30
30
FC
30
30
30
30
30
30
30
78
ENDCHAR
STARTCHAR 0067
ENCODING 103
SWIDTH 540 0
DWIDTH 9 0
BBX 9 11 0 -2
BITMAP
7B80
CD80
CC00
CC00
7800
4000
FC00
BE00
8200
C200
7C00
ENDCHAR
STARTCHAR 0068
ENCODING 104
SWIDTH 540 0
DWIDTH 9 0
BBX 9 15 0 0
BITMAP
E000
6000
6000
6000
6000
6000
7C00
6600
6600
6600
6600
6600
6600
6600
F780
ENDCHAR
STARTCHAR 0069
ENCODING 105
SWIDTH 540 0
DWIDTH 9 0
BBX 4 15 2 0
BITMAP
40
E0
E0
40
00
00
E0
60
60
60
60
60
60
60
F0
ENDCHAR
STARTCHAR 006A
ENCODING 106
SWIDTH 540 0
DWIDTH 9 0
BBX 6 17 0 -2
BITMAP
08
1C
1C
08
00
00
1C
0C
0C
0C
0C
0C
0C
0C
CC
C8
70
ENDCHAR
STARTCHAR 006B
ENCODING 107
SWIDTH 540 0
DWIDTH 9 0
BBX 9 15 0 0
BITMAP
E000
6000
6000
6000
6000
6000
6780
6200
6400
6800
7800
6C00
6C00
6600
F780
ENDCHAR
STARTCHAR 006C
ENCODING 108
SWIDTH 540 0
DWIDTH 9 0
BBX 4 15 2 0
BITMAP
E0
60
60
60
60
60
60
60
60
60
60
60
60
60
F0
ENDCHAR
STARTCHAR 006D
ENCODING 109
SWIDTH 540 0
DWIDTH 9 0
BBX 9 9 0 0
BITMAP
DA00
FF80
DB80
DB80
DB80
DB80
DB80
DB80
DB80
ENDCHAR
STARTCHAR 006E
ENCODING 110
SWIDTH 540 0
DWIDTH 9 0
BBX 9 9 0 0
BITMAP
EC00
7E00
6600
6600
6600
6600
6600
6600
F780
ENDCHAR
STARTCHAR 006F
ENCODING 111
SWIDTH 540 0
DWIDTH 9 0
BBX 7 9 0 0
BITMAP
38
6C
C6
C6
C6
C6
C6
6C
38
ENDCHAR
STARTCHAR 0070
ENCODING 112
SWIDTH 540 0
DWIDTH 9 0
BBX 7 11 0 -2
BITMAP
FC
64
66
66
66
66
66
64
7C
60
F0
ENDCHAR
STARTCHAR 0071
ENCODING 113
SWIDTH 540 0
DWIDTH 9 0
BBX 9 11 0 -2
BITMAP
3A00
6E00
C600
C600
C600
C600
C600
6600
3E00
0600
0F80
ENDCHAR
STARTCHAR 0072
ENCODING 114
SWIDTH 540 0
DWIDTH 9 0
BBX 7 9 0 0
BITMAP
FC
66
66
60
60
60
60
60
F0
ENDCHAR
STARTCHAR 0073
ENCODING 115
SWIDTH 540 0
DWIDTH 9 0
BBX 7 9 0 0
BITMAP
7E
86
80
F0
7C
0E
02
C2
FC
ENDCHAR
STARTCHAR 0074
ENCODING 116
SWIDTH 540 0
DWIDTH 9 0
BBX 7 11 0 0
BITMAP
30
30
FE
30
30
30
30
30
30
32
1C
ENDCHAR
STARTCHAR 0075
ENCODING 117
SWIDTH 540 0
DWIDTH 9 0
BBX 9 9 0 0
BITMAP
EE00
6600
6600
6600
6600
6600
6600
7E00
3780
ENDCHAR
STARTCHAR 0076
ENCODING 118
SWIDTH 540 0
DWIDTH 9 0
BBX 9 9 0 0
BITMAP
F780
6200
6200
3400
3400
3400
1800
1800
1800
ENDCHAR
STARTCHAR 0077
ENCODING 119
SWIDTH 540 0
DWIDTH 9 0
BBX 9 9 0 0
BITMAP
DB80
DA00
DA00
DA00
DA00
6C00
6C00
6C00
6C00
ENDCHAR
STARTCHAR 0078
ENCODING 120
SWIDTH 540 0
DWIDTH 9 0
BBX 9 9 0 0
BITMAP
F780
6200
3400
3800
1800
1C00
2C00
4600
EF80
ENDCHAR
STARTCHAR 0079
ENCODING 121
SWIDTH 540 0
DWIDTH 9 0
BBX 9 11 0 -2
BITMAP
E780
C200
6200
6400
3400
3800
1800
1000
1000
6000
6000
ENDCHAR
STARTCHAR 007A
ENCODING 122
SWIDTH 540 0
DWIDTH 9 0
BBX 7 9 0 0
BITMAP
FE
8C
8C
18
38
30
62
62
FE
ENDCHAR
STARTCHAR 007B
ENCODING 123
SWIDTH 540 0
DWIDTH 9 0
BBX 6 14 1 0
BITMAP
0C
0C
10
30
30
30
20
C0
20
30
30
30
10
0C
ENDCHAR
STARTCHAR 007C
ENCODING 124
SWIDTH 540 0
DWIDTH 9 0
BBX 1 17 3 -2
BITMAP
80
80
80
80
80
80
80
80
80
80
80
80
80
80
80
80
80
ENDCHAR
STARTCHAR 007D
ENCODING 125
SWIDTH 540 0
DWIDTH 9 0
BBX 6 14 1 0
BITMAP
C0
C0
20
30
30
30
10
0C
10
30
30
30
20
C0
ENDCHAR
STARTCHAR 00A0
ENCODING 160
SWIDTH 540 0
DWIDTH 9 0
BBX 0 0 0 0
BITMAP
ENDCHAR
STARTCHAR 00A2
ENCODING 162
SWIDTH 1020 0
DWIDTH 17 0
BBX 10 14 3 -2
BITMAP
0100
0100
0100
3F80
66C0
C6C0
C600
C600
CC00
6C40
2D80
1E00
1000
1000
ENDCHAR
STARTCHAR 00A3
ENCODING 163
SWIDTH 1020 0
DWIDTH 17 0
BBX 12 15 2 -1
BITMAP
0F80
0F80
1040
30E0
3040
3000
3000
FFC0
1000
1800
1810
7810
9810
9760
63C0
ENDCHAR
STARTCHAR 00A5
ENCODING 165
SWIDTH 540 0
DWIDTH 9 0
BBX 9 14 0 0
BITMAP
F780
F780
6200
6200
6200
3400
3400
FF80
1800
1800
FF80
1800
1800
3C00
ENDCHAR
STARTCHAR 00A7
ENCODING 167
SWIDTH 1020 0
DWIDTH 17 0
BBX 9 16 4 -1
BITMAP
3E00
4380
4380
C180
C100
6000
3E00
4300
C180
6100
3E00
0300
4180
C180
E100
3E00
ENDCHAR
STARTCHAR 00A8
ENCODING 168
SWIDTH 1020 0
DWIDTH 17 0
BBX 7 3 4 12
BITMAP
CE
CE
CE
ENDCHAR
STARTCHAR 00AC
ENCODING 172
SWIDTH 1020 0
DWIDTH 17 0
BBX 12 5 2 3
BITMAP
FFF0
0010
0010
0010
0010
ENDCHAR
STARTCHAR 00B0
ENCODING 176
SWIDTH 1020 0
DWIDTH 17 0
BBX 5 6 0 9
BITMAP
70
88
88
88
88
70
ENDCHAR
STARTCHAR 00B1
ENCODING 177
SWIDTH 1020 0
DWIDTH 17 0
BBX 12 13 2 1
BITMAP
0600
0600
0600
0600
0600
FFF0
0600
0600
0600
0600
0000
0000
FFF0
ENDCHAR
STARTCHAR 00B4
ENCODING 180
SWIDTH 1020 0
DWIDTH 17 0
BBX 6 3 5 12
BITMAP
1C
FC
FC
ENDCHAR
STARTCHAR 00B6
ENCODING 182
SWIDTH 1020 0
DWIDTH 17 0
BBX 9 15 3 -1
BITMAP
3F80
3F80
7C80
FC80
FC80
7C80
3C80
0C80
0C80
0C80
0C80
0C80
0C80
0C80
0C80
ENDCHAR
STARTCHAR 00D7
ENCODING 215
SWIDTH 1020 0
DWIDTH 17 0
BBX 10 10 3 1
BITMAP
8040
4080
2100
1600
0C00
0C00
1600
2100
4080
8040
ENDCHAR
STARTCHAR 00F7
ENCODING 247
SWIDTH 1020 0
DWIDTH 17 0
BBX 12 11 2 1
BITMAP
0600
0F00
0600
0000
0000
FFF0
0000
0000
0600
0F00
0600
ENDCHAR
STARTCHAR 0391
ENCODING 913
SWIDTH 1020 0
DWIDTH 17 0
BBX 14 14 1 0
BITMAP
0300
0300
0300
0780
0580
09C0
09C0
09C0
1060
1FE0
1060
2030
2030
F07C
ENDCHAR
STARTCHAR 0392
ENCODING 914
SWIDTH 1020 0
DWIDTH 17 0
BBX 11 14 2 0
BITMAP
FF80
FF80
30C0
3060
3060
3060
30C0
3F80
30C0
3060
3060
3060
30C0
FF80
ENDCHAR
STARTCHAR 0393
ENCODING 915
SWIDTH 1020 0
DWIDTH 17 0
BBX 11 14 2 0
BITMAP
FFE0
FFE0
3060
3020
3020
3000
3000
3000
3000
3000
3000
3000
3000
FF00
ENDCHAR
STARTCHAR 0394
ENCODING 916
SWIDTH 1020 0
DWIDTH 17 0
BBX 14 14 1 0
BITMAP
0300
0300
0300
0780
0580
09C0
09C0
1060
1060
2030
2030
4018
7FF8
FFFC
ENDCHAR
STARTCHAR 0395
ENCODING 917
SWIDTH 1020 0
DWIDTH 17 0
BBX 12 14 2 0
BITMAP
FFF0
FFF0
3030
3010
3010
3080
3380
3F80
3380
3080
3010
3010
3030
FFF0
ENDCHAR
STARTCHAR 0396
ENCODING 918
SWIDTH 1020 0
DWIDTH 17 0
BBX 11 14 3 0
BITMAP
FFE0
FFE0
C0C0
8180
8180
0700
0700
0E00
1C00
1C00
3020
3020
6060
FFE0
ENDCHAR
STARTCHAR 0397
ENCODING 919
SWIDTH 1020 0
DWIDTH 17 0
BBX 14 14 1 0
BITMAP
FDFC
FDFC
3030
3030
3030
3030
3030
3FF0
3030
3030
3030
3030
3030
FDFC
ENDCHAR
STARTCHAR 0398
ENCODING 920
SWIDTH 1020 0
DWIDTH 17 0
BBX 13 14 2 0
BITMAP
0F80
0F80
3060
6030
6030
C898
CF98
CF98
C898
C018
6030
6030
3060
0F80
ENDCHAR
STARTCHAR 0399
ENCODING 921
SWIDTH 1020 0
DWIDTH 17 0
BBX 7 14 5 0
BITMAP
FE
FE
38
38
38
38
38
38
38
38
38
38
38
FE
ENDCHAR
STARTCHAR 039A
ENCODING 922
SWIDTH 1020 0
DWIDTH 17 0
BBX 14 14 1 0
BITMAP
F878
F878
3020
3040
3180
3300
3780
3B80
31C0
31C0
3060
3060
3030
F87C
ENDCHAR
STARTCHAR 039B
ENCODING 923
SWIDTH 1020 0
DWIDTH 17 0
BBX 14 14 1 0
BITMAP
0300
0300
0300
0780
0580
09C0
09C0
09C0
1060
1060
1060
2030
2030
F9FC
ENDCHAR
STARTCHAR 039C
ENCODING 924
SWIDTH 1020 0
DWIDTH 17 0
BBX 16 14 0 0
BITMAP
700E
700E
300C
381C
381C
281C
2C2C
2C2C
26CC
26CC
26CC
238C
238C
F83F
ENDCHAR
STARTCHAR 039D
ENCODING 925
SWIDTH 1020 0
DWIDTH 17 0
BBX 14 14 1 0
BITMAP
F07C
F07C
3010
3810
2C10
2C10
2710
2710
2390
21D0
21D0
2070
2030
F830
ENDCHAR
STARTCHAR 039E
ENCODING 926
SWIDTH 1020 0
DWIDTH 17 0
BBX 13 14 2 0
BITMAP
3FF8
3FF8
7FF0
4010
0000
1020
1FE0
3FC0
2040
0000
0000
4010
7FF0
FFE0
ENDCHAR
STARTCHAR 039F
ENCODING 927
SWIDTH 1020 0
DWIDTH 17 0
BBX 13 14 2 0
BITMAP
0F80
0F80
3060
6030
6030
C018
C018
C018
C018
C018
6030
6030
3060
0F80
ENDCHAR
STARTCHAR 03A0
ENCODING 928
SWIDTH 1020 0
DWIDTH 17 0
BBX 13 14 2 0
BITMAP
FFF8
FFF8
3060
3060
3060
3060
3060
3060
3060
3060
3060
3060
3060
F8F8
ENDCHAR
STARTCHAR 03A1
ENCODING 929
SWIDTH 1020 0
DWIDTH 17 0
BBX 12 14 2 0
BITMAP
FFC0
FFC0
3060
3030
3030
3030
3060
3FC0
3000
3000
3000
3000
3000
FF00
ENDCHAR
STARTCHAR 03A3
ENCODING 931
SWIDTH 1020 0
DWIDTH 17 0
BBX 12 14 2 0
BITMAP
FFF0
FFF0
6030
3010
3010
1800
0E00
0F00
0E00
1800
3010
3010
6030
FFF0
ENDCHAR
STARTCHAR 03A4
ENCODING 932
SWIDTH 1020 0
DWIDTH 17 0
BBX 13 14 2 0
BITMAP
FFF8
FFF8
C718
8708
8708
0700
0700
0700
0700
0700
0700
0700
0700
1FC0
ENDCHAR
STARTCHAR 03A5
ENCODING 933
SWIDTH 1020 0
DWIDTH 17 0
BBX 13 14 2 0
BITMAP
7070
7070
98C8
8F88
0700
0700
0700
0700
0700
0700
0700
0700
0700
1FC0
ENDCHAR
STARTCHAR 03A6
ENCODING 934
SWIDTH 1020 0
DWIDTH 17 0
BBX 13 14 2 0
BITMAP
1FC0
1FC0
0700
1FC0
6730
6730
C718
C718
C718
6730
6730
1FC0
0700
1FC0
ENDCHAR
STARTCHAR 03A7
ENCODING 935
SWIDTH 1020 0
DWIDTH 17 0
BBX 14 14 1 0
BITMAP
FC7C
FC7C
3010
1820
1840
0D80
0700
0780
0780
09C0
0860
1060
2030
F9FC
ENDCHAR
STARTCHAR 03A8
ENCODING 936
SWIDTH 1020 0
DWIDTH 17 0
BBX 15 14 1 0
BITMAP
0FE0
0FE0
0380
638C
B39A
3398
3398
3398
1BB0
0FE0
0380
0380
0380
0FE0
ENDCHAR
STARTCHAR 03A9
ENCODING 937
SWIDTH 1020 0
DWIDTH 17 0
BBX 13 14 2 0
BITMAP
0F80
0F80
3060
6030
4010
C018
C018
C018
4010
6030
3060
9048
D898
F8F8
ENDCHAR
STARTCHAR 03B1
ENCODING 945
SWIDTH 1020 0
DWIDTH 17 0
BBX 12 9 2 0
BITMAP
0F30
10B0
30E0
60C0
40C0
C380
C380
CEA0
70C0
ENDCHAR
STARTCHAR 03B2
ENCODING 946
SWIDTH 1020 0
DWIDTH 17 0
BBX 11 16 3 -2
BITMAP
07C0
07C0
0E60
0C60
1C60
1CC0
1780
3080
30C0
20C0
60C0
7D80
6F00
C000
C000
C000
ENDCHAR
STARTCHAR 03B3
ENCODING 947
SWIDTH 1020 0
DWIDTH 17 0
BBX 11 11 3 -2
BITMAP
7060
9CE0
0F00
0E00
0C00
1C00
1C00
1000
3000
3000
3000
ENDCHAR
STARTCHAR 03B4
ENCODING 948
SWIDTH 1020 0
DWIDTH 17 0
BBX 10 14 4 0
BITMAP
1E00
1E00
2380
21C0
1840
0C00
3E00
6300
4300
C300
C300
C300
CE00
7C00
ENDCHAR
STARTCHAR 03B5
ENCODING 949
SWIDTH 1020 0
DWIDTH 17 0
BBX 9 9 4 0
BITMAP
3E00
6300
6080
3800
3C00
4000
C080
E300
7E00
ENDCHAR
STARTCHAR 03B6
ENCODING 950
SWIDTH 1020 0
DWIDTH 17 0
BBX 9 16 3 -2
BITMAP
1C00
1C00
2000
2180
1F80
0C00
3000
6000
4000
C000
8000
F000
7E00
0700
2100
3E00
ENDCHAR
STARTCHAR 03B7
ENCODING 951
SWIDTH 1020 0
DWIDTH 17 0
BBX 10 10 3 -1
BITMAP
7780
9C40
1C40
30C0
2080
6180
C100
C700
0E00
0E00
ENDCHAR
STARTCHAR 03B8
ENCODING 952
SWIDTH 1020 0
DWIDTH 17 0
BBX 10 14 3 0
BITMAP
0F80
0F80
1CC0
3040
2040
60C0
7FC0
6080
C080
C180
C100
C700
CE00
7C00
ENDCHAR
STARTCHAR 03B9
ENCODING 953
SWIDTH 1020 0
DWIDTH 17 0
BBX 8 9 5 0
BITMAP
38
38
70
70
40
C0
81
C6
7C
ENDCHAR
STARTCHAR 03BA
ENCODING 954
SWIDTH 1020 0
DWIDTH 17 0
BBX 11 9 2 0
BITMAP
30C0
33E0
3320
3E00
6600
6700
6720
C720
C3C0
ENDCHAR
STARTCHAR 03BB
ENCODING 955
SWIDTH 1020 0
DWIDTH 17 0
BBX 11 14 3 0
BITMAP
1C00
1C00
1E00
0700
0100
0100
0700
0D00
1100
3100
6180
4080
C0E0
C060
ENDCHAR
STARTCHAR 03BC
ENCODING 956
SWIDTH 1020 0
DWIDTH 17 0
BBX 11 11 2 -2
BITMAP
1860
1860
1860
18C0
30C0
3080
33C0
6F60
6000
C000
C000
ENDCHAR
STARTCHAR 03BD
ENCODING 957
SWIDTH 1020 0
DWIDTH 17 0
BBX 9 9 4 0
BITMAP
8080
C080
C080
4100
4300
4E00
5C00
F800
C000
ENDCHAR
STARTCHAR 03BE
ENCODING 958
SWIDTH 1020 0
DWIDTH 17 0
BBX 10 16 3 -2
BITMAP
0F80
0F80
1000
0FC0
1FC0
3000
2000
1F80
7F80
4000
8000
F000
7E00
0F00
2100
3E00
ENDCHAR
STARTCHAR 03BF
ENCODING 959
SWIDTH 1020 0
DWIDTH 17 0
BBX 9 9 4 0
BITMAP
1F00
3980
6180
6180
C180
C100
C300
CE00
7800
ENDCHAR
STARTCHAR 03C0
ENCODING 960
SWIDTH 1020 0
DWIDTH 17 0
BBX 11 10 3 0
BITMAP
0020
7FE0
FFC0
9180
3700
2700
6600
6E40
CF80
C700
ENDCHAR
STARTCHAR 03C1
ENCODING 961
SWIDTH 1020 0
DWIDTH 17 0
BBX 10 11 3 -2
BITMAP
0F80
1CC0
1040
30C0
20C0
6180
7180
6F00
C000
C000
C000
ENDCHAR
STARTCHAR 03C3
ENCODING 963
SWIDTH 1020 0
DWIDTH 17 0
BBX 11 11 3 0
BITMAP
0040
0020
0FE0
3FC0
6100
4180
C180
C700
C700
CE00
7C00
ENDCHAR
STARTCHAR 03C4
ENCODING 964
SWIDTH 1020 0
DWIDTH 17 0
BBX 11 10 2 0
BITMAP
0020
7FE0
FFC0
8E00
1800
1800
3000
3040
3380
1F00
ENDCHAR
STARTCHAR 03C5
ENCODING 965
SWIDTH 1020 0
DWIDTH 17 0
BBX 9 9 3 0
BITMAP
6100
6180
6180
6080
C180
C100
C700
CE00
7000
ENDCHAR
STARTCHAR 03C6
ENCODING 966
SWIDTH 1020 0
DWIDTH 17 0
BBX 10 16 3 -2
BITMAP
0700
0700
0700
0700
0600
1F00
7680
4EC0
CEC0
CCC0
CC80
7F80
3E00
1000
3000
3000
ENDCHAR
STARTCHAR 03C7
ENCODING 967
SWIDTH 1020 0
DWIDTH 17 0
BBX 10 11 3 -2
BITMAP
70C0
DCC0
9D80
1D00
1E00
1E00
1C00
3C00
6E40
CEC0
C780
ENDCHAR
STARTCHAR 03C8
ENCODING 968
SWIDTH 1020 0
DWIDTH 17 0
BBX 12 16 2 -2
BITMAP
00C0
00C0
00C0
0080
0380
63A0
B3B0
3310
6730
6730
6660
3EC0
1F00
0E00
1800
1800
ENDCHAR
STARTCHAR 03C9
ENCODING 969
SWIDTH 1020 0
DWIDTH 17 0
BBX 12 9 2 0
BITMAP
1840
2020
6020
4030
C730
C630
8E30
DFE0
73C0
ENDCHAR
STARTCHAR 0401
ENCODING 1025
SWIDTH 1020 0
DWIDTH 17 0
BBX 11 15 3 0
BITMAP
3180
3180
3180
0000
FFE0
6020
60A0
6080
7F80
6080
6080
6020
6020
6060
FFE0
ENDCHAR
STARTCHAR 0410
ENCODING 1040
SWIDTH 1020 0
DWIDTH 17 0
BBX 12 14 2 0
BITMAP
0600
0600
0600
0F00
0B00
1380
1380
1380
20C0
3FC0
2040
4060
4060
E0F0
ENDCHAR
STARTCHAR 0411
ENCODING 1041
SWIDTH 1020 0
DWIDTH 17 0
BBX 10 14 3 0
BITMAP
FFC0
FFC0
60C0
6040
6000
6000
6000
7F00
6180
60C0
60C0
60C0
6180
FF00
ENDCHAR
STARTCHAR 0412
ENCODING 1042
SWIDTH 1020 0
DWIDTH 17 0
BBX 10 14 3 0
BITMAP
FF00
FF00
6180
60C0
60C0
60C0
6180
7F00
6180
60C0
60C0
60C0
6180
FF00
ENDCHAR
STARTCHAR 0413
ENCODING 1043
SWIDTH 1020 0
DWIDTH 17 0
BBX 10 14 3 0
BITMAP
FFC0
FFC0
60C0
6040
6040
6000
6000
6000
6000
6000
6000
6000
6000
FC00
ENDCHAR
STARTCHAR 0414
ENCODING 1044
SWIDTH 1020 0
DWIDTH 17 0
BBX 12 16 2 -2
BITMAP
3FE0
3FE0
10C0
10C0
10C0
10C0
10C0
10C0
10C0
10C0
10C0
20C0
20C0
FFF0
8030
8010
ENDCHAR
STARTCHAR 0415
ENCODING 1045
SWIDTH 1020 0
DWIDTH 17 0
BBX 11 14 3 0
BITMAP
FFE0
FFE0
6060
6020
6080
6080
7F80
6080
6080
6000
6020
6020
6060
FFE0
ENDCHAR
STARTCHAR 0416
ENCODING 1046
SWIDTH 1020 0
DWIDTH 17 0
BBX 15 14 1 0
BITMAP
47C4
47C4
E38E
638C
2388
2388
1390
0FE0
1390
3398
2388
638C
4384
E7DE
ENDCHAR
STARTCHAR 0417
ENCODING 1047
SWIDTH 1020 0
DWIDTH 17 0
BBX 10 14 3 0
BITMAP
3F00
3F00
6180
C0C0
00C0
00C0
0180
0F00
0180
00C0
80C0
C0C0
6180
3F00
ENDCHAR
STARTCHAR 0418
ENCODING 1048
SWIDTH 1020 0
DWIDTH 17 0
BBX 13 14 2 0
BITMAP
F078
F078
6030
6070
60B0
6330
6330
6630
6830
6830
7030
6030
6030
F078
ENDCHAR
STARTCHAR 0419
ENCODING 1049
SWIDTH 1020 0
DWIDTH 17 0
BBX 13 15 2 0
BITMAP
18C0
18C0
18C0
0F80
F078
6030
6070
60B0
6330
6630
6630
6830
7030
6030
F078
ENDCHAR
STARTCHAR 041A
ENCODING 1050
SWIDTH 1020 0
DWIDTH 17 0
BBX 12 14 2 0
BITMAP
F060
F060
6090
6080
6300
6600
7E00
6700
6700
6380
6380
60C0
6060
F0F0
ENDCHAR
STARTCHAR 041B
ENCODING 1051
SWIDTH 1020 0
DWIDTH 17 0
BBX 13 14 1 0
BITMAP
0FF8
0FF8
0430
0430
0430
0430
0430
0430
0430
0430
0830
4830
D030
6078
ENDCHAR
STARTCHAR 041C
ENCODING 1052
SWIDTH 1020 0
DWIDTH 17 0
BBX 14 14 1 0
BITMAP
7038
7038
3830
3850
2850
2C50
2D90
2D90
4788
4708
4708
4308
4308
E01C
ENDCHAR
STARTCHAR 041D
ENCODING 1053
SWIDTH 1020 0
DWIDTH 17 0
BBX 13 14 2 0
BITMAP
F078
F078
6030
6030
6030
6030
7FF0
6030
6030
6030
6030
6030
6030
F078
ENDCHAR
STARTCHAR 041E
ENCODING 1054
SWIDTH 1020 0
DWIDTH 17 0
BBX 13 14 2 0
BITMAP
0F80
0F80
3060
6030
6030
C018
C018
C018
C018
C018
6030
6030
3060
0F80
ENDCHAR
STARTCHAR 041F
ENCODING 1055
SWIDTH 1020 0
DWIDTH 17 0
BBX 13 14 2 0
BITMAP
FFF8
FFF8
6030
6030
6030
6030
6030
6030
6030
6030
6030
6030
6030
F078
ENDCHAR
STARTCHAR 0420
ENCODING 1056
SWIDTH 1020 0
DWIDTH 17 0
BBX 10 14 3 0
BITMAP
FF00
FF00
6180
60C0
60C0
60C0
60C0
6180
7F00
6000
6000
6000
6000
FC00
ENDCHAR
STARTCHAR 0421
ENCODING 1057
SWIDTH 1020 0
DWIDTH 17 0
BBX 11 14 2 0
BITMAP
1FA0
1FA0
30E0
6060
6000
C000
C000
C000
C000
C000
6020
6060
30E0
1F80
ENDCHAR
STARTCHAR 0422
ENCODING 1058
SWIDTH 1020 0
DWIDTH 17 0
BBX 13 14 2 0
BITMAP
FFF8
FFF8
C718
8708
8708
0700
0700
0700
0700
0700
0700
0700
0700
1FC0
ENDCHAR
STARTCHAR 0423
ENCODING 1059
SWIDTH 1020 0
DWIDTH 17 0
BBX 12 14 2 0
BITMAP
F070
F070
6020
6020
3040
3040
1880
1880
0B00
0F00
0600
2600
6800
3000
ENDCHAR
STARTCHAR 0424
ENCODING 1060
SWIDTH 1020 0
DWIDTH 17 0
BBX 13 14 2 0
BITMAP
0F80
0F80
0700
1FC0
6730
4710
C718
C718
C718
4710
6730
1FC0
0700
0F80
ENDCHAR
STARTCHAR 0425
ENCODING 1061
SWIDTH 1020 0
DWIDTH 17 0
BBX 12 14 2 0
BITMAP
F070
F070
6020
3040
3080
1B00
0E00
0E00
0F00
1380
1380
20C0
4060
E0F0
ENDCHAR
STARTCHAR 0426
ENCODING 1062
SWIDTH 1020 0
DWIDTH 17 0
BBX 13 16 2 -2
BITMAP
F0F0
F0F0
6060
6060
6060
6060
6060
6060
6060
6060
6060
6060
6060
FFF8
0018
0008
ENDCHAR
STARTCHAR 0427
ENCODING 1063
SWIDTH 1020 0
DWIDTH 17 0
BBX 12 14 2 0
BITMAP
F0F0
F0F0
6060
6060
6060
6060
6060
6060
30E0
1F60
0060
0060
0060
03F0
ENDCHAR
STARTCHAR 0428
ENCODING 1064
SWIDTH 1020 0
DWIDTH 17 0
BBX 15 14 0 0
BITMAP
E7DE
E7DE
638C
638C
638C
638C
638C
638C
638C
638C
638C
638C
638C
FFFE
ENDCHAR
STARTCHAR 0429
ENCODING 1065
SWIDTH 1020 0
DWIDTH 17 0
BBX 16 16 0 -2
BITMAP
F7DE
F7DE
638C
638C
638C
638C
638C
638C
638C
638C
638C
638C
638C
FFFF
0003
0001
ENDCHAR
STARTCHAR 042A
ENCODING 1066
SWIDTH 1020 0
DWIDTH 17 0
BBX 13 14 1 0
BITMAP
FF00
FF00
CC00
8C00
8C00
0C00
0FE0
0C30
0C18
0C18
0C18
0C18
0C30
1FE0
ENDCHAR
STARTCHAR 042B
ENCODING 1067
SWIDTH 1020 0
DWIDTH 17 0
BBX 14 14 1 0
BITMAP
F03C
F03C
6018
6018
6018
6018
7C18
6718
6398
6398
6398
6398
6718
FC3C
ENDCHAR
STARTCHAR 042C
ENCODING 1068
SWIDTH 1020 0
DWIDTH 17 0
BBX 10 14 3 0
BITMAP
F000
F000
6000
6000
6000
6000
7F00
6180
60C0
60C0
60C0
60C0
6180
FF00
ENDCHAR
STARTCHAR 042D
ENCODING 1069
SWIDTH 1020 0
DWIDTH 17 0
BBX 11 14 3 0
BITMAP
3F00
3F00
E180
C0C0
00C0
0060
3060
5DE0
0F60
0060
80C0
C0C0
E180
3F00
ENDCHAR
STARTCHAR 042E
ENCODING 1070
SWIDTH 1020 0
DWIDTH 17 0
BBX 14 14 1 0
BITMAP
F1F0
F1F0
6398
6308
670C
670C
7F0C
670C
670C
670C
670C
6308
6398
F1F0
ENDCHAR
STARTCHAR 042F
ENCODING 1071
SWIDTH 1020 0
DWIDTH 17 0
BBX 12 14 2 0
BITMAP
1FF0
1FF0
3060
6060
6060
6060
3060
1FE0
0E60
0E60
1860
1860
3060
C0F0
ENDCHAR
STARTCHAR 0430
ENCODING 1072
SWIDTH 1020 0
DWIDTH 17 0
BBX 11 9 3 0
BITMAP
3F00
6180
0180
1F80
6180
C180
C180
C7A0
7CC0
ENDCHAR
STARTCHAR 0431
ENCODING 1073
SWIDTH 1020 0
DWIDTH 17 0
BBX 9 15 3 0
BITMAP
0080
1F80
1F80
7F00
4000
8000
9C00
A700
C100
C180
C180
C180
4100
6700
1C00
ENDCHAR
STARTCHAR 0432
ENCODING 1074
SWIDTH 1020 0
DWIDTH 17 0
BBX 9 9 3 0
BITMAP
FF00
6180
6180
6180
7F00
6180
6180
6180
FF00
ENDCHAR
STARTCHAR 0433
ENCODING 1075
SWIDTH 1020 0
DWIDTH 17 0
BBX 9 9 3 0
BITMAP
FF80
6180
6080
6000
6000
6000
6000
6000
F000
ENDCHAR
STARTCHAR 0434
ENCODING 1076
SWIDTH 1020 0
DWIDTH 17 0
BBX 11 11 2 -2
BITMAP
3FE0
10C0
10C0
10C0
10C0
10C0
20C0
20C0
FFE0
8060
8020
ENDCHAR
STARTCHAR 0435
ENCODING 1077
SWIDTH 1020 0
DWIDTH 17 0
BBX 9 9 3 0
BITMAP
3E00
6700
C180
C180
FF80
C000
C000
6180
3F00
ENDCHAR
STARTCHAR 0436
ENCODING 1078
SWIDTH 1020 0
DWIDTH 17 0
BBX 13 9 2 0
BITMAP
4F90
E738
2720
2720
1FC0
2720
6730
4790
EFB8
ENDCHAR
STARTCHAR 0437
ENCODING 1079
SWIDTH 1020 0
DWIDTH 17 0
BBX 9 9 3 0
BITMAP
3F00
6180
C180
0100
1E00
0100
C180
6180
3F00
ENDCHAR
STARTCHAR 0438
ENCODING 1080
SWIDTH 1020 0
DWIDTH 17 0
BBX 11 9 3 0
BITMAP
F1E0
60C0
61C0
66C0
6CC0
70C0
60C0
60C0
F1E0
ENDCHAR
STARTCHAR 0439
ENCODING 1081
SWIDTH 1020 0
DWIDTH 17 0
BBX 11 14 3 0
BITMAP
3180
3180
3180
1F00
0000
F1E0
60C0
61C0
66C0
6CC0
70C0
60C0
60C0
F1E0
ENDCHAR
STARTCHAR 043A
ENCODING 1082
SWIDTH 1020 0
DWIDTH 17 0
BBX 10 9 3 0
BITMAP
F080
61C0
6600
6C00
7E00
6700
6700
6180
F1C0
ENDCHAR
STARTCHAR 043B
ENCODING 1083
SWIDTH 1020 0
DWIDTH 17 0
BBX 12 9 1 0
BITMAP
1FF0
0860
0860
0860
0860
0860
4860
D060
61F0
ENDCHAR
STARTCHAR 043C
ENCODING 1084
SWIDTH 1020 0
DWIDTH 17 0
BBX 12 9 2 0
BITMAP
E030
7060
7060
58A0
58A0
4F20
4F20
4620
E070
ENDCHAR
STARTCHAR 043D
ENCODING 1085
SWIDTH 1020 0
DWIDTH 17 0
BBX 11 9 3 0
BITMAP
F1E0
60C0
60C0
7FC0
60C0
60C0
60C0
60C0
F1E0
ENDCHAR
STARTCHAR 043E
ENCODING 1086
SWIDTH 1020 0
DWIDTH 17 0
BBX 10 9 3 0
BITMAP
1E00
6180
4080
C0C0
C0C0
C0C0
4080
6180
1E00
ENDCHAR
STARTCHAR 043F
ENCODING 1087
SWIDTH 1020 0
DWIDTH 17 0
BBX 11 9 3 0
BITMAP
FFE0
60C0
60C0
60C0
60C0
60C0
60C0
60C0
F1E0
ENDCHAR
STARTCHAR 0440
ENCODING 1088
SWIDTH 1020 0
DWIDTH 17 0
BBX 10 11 3 -2
BITMAP
6F00
F180
60C0
60C0
60C0
60C0
7180
6F00
6000
6000
F000
ENDCHAR
STARTCHAR 0441
ENCODING 1089
SWIDTH 1020 0
DWIDTH 17 0
BBX 9 9 3 0
BITMAP
3F00
6180
C080
C000
C000
C000
C080
6180
3F00
ENDCHAR
STARTCHAR 0442
ENCODING 1090
SWIDTH 1020 0
DWIDTH 17 0
BBX 11 9 3 0
BITMAP
FFE0
CE60
8E20
0E00
0E00
0E00
0E00
0E00
1F00
ENDCHAR
STARTCHAR 0443
ENCODING 1091
SWIDTH 1020 0
DWIDTH 17 0
BBX 10 11 3 -2
BITMAP
F1C0
6080
6080
3100
3100
1600
1E00
0C00
4C00
D000
6000
ENDCHAR
STARTCHAR 0444
ENCODING 1092
SWIDTH 1020 0
DWIDTH 17 0
BBX 13 16 2 -2
BITMAP
0700
0700
0F00
0700
0700
3760
4F90
CF98
C718
C718
CF18
4F90
3760
0700
0700
0F80
ENDCHAR
STARTCHAR 0445
ENCODING 1093
SWIDTH 1020 0
DWIDTH 17 0
BBX 10 9 3 0
BITMAP
F1C0
6080
3100
1600
0E00
1E00
2700
4180
E7C0
ENDCHAR
STARTCHAR 0446
ENCODING 1094
SWIDTH 1020 0
DWIDTH 17 0
BBX 12 11 2 -2
BITMAP
F3E0
60C0
60C0
60C0
60C0
60C0
60C0
60C0
FFF0
0030
0010
ENDCHAR
STARTCHAR 0447
ENCODING 1095
SWIDTH 1020 0
DWIDTH 17 0
BBX 11 9 2 0
BITMAP
F3E0
60C0
60C0
60C0
63C0
3EC0
00C0
00C0
03E0
ENDCHAR
STARTCHAR 0448
ENCODING 1096
SWIDTH 1020 0
DWIDTH 17 0
BBX 13 9 2 0
BITMAP
EF78
6730
6730
6730
6730
6730
6730
6730
FFF8
ENDCHAR
STARTCHAR 0449
ENCODING 1097
SWIDTH 1020 0
DWIDTH 17 0
BBX 14 11 1 -2
BITMAP
EF78
6730
6730
6730
6730
6730
6730
6730
FFFC
000C
0004
ENDCHAR
STARTCHAR 044A
ENCODING 1098
SWIDTH 1020 0
DWIDTH 17 0
BBX 11 9 2 0
BITMAP
F800
D800
9800
1FC0
1860
1860
1860
1860
3FC0
ENDCHAR
STARTCHAR 044B
ENCODING 1099
SWIDTH 1020 0
DWIDTH 17 0
BBX 13 9 2 0
BITMAP
F078
6030
6030
7E30
6730
6730
6730
6730
FE78
ENDCHAR
STARTCHAR 044C
ENCODING 1100
SWIDTH 1020 0
DWIDTH 17 0
BBX 9 9 4 0
BITMAP
F800
6000
6000
7E00
6300
6180
6180
6300
FE00
ENDCHAR
STARTCHAR 044D
ENCODING 1101
SWIDTH 1020 0
DWIDTH 17 0
BBX 9 9 3 0
BITMAP
7E00
C700
0180
3D80
5F80
0180
0180
C700
7E00
ENDCHAR
STARTCHAR 044E
ENCODING 1102
SWIDTH 1020 0
DWIDTH 17 0
BBX 13 9 1 0
BITMAP
F1E0
63B0
6718
7F18
6718
6718
6718
63B0
F1E0
ENDCHAR
STARTCHAR 044F
ENCODING 1103
SWIDTH 1020 0
DWIDTH 17 0
BBX 10 9 3 0
BITMAP
3FC0
6180
6180
6180
3F80
3180
3180
6180
C7C0
ENDCHAR
STARTCHAR 0451
ENCODING 1105
SWIDTH 1020 0
DWIDTH 17 0
BBX 9 12 3 0
BITMAP
6700
6700
0000
3E00
6700
C180
C180
FF80
C000
C000
6180
3F00
ENDCHAR
STARTCHAR 2000
ENCODING 8192
SWIDTH 1020 0
DWIDTH 17 0
BBX 0 0 0 0
BITMAP
ENDCHAR
STARTCHAR 2001
ENCODING 8193
SWIDTH 1020 0
DWIDTH 17 0
BBX 0 0 0 0
BITMAP
ENDCHAR
STARTCHAR 2002
ENCODING 8194
SWIDTH 1020 0
DWIDTH 17 0
BBX 0 0 0 0
BITMAP
ENDCHAR
STARTCHAR 2003
ENCODING 8195
SWIDTH 1020 0
DWIDTH 17 0
BBX 0 0 0 0
BITMAP
ENDCHAR
STARTCHAR 2004
ENCODING 8196
SWIDTH 1020 0
DWIDTH 17 0
BBX 0 0 0 0
BITMAP
ENDCHAR
STARTCHAR 2005
ENCODING 8197
SWIDTH 1020 0
DWIDTH 17 0
BBX 0 0 0 0
BITMAP
ENDCHAR
STARTCHAR 2006
ENCODING 8198
SWIDTH 1020 0
DWIDTH 17 0
BBX 0 0 0 0
BITMAP
ENDCHAR
STARTCHAR 2007
ENCODING 8199
SWIDTH 1020 0
DWIDTH 17 0
BBX 0 0 0 0
BITMAP
ENDCHAR
STARTCHAR 2008
ENCODING 8200
SWIDTH 1020 0
DWIDTH 17 0
BBX 0 0 0 0
BITMAP
ENDCHAR
STARTCHAR 2009
ENCODING 8201
SWIDTH 1020 0
DWIDTH 17 0
BBX 0 0 0 0
BITMAP
ENDCHAR
STARTCHAR 200A
ENCODING 8202
SWIDTH 1020 0
DWIDTH 17 0
BBX 0 0 0 0
BITMAP
ENDCHAR
STARTCHAR 200B
ENCODING 8203
SWIDTH 540 0
DWIDTH 9 0
BBX 0 0 0 0
BITMAP
ENDCHAR
STARTCHAR 200C
ENCODING 8204
SWIDTH 540 0
DWIDTH 9 0
BBX 0 0 0 0
BITMAP
ENDCHAR
STARTCHAR 200D
ENCODING 8205
SWIDTH 540 0
DWIDTH 9 0
BBX 0 0 0 0
BITMAP
ENDCHAR
STARTCHAR 200E
ENCODING 8206
SWIDTH 540 0
DWIDTH 9 0
BBX 0 0 0 0
BITMAP
ENDCHAR
STARTCHAR 200F
ENCODING 8207
SWIDTH 540 0
DWIDTH 9 0
BBX 0 0 0 0
BITMAP
ENDCHAR
STARTCHAR 2010
ENCODING 8208
SWIDTH 1020 0
DWIDTH 17 0
BBX 6 1 5 6
BITMAP
FC
ENDCHAR
STARTCHAR 2015
ENCODING 8213
SWIDTH 1020 0
DWIDTH 17 0
BBX 16 1 0 6
BITMAP
FFFF
ENDCHAR
STARTCHAR 2016
ENCODING 8214
SWIDTH 1020 0
DWIDTH 17 0
BBX 6 17 5 -2
BITMAP
84
84
84
84
84
84
84
84
84
84
84
84
84
84
84
84
84
ENDCHAR
STARTCHAR 2018
ENCODING 8216
SWIDTH 1020 0
DWIDTH 17 0
BBX 3 6 13 9
BITMAP
20
40
40
C0
E0
40
ENDCHAR
STARTCHAR 2019
ENCODING 8217
SWIDTH 1020 0
DWIDTH 17 0
BBX 3 6 0 9
BITMAP
40
E0
E0
60
40
80
ENDCHAR
STARTCHAR 201C
ENCODING 8220
SWIDTH 1020 0
DWIDTH 17 0
BBX 8 6 8 9
BITMAP
11
22
22
E6
F7
22
ENDCHAR
STARTCHAR 201D
ENCODING 8221
SWIDTH 1020 0
DWIDTH 17 0
BBX 7 6 0 9
BITMAP
44
EE
EE
66
44
88
ENDCHAR
STARTCHAR 2020
ENCODING 8224
SWIDTH 1020 0
DWIDTH 17 0
BBX 10 17 3 -2
BITMAP
0C00
1E00
1E00
1E00
0C00
6D80
FFC0
6D80
0C00
1E00
3F00
1E00
1E00
0C00
0C00
0C00
0C00
ENDCHAR
STARTCHAR 2021
ENCODING 8225
SWIDTH 1020 0
DWIDTH 17 0
BBX 10 17 3 -2
BITMAP
0C00
1E00
1E00
6D80
FFC0
6D80
1E00
1E00
0C00
0C00
1E00
1E00
6D80
FFC0
6D80
1E00
0C00
ENDCHAR
STARTCHAR 2025
ENCODING 8229
SWIDTH 1020 0
DWIDTH 17 0
BBX 14 3 1 5
BITMAP
4008
E01C
4008
ENDCHAR
STARTCHAR 2026
ENCODING 8230
SWIDTH 1020 0
DWIDTH 17 0
BBX 16 3 0 5
BITMAP
4182
E3C7
4182
ENDCHAR
STARTCHAR 2030
ENCODING 8240
SWIDTH 1020 0
DWIDTH 17 0
BBX 16 16 0 -1
BITMAP
70C0
50C0
50C0
D980
D980
DA00
5400
7400
0800
178E
158A
2DDB
4DDB
4DDB
858A
078E
ENDCHAR
STARTCHAR 2032
ENCODING 8242
SWIDTH 1020 0
DWIDTH 17 0
BBX 4 6 0 9
BITMAP
20
30
30
60
40
80
ENDCHAR
STARTCHAR 2033
ENCODING 8243
SWIDTH 1020 0
DWIDTH 17 0
BBX 7 6 0 9
BITMAP
24
36
36
6C
48
90
ENDCHAR
STARTCHAR 203B
ENCODING 8251
SWIDTH 1020 0
DWIDTH 17 0
BBX 14 14 1 0
BITMAP
8784
8784
4788
2790
1020
0840
E59C
E31C
E59C
0840
1020
2790
4788
8784
ENDCHAR
STARTCHAR 203E
ENCODING 8254
SWIDTH 540 0
DWIDTH 9 0
BBX 7 2 0 12
BITMAP
FE
FE
ENDCHAR
STARTCHAR 2103
ENCODING 8451
SWIDTH 1020 0
DWIDTH 17 0
BBX 14 14 1 0
BITMAP
6000
6000
91E4
971C
6C04
0C04
1800
1800
1800
1800
0C04
0C04
0708
01F0
ENDCHAR
STARTCHAR 2116
ENCODING 8470
SWIDTH 1020 0
DWIDTH 17 0
BBX 16 13 0 -1
BITMAP
C780
4200
6200
5200
521C
5222
4A22
4A22
4A22
4622
4222
E39D
0001
ENDCHAR
STARTCHAR 2121
ENCODING 8481
SWIDTH 1020 0
DWIDTH 17 0
BBX 16 12 0 0
BITMAP
FE00
9200
9200
1000
1000
13EC
1228
12C8
13C8
12C8
1229
3BEF
ENDCHAR
STARTCHAR 212B
ENCODING 8491
SWIDTH 1020 0
DWIDTH 17 0
BBX 14 15 1 0
BITMAP
0780
0840
0840
0840
0780
0300
0780
0580
09C0
09C0
1060
1FE0
2030
2030
F07C
ENDCHAR
STARTCHAR 2160
ENCODING 8544
SWIDTH 1020 0
DWIDTH 17 0
BBX 7 14 4 0
BITMAP
FE
FE
38
38
38
38
38
38
38
38
38
38
38
FE
ENDCHAR
STARTCHAR 2161
ENCODING 8545
SWIDTH 1020 0
DWIDTH 17 0
BBX 11 14 3 0
BITMAP
FFE0
FFE0
3180
3180
3180
3180
3180
3180
3180
3180
3180
3180
3180
FFE0
ENDCHAR
STARTCHAR 2162
ENCODING 8546
SWIDTH 1020 0
DWIDTH 17 0
BBX 15 14 1 0
BITMAP
FFFE
FFFE
3398
3398
3398
3398
3398
3398
3398
3398
3398
3398
3398
FFFE
ENDCHAR
STARTCHAR 2163
ENCODING 8547
SWIDTH 1020 0
DWIDTH 17 0
BBX 15 14 1 0
BITMAP
FF9E
FF9E
3704
3704
3704
3388
3388
3388
31D0
31D0
31D0
3060
3060
FC60
ENDCHAR
STARTCHAR 2164
ENCODING 8548
SWIDTH 1020 0
DWIDTH 17 0
BBX 13 14 2 0
BITMAP
F8F8
F8F8
3020
3020
3020
1840
1840
1840
0E80
0E80
0E80
0700
0700
0700
ENDCHAR
STARTCHAR 2165
ENCODING 8549
SWIDTH 1020 0
DWIDTH 17 0
BBX 15 14 1 0
BITMAP
F3FE
F3FE
6058
6058
6058
3198
3198
3198
1B18
1B18
1B18
0C18
0C18
0C7E
ENDCHAR
STARTCHAR 2166
ENCODING 8550
SWIDTH 1020 0
DWIDTH 17 0
BBX 16 14 0 0
BITMAP
F7FF
F7FF
62E6
62E6
62E6
34E6
34E6
34E6
34E6
34E6
18E6
18E6
18E6
19FF
ENDCHAR
STARTCHAR 2167
ENCODING 8551
SWIDTH 1020 0
DWIDTH 17 0
BBX 16 14 0 0
BITMAP
EFFF
EFFF
C7B6
C7B6
C7B6
6BB6
6BB6
6BB6
6BB6
6BB6
33B6
33B6
33B6
37FF
ENDCHAR
STARTCHAR 2168
ENCODING 8552
SWIDTH 1020 0
DWIDTH 17 0
BBX 15 14 1 0
BITMAP
FF9E
FF9E
3704
3388
3388
31D0
31E0
3060
3070
31B0
3318
3318
340C
FF9E
ENDCHAR
STARTCHAR 2169
ENCODING 8553
SWIDTH 1020 0
DWIDTH 17 0
BBX 13 14 2 0
BITMAP
F8F8
F8F8
3020
1840
1840
0E80
0F00
0700
0780
0B80
10C0
10C0
2060
F8F8
ENDCHAR
STARTCHAR 2190
ENCODING 8592
SWIDTH 1020 0
DWIDTH 17 0
BBX 16 7 0 3
BITMAP
1000
2000
4000
FFFF
4000
2000
1000
ENDCHAR
STARTCHAR 2191
ENCODING 8593
SWIDTH 1020 0
DWIDTH 17 0
BBX 8 17 4 -2
BITMAP
18
3C
3C
5A
99
18
18
18
18
18
18
18
18
18
18
18
18
ENDCHAR
STARTCHAR 2192
ENCODING 8594
SWIDTH 1020 0
DWIDTH 17 0
BBX 16 7 0 3
BITMAP
0008
0004
0002
FFFF
0002
0004
0008
ENDCHAR
STARTCHAR 2193
ENCODING 8595
SWIDTH 1020 0
DWIDTH 17 0
BBX 8 17 4 -2
BITMAP
18
18
18
18
18
18
18
18
18
18
18
18
18
99
5A
3C
18
ENDCHAR
STARTCHAR 21D2
ENCODING 8658
SWIDTH 1020 0
DWIDTH 17 0
BBX 14 9 1 2
BITMAP
0040
0020
FFF0
0008
0004
0008
FFF0
0020
0040
ENDCHAR
STARTCHAR 21D4
ENCODING 8660
SWIDTH 1020 0
DWIDTH 17 0
BBX 15 9 0 2
BITMAP
0820
1010
3FF8
4004
8002
4004
3FF8
1010
0820
ENDCHAR
STARTCHAR 2200
ENCODING 8704
SWIDTH 1020 0
DWIDTH 17 0
BBX 12 15 2 -1
BITMAP
8010
8010
8010
4020
4020
7FE0
2040
2040
1080
1080
1080
0B00
0B00
0600
0600
ENDCHAR
STARTCHAR 2202
ENCODING 8706
SWIDTH 1020 0
DWIDTH 17 0
BBX 10 15 2 -1
BITMAP
0700
0700
0F80
10C0
0040
0040
00C0
1EC0
2380
6380
C380
C700
C700
4E00
3800
ENDCHAR
STARTCHAR 2203
ENCODING 8707
SWIDTH 1020 0
DWIDTH 17 0
BBX 12 11 2 1
BITMAP
FFF0
0010
0010
0010
0010
FFF0
0010
0010
0010
0010
FFF0
ENDCHAR
STARTCHAR 2207
ENCODING 8711
SWIDTH 1020 0
DWIDTH 17 0
BBX 12 11 2 0
BITMAP
FFF0
7FE0
6020
2040
3040
1080
1880
0B00
0F00
0600
0600
ENDCHAR
STARTCHAR 2208
ENCODING 8712
SWIDTH 1020 0
DWIDTH 17 0
BBX 12 9 2 2
BITMAP
3FF0
4000
8000
8000
FFF0
8000
8000
4000
3FF0
ENDCHAR
STARTCHAR 220B
ENCODING 8715
SWIDTH 1020 0
DWIDTH 17 0
BBX 12 9 2 2
BITMAP
FFC0
0020
0010
0010
FFF0
0010
0010
0020
FFC0
ENDCHAR
STARTCHAR 2211
ENCODING 8721
SWIDTH 1020 0
DWIDTH 17 0
BBX 12 12 2 0
BITMAP
FFE0
6020
3010
1800
0E00
0700
0E00
1800
3000
6010
C020
FFE0
ENDCHAR
STARTCHAR 2212
ENCODING 8722
SWIDTH 1020 0
DWIDTH 17 0
BBX 12 1 2 6
BITMAP
FFF0
ENDCHAR
STARTCHAR 221A
ENCODING 8730
SWIDTH 1020 0
DWIDTH 17 0
BBX 14 16 0 -1
BITMAP
00FC
00C0
00C0
00C0
0180
0180
0180
0180
4200
4200
6200
A400
1400
1400
0800
0800
ENDCHAR
STARTCHAR 221D
ENCODING 8733
SWIDTH 1020 0
DWIDTH 17 0
BBX 13 7 1 3
BITMAP
3870
4588
8580
8300
8580
4588
3870
ENDCHAR
STARTCHAR 221E
ENCODING 8734
SWIDTH 1020 0
DWIDTH 17 0
BBX 14 7 1 3
BITMAP
3870
4588
8304
8304
8304
4588
3870
ENDCHAR
STARTCHAR 221F
ENCODING 8735
SWIDTH 1020 0
DWIDTH 17 0
BBX 13 13 2 1
BITMAP
8000
8000
8000
8000
8000
8000
8000
8000
8000
8000
8000
8000
FFF8
ENDCHAR
STARTCHAR 2220
ENCODING 8736
SWIDTH 1020 0
DWIDTH 17 0
BBX 13 11 2 1
BITMAP
0010
0020
0040
0080
0300
0600
0800
1000
2000
4000
FFF8
ENDCHAR
STARTCHAR 2227
ENCODING 8743
SWIDTH 1020 0
DWIDTH 17 0
BBX 14 14 1 -2
BITMAP
0300
0300
0580
0580
0840
0840
1020
1020
2010
2010
4008
4008
8004
8004
ENDCHAR
STARTCHAR 2228
ENCODING 8744
SWIDTH 1020 0
DWIDTH 17 0
BBX 14 15 1 0
BITMAP
8004
8004
8004
4008
4008
2010
2010
1020
1020
0840
0840
0580
0580
0300
0300
ENDCHAR
STARTCHAR 2229
ENCODING 8745
SWIDTH 1020 0
DWIDTH 17 0
BBX 10 15 3 -1
BITMAP
1E00
1E00
2100
4080
8040
8040
8040
8040
8040
8040
8040
8040
8040
8040
8040
ENDCHAR
STARTCHAR 222A
ENCODING 8746
SWIDTH 1020 0
DWIDTH 17 0
BBX 10 15 3 -1
BITMAP
8040
8040
8040
8040
8040
8040
8040
8040
8040
8040
8040
8040
4080
2100
1E00
ENDCHAR
STARTCHAR 222B
ENCODING 8747
SWIDTH 1020 0
DWIDTH 17 0
BBX 5 17 6 -2
BITMAP
70
88
88
B8
80
80
60
60
60
30
30
30
08
08
E8
88
70
ENDCHAR
STARTCHAR 222C
ENCODING 8748
SWIDTH 1020 0
DWIDTH 17 0
BBX 10 17 3 -2
BITMAP
6180
B6C0
B6C0
B6C0
8600
C700
C700
4100
6180
6180
2080
30C0
30C0
1040
D740
D740
6180
ENDCHAR
STARTCHAR 222E
ENCODING 8750
SWIDTH 1020 0
DWIDTH 17 0
BBX 7 17 5 -2
BITMAP
38
44
44
5C
40
40
7C
B2
B2
9A
7C
18
04
04
74
44
38
ENDCHAR
STARTCHAR 2234
ENCODING 8756
SWIDTH 1020 0
DWIDTH 17 0
BBX 12 10 2 1
BITMAP
0600
0F00
0600
0000
0000
0000
0000
4020
E070
4020
ENDCHAR
STARTCHAR 2235
ENCODING 8757
SWIDTH 1020 0
DWIDTH 17 0
BBX 12 10 2 1
BITMAP
4020
E070
4020
0000
0000
0000
0000
0600
0F00
0600
ENDCHAR
STARTCHAR 223D
ENCODING 8765
SWIDTH 1020 0
DWIDTH 17 0
BBX 14 7 1 3
BITMAP
3870
4588
8184
8304
8404
4588
3870
ENDCHAR
STARTCHAR 2252
ENCODING 8786
SWIDTH 1020 0
DWIDTH 17 0
BBX 12 15 2 -1
BITMAP
2000
2000
7000
2000
0000
0000
FFF0
0000
0000
FFF0
0000
0000
0040
00E0
0040
ENDCHAR
STARTCHAR 2260
ENCODING 8800
SWIDTH 1020 0
DWIDTH 17 0
BBX 12 12 2 0
BITMAP
0080
0080
0300
0300
FFF0
0600
0600
FFF0
0800
0800
1000
1000
ENDCHAR
STARTCHAR 2261
ENCODING 8801
SWIDTH 1020 0
DWIDTH 17 0
BBX 12 7 2 3
BITMAP
FFF0
0000
0000
FFF0
0000
0000
FFF0
ENDCHAR
STARTCHAR 2266
ENCODING 8806
SWIDTH 1020 0
DWIDTH 17 0
BBX 12 14 2 0
BITMAP
0030
0030
03C0
0E00
3000
C000
3000
0E00
03C0
0030
0000
FFF0
0000
FFF0
ENDCHAR
STARTCHAR 2267
ENCODING 8807
SWIDTH 1020 0
DWIDTH 17 0
BBX 12 14 2 0
BITMAP
C000
C000
3800
0700
00C0
0030
00C0
0700
3800
C000
0000
FFF0
0000
FFF0
ENDCHAR
STARTCHAR 226A
ENCODING 8810
SWIDTH 1020 0
DWIDTH 17 0
BBX 15 16 1 -1
BITMAP
0030
0046
0046
0188
0730
0840
1180
6700
8800
6700
1180
0840
0730
0188
0046
0030
ENDCHAR
STARTCHAR 226B
ENCODING 8811
SWIDTH 1020 0
DWIDTH 17 0
BBX 15 16 1 -1
BITMAP
1800
C400
C400
2300
19C0
0420
0310
01CC
0022
01CC
0310
0420
19C0
2300
C400
1800
ENDCHAR
STARTCHAR 2282
ENCODING 8834
SWIDTH 1020 0
DWIDTH 17 0
BBX 12 9 2 2
BITMAP
3FF0
4000
8000
8000
8000
8000
8000
4000
3FF0
ENDCHAR
STARTCHAR 2283
ENCODING 8835
SWIDTH 1020 0
DWIDTH 17 0
BBX 12 9 2 2
BITMAP
FFC0
0020
0010
0010
0010
0010
0010
0020
FFC0
ENDCHAR
STARTCHAR 2286
ENCODING 8838
SWIDTH 1020 0
DWIDTH 17 0
BBX 12 11 2 1
BITMAP
3FF0
4000
8000
8000
8000
8000
4000
3FF0
0000
0000
FFF0
ENDCHAR
STARTCHAR 2287
ENCODING 8839
SWIDTH 1020 0
DWIDTH 17 0
BBX 12 11 2 1
BITMAP
FFC0
0020
0010
0010
0010
0010
0020
FFC0
0000
0000
FFF0
ENDCHAR
STARTCHAR 22A5
ENCODING 8869
SWIDTH 1020 0
DWIDTH 17 0
BBX 14 13 1 1
BITMAP
0300
0300
0300
0300
0300
0300
0300
0300
0300
0300
0300
0300
FFFC
ENDCHAR
STARTCHAR 22BF
ENCODING 8895
SWIDTH 1020 0
DWIDTH 17 0
BBX 12 11 2 1
BITMAP
0010
0030
0050
0090
0310
0610
0810
1010
2010
4010
FFF0
ENDCHAR
STARTCHAR 2312
ENCODING 8978
SWIDTH 1020 0
DWIDTH 17 0
BBX 14 4 1 8
BITMAP
0FC0
3FF0
6018
8004
ENDCHAR
STARTCHAR 2460
ENCODING 9312
SWIDTH 1020 0
DWIDTH 17 0
BBX 16 17 0 -2
BITMAP
07E0
1818
1818
2184
4182
4782
8181
8181
8181
8181
8181
8181
4182
47E2
2004
1818
07E0
ENDCHAR
STARTCHAR 2461
ENCODING 9313
SWIDTH 1020 0
DWIDTH 17 0
BBX 16 17 0 -2
BITMAP
07E0
1818
1818
2004
47C2
4822
8821
8021
80C1
8181
8201
8421
4822
4FE2
2004
1818
07E0
ENDCHAR
STARTCHAR 2462
ENCODING 9314
SWIDTH 1020 0
DWIDTH 17 0
BBX 16 17 0 -2
BITMAP
07E0
1818
1818
2004
47C2
4822
8821
8021
83C1
8021
8021
8821
4822
47C2
2004
1818
07E0
ENDCHAR
STARTCHAR 2463
ENCODING 9315
SWIDTH 1020 0
DWIDTH 17 0
BBX 16 17 0 -2
BITMAP
07E0
1818
1818
2004
40C2
41C2
82C1
82C1
84C1
88C1
9FF1
80C1
40C2
43E2
2004
1818
07E0
ENDCHAR
STARTCHAR 2464
ENCODING 9316
SWIDTH 1020 0
DWIDTH 17 0
BBX 16 17 0 -2
BITMAP
07E0
1818
1818
2004
4FE2
4802
8801
8801
8FC1
8821
8021
8821
4822
47C2
2004
1818
07E0
ENDCHAR
STARTCHAR 2465
ENCODING 9317
SWIDTH 1020 0
DWIDTH 17 0
BBX 16 17 0 -2
BITMAP
07E0
1818
1818
2004
47C2
4822
8821
8801
8FC1
8821
8821
8821
4822
47C2
2004
1818
07E0
ENDCHAR
STARTCHAR 2466
ENCODING 9318
SWIDTH 1020 0
DWIDTH 17 0
BBX 16 17 0 -2
BITMAP
07E0
1818
1818
2004
4FE2
4822
8821
80C1
80C1
8181
8181
8201
4202
4202
2004
1818
07E0
ENDCHAR
STARTCHAR 2467
ENCODING 9319
SWIDTH 1020 0
DWIDTH 17 0
BBX 16 17 0 -2
BITMAP
07E0
1818
1818
2004
47C2
4822
8821
8821
87C1
8821
8821
8821
4822
47C2
2004
1818
07E0
ENDCHAR
STARTCHAR 2468
ENCODING 9320
SWIDTH 1020 0
DWIDTH 17 0
BBX 16 17 0 -2
BITMAP
07E0
1818
1818
2004
47C2
4822
8821
8821
8821
87E1
8021
8821
4822
47C2
2004
1818
07E0
ENDCHAR
STARTCHAR 2469
ENCODING 9321
SWIDTH 1020 0
DWIDTH 17 0
BBX 16 17 0 -2
BITMAP
07E0
1818
1818
2004
48F2
598A
8989
8989
8989
8989
8989
8989
498A
5CF2
2004
1818
07E0
ENDCHAR
STARTCHAR 246A
ENCODING 9322
SWIDTH 1020 0
DWIDTH 17 0
BBX 16 17 0 -2
BITMAP
07E0
1818
1818
2004
4422
4CE2
8421
8421
8421
8421
8421
8421
4422
4EF2
2004
1818
07E0
ENDCHAR
STARTCHAR 246B
ENCODING 9323
SWIDTH 1020 0
DWIDTH 17 0
BBX 16 17 0 -2
BITMAP
07E0
1818
1818
2004
48F2
598A
8989
8809
8811
8821
88C1
8981
498A
5DFA
2004
1818
07E0
ENDCHAR
STARTCHAR 246C
ENCODING 9324
SWIDTH 1020 0
DWIDTH 17 0
BBX 16 17 0 -2
BITMAP
07E0
1818
1818
2004
48F2
598A
8989
8809
8831
8809
8809
8989
498A
5CF2
2004
1818
07E0
ENDCHAR
STARTCHAR 246D
ENCODING 9325
SWIDTH 1020 0
DWIDTH 17 0
BBX 16 17 0 -2
BITMAP
07E0
1818
1818
2004
4812
5832
88D1
88D1
8991
8A11
8BF9
8811
4812
5CFA
2004
1818
07E0
ENDCHAR
STARTCHAR 246E
ENCODING 9326
SWIDTH 1020 0
DWIDTH 17 0
BBX 16 17 0 -2
BITMAP
07E0
1818
1818
2004
49F2
5982
8981
8981
89F1
8989
8809
8989
498A
5CF2
2004
1818
07E0
ENDCHAR
STARTCHAR 246F
ENCODING 9327
SWIDTH 1020 0
DWIDTH 17 0
BBX 16 17 0 -2
BITMAP
07E0
1818
1818
2004
48F2
598A
8989
8981
89F1
8989
8989
8989
498A
5CF2
2004
1818
07E0
ENDCHAR
STARTCHAR 2470
ENCODING 9328
SWIDTH 1020 0
DWIDTH 17 0
BBX 16 17 0 -2
BITMAP
07E0
1818
1818
2004
49FA
598A
8989
8811
8811
8821
8821
88C1
48C2
5CC2
2004
1818
07E0
ENDCHAR
STARTCHAR 2471
ENCODING 9329
SWIDTH 1020 0
DWIDTH 17 0
BBX 16 17 0 -2
BITMAP
07E0
1818
1818
2004
48F2
598A
8989
8989
88F1
8989
8989
8989
498A
5CF2
2004
1818
07E0
ENDCHAR
STARTCHAR 2472
ENCODING 9330
SWIDTH 1020 0
DWIDTH 17 0
BBX 16 17 0 -2
BITMAP
07E0
1818
1818
2004
48F2
598A
8989
8989
8989
88F9
8809
8989
498A
5CF2
2004
1818
07E0
ENDCHAR
STARTCHAR 2473
ENCODING 9331
SWIDTH 1020 0
DWIDTH 17 0
BBX 16 17 0 -2
BITMAP
07E0
1818
1818
2004
4C32
52CA
92C9
82C9
82C9
84C9
88C9
90C9
52CA
5E32
2004
1818
07E0
ENDCHAR
STARTCHAR 2581
ENCODING 9601
SWIDTH 1020 0
DWIDTH 17 0
BBX 9 17 0 -2
BITMAP
8000
8000
8000
4000
4000
2000
2000
1000
1000
0800
0800
0400
0400
0200
0200
0180
0180
ENDCHAR
STARTCHAR 2582
ENCODING 9602
SWIDTH 1020 0
DWIDTH 17 0
BBX 7 3 0 11
BITMAP
72
72
8C
ENDCHAR
STARTCHAR 2583
ENCODING 9603
SWIDTH 1020 0
DWIDTH 17 0
BBX 1 11 3 1
BITMAP
80
80
80
80
00
00
00
80
80
80
80
ENDCHAR
STARTCHAR 2587
ENCODING 9607
SWIDTH 1020 0
DWIDTH 17 0
BBX 7 16 0 -1
BITMAP
20
30
30
5C
78
30
20
70
6A
DE
9C
38
58
40
7C
3C
ENDCHAR
STARTCHAR 2588
ENCODING 9608
SWIDTH 1020 0
DWIDTH 17 0
BBX 7 10 0 -2
BITMAP
30
54
7C
10
34
7C
6E
92
E2
4C
ENDCHAR
STARTCHAR 2589
ENCODING 9609
SWIDTH 1020 0
DWIDTH 17 0
BBX 7 10 0 -2
BITMAP
30
18
1E
18
10
10
78
D8
9E
72
ENDCHAR
STARTCHAR 258A
ENCODING 9610
SWIDTH 1020 0
DWIDTH 17 0
BBX 7 10 0 -2
BITMAP
10
98
DC
AE
CA
BA
DC
10
30
20
ENDCHAR
STARTCHAR 258B
ENCODING 9611
SWIDTH 1020 0
DWIDTH 17 0
BBX 7 10 0 -2
BITMAP
0C
48
5C
72
EE
A4
30
30
10
10
ENDCHAR
STARTCHAR 258C
ENCODING 9612
SWIDTH 1020 0
DWIDTH 17 0
BBX 7 9 0 -1
BITMAP
64
26
F2
60
20
3C
66
A6
6C
ENDCHAR
STARTCHAR 258D
ENCODING 9613
SWIDTH 1020 0
DWIDTH 17 0
BBX 7 11 0 -2
BITMAP
30
18
00
7C
2C
18
10
38
68
CE
8E
ENDCHAR
STARTCHAR 258E
ENCODING 9614
SWIDTH 1020 0
DWIDTH 17 0
BBX 6 11 0 -2
BITMAP
20
38
00
B8
EC
0C
04
0C
08
08
10
ENDCHAR
STARTCHAR 258F
ENCODING 9615
SWIDTH 1020 0
DWIDTH 17 0
BBX 7 8 0 -1
BITMAP
80
8C
86
82
C2
50
60
20
ENDCHAR
STARTCHAR 25A0
ENCODING 9632
SWIDTH 1020 0
DWIDTH 17 0
BBX 16 17 0 -2
BITMAP
FFFF
FFFF
FFFF
FFFF
FFFF
FFFF
FFFF
FFFF
FFFF
FFFF
FFFF
FFFF
FFFF
FFFF
FFFF
FFFF
FFFF
ENDCHAR
STARTCHAR 25A1
ENCODING 9633
SWIDTH 1020 0
DWIDTH 17 0
BBX 16 17 0 -2
BITMAP
FFFF
8001
8001
8001
8001
8001
8001
8001
8001
8001
8001
8001
8001
8001
8001
8001
FFFF
ENDCHAR
STARTCHAR 25B2
ENCODING 9650
SWIDTH 1020 0
DWIDTH 17 0
BBX 16 16 0 -1
BITMAP
0180
0180
0180
03C0
03C0
07E0
07E0
0FF0
0FF0
1FF8
1FF8
3FFC
3FFC
7FFE
7FFE
FFFF
ENDCHAR
STARTCHAR 25B3
ENCODING 9651
SWIDTH 1020 0
DWIDTH 17 0
BBX 16 16 0 -1
BITMAP
0180
0180
0180
02C0
02C0
0420
0420
0810
0810
1008
1008
2004
2004
4002
4002
FFFF
ENDCHAR
STARTCHAR 25BC
ENCODING 9660
SWIDTH 1020 0
DWIDTH 17 0
BBX 16 16 0 -2
BITMAP
FFFF
FFFF
7FFE
7FFE
3FFC
3FFC
1FF8
1FF8
0FF0
0FF0
07E0
07E0
03C0
03C0
0180
0180
ENDCHAR
STARTCHAR 25BD
ENCODING 9661
SWIDTH 1020 0
DWIDTH 17 0
BBX 16 16 0 -2
BITMAP
FFFF
FFFF
4002
4002
2004
2004
1008
1008
0810
0810
0420
0420
02C0
02C0
0180
0180
ENDCHAR
STARTCHAR 25C6
ENCODING 9670
SWIDTH 1020 0
DWIDTH 17 0
BBX 16 17 0 -2
BITMAP
0180
03C0
03C0
07E0
0FF0
1FF8
3FFC
7FFE
FFFF
FFFF
7FFE
3FFC
1FF8
0FF0
07E0
03C0
0180
ENDCHAR
STARTCHAR 25C7
ENCODING 9671
SWIDTH 1020 0
DWIDTH 17 0
BBX 16 16 0 -1
BITMAP
0180
02C0
02C0
0420
0810
1008
2004
4002
8001
4002
2004
1008
0810
0420
02C0
0180
ENDCHAR
STARTCHAR 25CB
ENCODING 9675
SWIDTH 1020 0
DWIDTH 17 0
BBX 16 17 0 -2
BITMAP
07E0
1818
1818
2004
4002
4002
8001
8001
8001
8001
8001
8001
4002
4002
2004
1818
07E0
ENDCHAR
STARTCHAR 25CE
ENCODING 9678
SWIDTH 1020 0
DWIDTH 17 0
BBX 16 17 0 -2
BITMAP
07E0
1818
1818
2004
4002
47E2
8811
9009
9009
9009
9009
8811
47E2
4002
2004
1818
07E0
ENDCHAR
STARTCHAR 25CF
ENCODING 9679
SWIDTH 1020 0
DWIDTH 17 0
BBX 16 17 0 -2
BITMAP
07E0
1FF8
1FF8
3FFC
7FFE
7FFE
FFFF
FFFF
FFFF
FFFF
FFFF
FFFF
7FFE
7FFE
3FFC
1FF8
07E0
ENDCHAR
STARTCHAR 25EF
ENCODING 9711
SWIDTH 1020 0
DWIDTH 17 0
BBX 16 17 0 -2
BITMAP
07E0
1818
1818
2004
4002
4002
8001
8001
8001
8001
8001
8001
4002
4002
2004
1818
07E0
ENDCHAR
STARTCHAR 2605
ENCODING 9733
SWIDTH 1020 0
DWIDTH 17 0
BBX 16 17 0 -2
BITMAP
0180
0180
0180
03C0
03C0
07E0
07E0
FFFF
7FFE
3FFC
1FF8
0FF0
1FF8
1EF8
1C38
381C
300C
ENDCHAR
STARTCHAR 2606
ENCODING 9734
SWIDTH 1020 0
DWIDTH 17 0
BBX 16 17 0 -2
BITMAP
0180
0180
0180
02C0
02C0
0420
0420
FC3F
4002
2004
1008
0810
1188
12C8
1428
2814
300C
ENDCHAR
STARTCHAR 2640
ENCODING 9792
SWIDTH 1020 0
DWIDTH 17 0
BBX 12 16 2 -1
BITMAP
0F00
1080
1080
2040
2040
2040
1080
0F00
0600
0600
FFF0
0600
0600
0600
0600
0600
ENDCHAR
STARTCHAR 2642
ENCODING 9794
SWIDTH 1020 0
DWIDTH 17 0
BBX 15 15 0 -1
BITMAP
00FE
00FE
0006
000A
0012
0022
00C2
0180
3A00
4400
8200
8200
8200
4400
3800
ENDCHAR
STARTCHAR 266A
ENCODING 9834
SWIDTH 1020 0
DWIDTH 17 0
BBX 11 15 2 -1
BITMAP
0600
0600
0600
0700
0780
06C0
0660
0620
0620
0640
0600
3E00
7800
F800
6000
ENDCHAR
STARTCHAR 266D
ENCODING 9837
SWIDTH 1020 0
DWIDTH 17 0
BBX 7 15 4 -1
BITMAP
80
80
80
80
80
80
BC
EE
82
8E
8C
9C
B8
C0
80
ENDCHAR
STARTCHAR 266F
ENCODING 9839
SWIDTH 1020 0
DWIDTH 17 0
BBX 10 15 3 -1
BITMAP
0100
0100
2100
21C0
3FC0
FF00
E100
2100
2100
21C0
3FC0
FF00
E100
2100
2000
ENDCHAR
STARTCHAR 3000
ENCODING 12288
SWIDTH 1020 0
DWIDTH 17 0
BBX 0 0 0 0
BITMAP
ENDCHAR
STARTCHAR 3001
ENCODING 12289
SWIDTH 1020 0
DWIDTH 17 0
BBX 4 5 0 -2
BITMAP
80
40
60
30
30
ENDCHAR
STARTCHAR 3002
ENCODING 12290
SWIDTH 1020 0
DWIDTH 17 0
BBX 5 5 0 -2
BITMAP
70
88
88
88
70
ENDCHAR
STARTCHAR 3003
ENCODING 12291
SWIDTH 1020 0
DWIDTH 17 0
BBX 9 6 3 4
BITMAP
3180
3180
2100
6700
4600
8C00
ENDCHAR
STARTCHAR 3005
ENCODING 12293
SWIDTH 1020 0
DWIDTH 17 0
BBX 13 13 2 -1
BITMAP
0F00
0E00
0E30
1FF8
1830
3060
2060
40C0
9880
0700
0380
03C0
0080
ENDCHAR
STARTCHAR 3006
ENCODING 12294
SWIDTH 1020 0
DWIDTH 17 0
BBX 15 16 1 -1
BITMAP
0004
0002
0002
0006
000C
0018
0020
1DC0
2300
27C0
49C0
5000
5000
6000
C000
C000
ENDCHAR
STARTCHAR 3007
ENCODING 12295
SWIDTH 1020 0
DWIDTH 17 0
BBX 16 12 0 0
BITMAP
07E0
1818
2004
4002
8001
8001
8001
8001
4002
2004
1818
07E0
ENDCHAR
STARTCHAR 3008
ENCODING 12296
SWIDTH 1020 0
DWIDTH 17 0
BBX 5 17 10 -2
BITMAP
08
08
08
10
10
20
40
40
80
80
40
40
20
10
10
08
08
ENDCHAR
STARTCHAR 3009
ENCODING 12297
SWIDTH 1020 0
DWIDTH 17 0
BBX 5 17 1 -2
BITMAP
80
80
80
40
40
20
10
10
08
08
10
10
20
40
40
80
80
ENDCHAR
STARTCHAR 300A
ENCODING 12298
SWIDTH 1020 0
DWIDTH 17 0
BBX 9 17 6 -2
BITMAP
0480
0480
0480
0900
0900
3200
6400
6400
8800
8800
6400
6400
3200
0900
0900
0480
0480
ENDCHAR
STARTCHAR 300B
ENCODING 12299
SWIDTH 1020 0
DWIDTH 17 0
BBX 9 17 1 -2
BITMAP
9000
9000
9000
4800
4800
2400
1300
1300
0980
0980
1300
1300
2400
4800
4800
9000
9000
ENDCHAR
STARTCHAR 300C
ENCODING 12300
SWIDTH 1020 0
DWIDTH 17 0
BBX 5 13 10 2
BITMAP
F8
80
80
80
80
80
80
80
80
80
80
80
80
ENDCHAR
STARTCHAR 300D
ENCODING 12301
SWIDTH 1020 0
DWIDTH 17 0
BBX 5 12 1 -2
BITMAP
08
08
08
08
08
08
08
08
08
08
08
F8
ENDCHAR
STARTCHAR 300E
ENCODING 12302
SWIDTH 1020 0
DWIDTH 17 0
BBX 7 13 8 2
BITMAP
FE
C2
C2
DE
D0
D0
D0
D0
D0
D0
D0
D0
F0
ENDCHAR
STARTCHAR 300F
ENCODING 12303
SWIDTH 1020 0
DWIDTH 17 0
BBX 6 12 1 -2
BITMAP
1C
14
14
14
14
14
14
14
14
F4
84
FC
ENDCHAR
STARTCHAR 3010
ENCODING 12304
SWIDTH 1020 0
DWIDTH 17 0
BBX 5 17 10 -2
BITMAP
F8
E0
E0
E0
E0
C0
C0
C0
C0
C0
C0
C0
C0
E0
E0
E0
F8
ENDCHAR
STARTCHAR 3011
ENCODING 12305
SWIDTH 1020 0
DWIDTH 17 0
BBX 5 17 1 -2
BITMAP
F8
38
38
38
38
18
18
18
18
18
18
18
18
38
38
38
F8
ENDCHAR
STARTCHAR 3012
ENCODING 12306
SWIDTH 1020 0
DWIDTH 17 0
BBX 15 16 0 -2
BITMAP
FFFE
FFFE
FFFE
0000
0000
FFFE
FFFE
0380
0380
0380
0380
0380
0380
0380
0380
0380
ENDCHAR
STARTCHAR 3013
ENCODING 12307
SWIDTH 1020 0
DWIDTH 17 0
BBX 12 9 2 2
BITMAP
FFF0
FFF0
FFF0
0000
0000
0000
FFF0
FFF0
FFF0
ENDCHAR
STARTCHAR 3014
ENCODING 12308
SWIDTH 1020 0
DWIDTH 17 0
BBX 4 17 11 -2
BITMAP
10
60
60
80
80
80
80
80
80
80
80
80
80
80
80
60
10
ENDCHAR
STARTCHAR 3015
ENCODING 12309
SWIDTH 1020 0
DWIDTH 17 0
BBX 4 17 1 -2
BITMAP
80
60
60
10
10
10
10
10
10
10
10
10
10
10
10
60
80
ENDCHAR
STARTCHAR 301C
ENCODING 12316
SWIDTH 1020 0
DWIDTH 17 0
BBX 16 6 0 3
BITMAP
3C00
6600
8381
01C2
00EC
0038
ENDCHAR
STARTCHAR 301D
ENCODING 12317
SWIDTH 1020 0
DWIDTH 17 0
BBX 6 4 10 10
BITMAP
6C
6C
48
90
ENDCHAR
STARTCHAR 301F
ENCODING 12319
SWIDTH 1020 0
DWIDTH 17 0
BBX 6 3 1 -1
BITMAP
6C
48
90
ENDCHAR
STARTCHAR 3041
ENCODING 12353
SWIDTH 1020 0
DWIDTH 17 0
BBX 10 11 3 -2
BITMAP
1C00
4D00
7F00
1000
1F00
3680
56C0
5C40
AEC0
C080
0700
ENDCHAR
STARTCHAR 3042
ENCODING 12354
SWIDTH 1020 0
DWIDTH 17 0
BBX 13 16 2 -1
BITMAP
1800
0E00
0E00
08C0
CFC0
7E00
1880
1FE0
3330
7318
5E18
CE18
BE18
E030
0060
0780
ENDCHAR
STARTCHAR 3043
ENCODING 12355
SWIDTH 1020 0
DWIDTH 17 0
BBX 11 8 3 -1
BITMAP
8080
80C0
C040
C060
C0E0
5040
6000
2000
ENDCHAR
STARTCHAR 3044
ENCODING 12356
SWIDTH 1020 0
DWIDTH 17 0
BBX 14 12 1 0
BITMAP
8000
4020
4010
6018
6008
600C
641C
640C
2808
3800
3000
1000
ENDCHAR
STARTCHAR 3045
ENCODING 12357
SWIDTH 1020 0
DWIDTH 17 0
BBX 8 11 4 -2
BITMAP
38
1C
00
BC
62
03
03
03
0E
0C
38
ENDCHAR
STARTCHAR 3046
ENCODING 12358
SWIDTH 1020 0
DWIDTH 17 0
BBX 10 17 3 -2
BITMAP
1C00
0F00
0F00
0700
0000
0000
9F00
F180
60C0
00C0
00C0
00C0
0080
0180
0100
0600
1C00
ENDCHAR
STARTCHAR 3047
ENCODING 12359
SWIDTH 1020 0
DWIDTH 17 0
BBX 10 10 3 -1
BITMAP
0C00
1E00
0600
5F00
7700
0C00
1C00
2E00
66C0
C7C0
ENDCHAR
STARTCHAR 3048
ENCODING 12360
SWIDTH 1020 0
DWIDTH 17 0
BBX 13 16 2 -1
BITMAP
0F00
0380
0380
0380
0000
2780
3EC0
1380
0700
0600
1800
3E00
6700
C300
C3F8
00F8
ENDCHAR
STARTCHAR 3049
ENCODING 12361
SWIDTH 1020 0
DWIDTH 17 0
BBX 10 10 3 -2
BITMAP
3000
9680
FEC0
2040
2F80
30C0
60C0
ACC0
6780
2000
ENDCHAR
STARTCHAR 304A
ENCODING 12362
SWIDTH 1020 0
DWIDTH 17 0
BBX 15 16 1 -1
BITMAP
3000
1818
1818
180C
1306
DF0C
7800
1070
1398
140C
180C
300C
F00C
5318
39F0
1000
ENDCHAR
STARTCHAR 304B
ENCODING 12363
SWIDTH 1020 0
DWIDTH 17 0
BBX 15 15 1 -1
BITMAP
1800
1800
0C00
0C00
0F90
B9C8
F84C
5044
1046
304E
21C6
69C0
6780
C380
C300
ENDCHAR
STARTCHAR 304C
ENCODING 12364
SWIDTH 1020 0
DWIDTH 17 0
BBX 16 16 0 -1
BITMAP
0002
180B
180B
0C0D
0C04
0F90
B9C8
F8CC
50C4
10C6
30CE
21C6
69C0
6780
C380
C200
ENDCHAR
STARTCHAR 304D
ENCODING 12365
SWIDTH 1020 0
DWIDTH 17 0
BBX 10 17 3 -2
BITMAP
1000
1C00
1C00
1D80
CF80
7E00
06C0
C7C0
7F00
3180
0080
7FC0
C1C0
8000
C000
7F00
1F00
ENDCHAR
STARTCHAR 304E
ENCODING 12366
SWIDTH 1020 0
DWIDTH 17 0
BBX 14 17 2 -2
BITMAP
1008
182C
182C
1BB4
CF90
7E00
06C0
C7C0
7F00
3380
0080
7FC0
C3C0
8000
C000
7F00
1F00
ENDCHAR
STARTCHAR 304F
ENCODING 12367
SWIDTH 1020 0
DWIDTH 17 0
BBX 8 17 3 -2
BITMAP
0E
07
07
07
0E
1C
30
60
80
C0
60
30
1C
0E
07
07
01
ENDCHAR
STARTCHAR 3050
ENCODING 12368
SWIDTH 1020 0
DWIDTH 17 0
BBX 13 17 3 -2
BITMAP
0E00
0700
0700
0710
0E58
1C68
3020
6000
8000
C000
6000
3000
1C00
0E00
0700
0700
0100
ENDCHAR
STARTCHAR 3051
ENCODING 12369
SWIDTH 1020 0
DWIDTH 17 0
BBX 15 17 1 -2
BITMAP
01E0
C030
C030
6030
6030
603C
6DFE
C7F2
C030
C030
C030
D030
D030
6020
6060
2040
0180
ENDCHAR
STARTCHAR 3052
ENCODING 12370
SWIDTH 1020 0
DWIDTH 17 0
BBX 15 17 1 -2
BITMAP
01C4
C066
C066
607A
606C
6060
606C
CDFE
C7E0
C060
C060
D060
D060
6040
61C0
2180
0300
ENDCHAR
STARTCHAR 3053
ENCODING 12371
SWIDTH 1020 0
DWIDTH 17 0
BBX 12 12 2 0
BITMAP
2000
1FC0
0FC0
0300
0000
0000
4000
8000
8000
C000
7FF0
1FF0
ENDCHAR
STARTCHAR 3054
ENCODING 12372
SWIDTH 1020 0
DWIDTH 17 0
BBX 14 15 2 0
BITMAP
0008
002C
002C
2034
1FD0
0FC0
0300
0000
0000
4000
8000
8000
C000
7FF0
1FF0
ENDCHAR
STARTCHAR 3055
ENCODING 12373
SWIDTH 1020 0
DWIDTH 17 0
BBX 10 16 3 -1
BITMAP
1C00
3000
3000
3080
1CC0
8FC0
FF00
6700
0180
3D80
47C0
80C0
C000
4000
7F00
1F00
ENDCHAR
STARTCHAR 3056
ENCODING 12374
SWIDTH 1020 0
DWIDTH 17 0
BBX 14 16 2 -1
BITMAP
1808
302C
302C
30B4
18D0
8FC0
FF00
6700
0380
3B80
47C0
80C0
C000
4000
7F00
1F00
ENDCHAR
STARTCHAR 3057
ENCODING 12375
SWIDTH 1020 0
DWIDTH 17 0
BBX 12 16 3 -1
BITMAP
C000
6000
6000
7000
6000
6000
6000
6000
6000
4000
4000
4010
4020
60C0
3F80
1E00
ENDCHAR
STARTCHAR 3058
ENCODING 12376
SWIDTH 1020 0
DWIDTH 17 0
BBX 12 16 3 -1
BITMAP
C000
6020
6020
70B0
60D0
6040
6000
6000
6000
4000
4000
4010
4020
60C0
3F80
1E00
ENDCHAR
STARTCHAR 3059
ENCODING 12377
SWIDTH 1020 0
DWIDTH 17 0
BBX 16 17 0 -2
BITMAP
03C0
00E0
00E0
00E0
01FE
8FEF
F820
63A0
06E0
04E0
04E0
06E0
03E0
00C0
01C0
0180
0600
ENDCHAR
STARTCHAR 305A
ENCODING 12378
SWIDTH 1020 0
DWIDTH 17 0
BBX 16 17 0 -2
BITMAP
03CA
00EF
00EF
00E5
00E0
8FFE
F8EF
63A0
06E0
04E0
04E0
06E0
03E0
00C0
01C0
0180
0600
ENDCHAR
STARTCHAR 305B
ENCODING 12379
SWIDTH 1020 0
DWIDTH 17 0
BBX 16 15 0 -1
BITMAP
00E0
00E0
1830
0C30
0C30
0CFE
8FFF
FE30
6C30
0CE0
0CE0
0C00
0C00
07F8
03F8
ENDCHAR
STARTCHAR 305C
ENCODING 12380
SWIDTH 1020 0
DWIDTH 17 0
BBX 16 16 0 -1
BITMAP
0002
01CB
01CB
18ED
0CE4
0CE0
0CFE
8FFF
FEE0
6CE0
0DC0
0CC0
0C00
0C00
07F8
03F8
ENDCHAR
STARTCHAR 305D
ENCODING 12381
SWIDTH 1020 0
DWIDTH 17 0
BBX 13 16 1 -2
BITMAP
17C0
17C0
1DC0
0B80
0300
0700
09F8
1FF8
F380
C300
0400
0400
0400
0700
03C0
01C0
ENDCHAR
STARTCHAR 305E
ENCODING 12382
SWIDTH 1020 0
DWIDTH 17 0
BBX 15 16 1 -2
BITMAP
17C4
17C4
1DD6
0B9A
0308
0700
09F8
1FF8
F380
C300
0400
0400
0400
0700
03C0
01C0
ENDCHAR
STARTCHAR 305F
ENCODING 12383
SWIDTH 1020 0
DWIDTH 17 0
BBX 13 14 1 0
BITMAP
3000
3000
1800
1B00
9F60
FC38
7018
1020
3000
2000
6300
6380
C1F8
C078
ENDCHAR
STARTCHAR 3060
ENCODING 12384
SWIDTH 1020 0
DWIDTH 17 0
BBX 15 15 1 0
BITMAP
0004
3016
3016
181A
1B08
9F60
FC38
7018
1020
3000
2000
6300
6380
C1F8
C078
ENDCHAR
STARTCHAR 3061
ENCODING 12385
SWIDTH 1020 0
DWIDTH 17 0
BBX 13 16 2 -1
BITMAP
1800
0E00
0E00
0E00
8BC0
FFC0
5800
1000
13E0
3730
3818
3018
0018
0030
0060
0F80
ENDCHAR
STARTCHAR 3062
ENCODING 12386
SWIDTH 1020 0
DWIDTH 17 0
BBX 14 16 2 -1
BITMAP
1800
0E08
0E08
0E2C
8BB4
FFD0
5800
1000
13E0
3730
3818
3018
0018
0030
0060
0F80
ENDCHAR
STARTCHAR 3063
ENCODING 12387
SWIDTH 1020 0
DWIDTH 17 0
BBX 11 7 2 -1
BITMAP
8FC0
F860
6020
0060
0040
03C0
0F00
ENDCHAR
STARTCHAR 3064
ENCODING 12388
SWIDTH 1020 0
DWIDTH 17 0
BBX 14 10 1 0
BITMAP
07F0
9C08
F80C
6004
000C
000C
0018
0030
0060
0780
ENDCHAR
STARTCHAR 3065
ENCODING 12389
SWIDTH 1020 0
DWIDTH 17 0
BBX 15 15 1 0
BITMAP
0004
0016
0016
001A
0008
07F0
9C08
F80C
6004
000C
000C
0018
0030
0060
0780
ENDCHAR
STARTCHAR 3066
ENCODING 12390
SWIDTH 1020 0
DWIDTH 17 0
BBX 13 13 1 -1
BITMAP
83F8
DF78
71C0
2300
0400
0400
0800
0800
0800
0C00
0700
07C0
01C0
ENDCHAR
STARTCHAR 3067
ENCODING 12391
SWIDTH 1020 0
DWIDTH 17 0
BBX 15 13 1 -1
BITMAP
83F0
DF70
71C4
2316
041A
0408
0800
0800
0800
0C00
0700
07C0
01C0
ENDCHAR
STARTCHAR 3068
ENCODING 12392
SWIDTH 1020 0
DWIDTH 17 0
BBX 10 16 3 -1
BITMAP
6000
3000
3000
3C00
3000
3000
10C0
17C0
1F00
3000
4000
C000
8000
C0C0
7FC0
3F00
ENDCHAR
STARTCHAR 3069
ENCODING 12393
SWIDTH 1020 0
DWIDTH 17 0
BBX 13 16 3 -1
BITMAP
6010
3058
3058
3C68
3020
3000
10C0
17C0
1F00
3000
4000
C000
8000
C0C0
7FC0
3F00
ENDCHAR
STARTCHAR 306A
ENCODING 12394
SWIDTH 1020 0
DWIDTH 17 0
BBX 14 16 1 -1
BITMAP
1800
0C00
0C00
0800
9F30
FC1C
501C
3020
2020
6040
C040
C040
07E0
0878
09DC
0780
ENDCHAR
STARTCHAR 306B
ENCODING 12395
SWIDTH 1020 0
DWIDTH 17 0
BBX 14 15 1 -1
BITMAP
4000
4000
6000
61F0
67F8
6020
C000
C000
C000
C300
D400
D700
63FC
61F8
2000
ENDCHAR
STARTCHAR 306C
ENCODING 12396
SWIDTH 1020 0
DWIDTH 17 0
BBX 15 15 1 0
BITMAP
0700
0380
0380
4180
4380
47F0
6F98
330C
270C
740C
580C
DDE8
9318
E3BE
41E6
ENDCHAR
STARTCHAR 306D
ENCODING 12397
SWIDTH 1020 0
DWIDTH 17 0
BBX 15 16 1 -1
BITMAP
1000
1800
1800
0C00
1800
BBF0
F718
5C0C
180C
100C
300C
71F8
5318
D33E
B9E6
3000
ENDCHAR
STARTCHAR 306E
ENCODING 12398
SWIDTH 1020 0
DWIDTH 17 0
BBX 14 12 1 0
BITMAP
07E0
1BB8
3198
638C
430C
C70C
840C
8C0C
D818
7018
6070
03C0
ENDCHAR
STARTCHAR 306F
ENCODING 12399
SWIDTH 1020 0
DWIDTH 17 0
BBX 15 15 1 -1
BITMAP
C1E0
C1E0
6030
6030
6020
677C
C3FC
C1A0
C020
C020
D030
D3F0
643C
676E
63C4
ENDCHAR
STARTCHAR 3070
ENCODING 12400
SWIDTH 1020 0
DWIDTH 17 0
BBX 15 16 1 -1
BITMAP
0004
C3C6
C3C6
606A
606C
6044
6DF8
C7F8
C340
C040
C040
D060
D7E0
6878
6DDC
6788
ENDCHAR
STARTCHAR 3071
ENCODING 12401
SWIDTH 1020 0
DWIDTH 17 0
BBX 15 16 1 -1
BITMAP
000C
C3D2
C3D2
6072
606C
6040
6DF8
C7F8
C340
C040
C040
D060
D7E0
6878
6DDC
6788
ENDCHAR
STARTCHAR 3072
ENCODING 12402
SWIDTH 1020 0
DWIDTH 17 0
BBX 15 15 1 -1
BITMAP
0020
0020
0C30
9C30
7038
3028
202C
2026
4024
4020
4060
4040
61C0
3780
1F00
ENDCHAR
STARTCHAR 3073
ENCODING 12403
SWIDTH 1020 0
DWIDTH 17 0
BBX 16 16 0 -1
BITMAP
0002
000B
000B
0C2D
9C34
7030
3038
2028
202E
4026
4020
40E0
40C0
61C0
3780
1E00
ENDCHAR
STARTCHAR 3074
ENCODING 12404
SWIDTH 1020 0
DWIDTH 17 0
BBX 16 16 0 -1
BITMAP
0006
0009
0009
0C29
9C36
7030
3038
2028
202E
4026
4020
40E0
40C0
61C0
3780
1E00
ENDCHAR
STARTCHAR 3075
ENCODING 12405
SWIDTH 1020 0
DWIDTH 17 0
BBX 16 15 0 -1
BITMAP
0200
0200
0180
01E0
03E0
0400
0400
0200
03F0
078C
09C6
B1C7
65C2
43C0
0180
ENDCHAR
STARTCHAR 3076
ENCODING 12406
SWIDTH 1020 0
DWIDTH 17 0
BBX 16 15 0 -1
BITMAP
0200
0200
0182
01EB
03ED
0404
0400
0200
03F0
078C
09C6
B1C7
65C2
43C0
0180
ENDCHAR
STARTCHAR 3077
ENCODING 12407
SWIDTH 1020 0
DWIDTH 17 0
BBX 16 15 0 -1
BITMAP
0200
0200
0186
01E9
03E9
0406
0400
0200
03F0
078C
09C6
B1C7
65C2
43C0
0180
ENDCHAR
STARTCHAR 3078
ENCODING 12408
SWIDTH 1020 0
DWIDTH 17 0
BBX 16 10 0 1
BITMAP
0E00
1A00
1180
31C0
B0E0
E030
4018
000E
0007
0003
ENDCHAR
STARTCHAR 3079
ENCODING 12409
SWIDTH 1020 0
DWIDTH 17 0
BBX 16 14 0 1
BITMAP
0008
002C
002C
0034
0E10
1A00
1180
31C0
B0E0
E030
4018
000E
0007
0003
ENDCHAR
STARTCHAR 307A
ENCODING 12410
SWIDTH 1020 0
DWIDTH 17 0
BBX 16 14 0 1
BITMAP
0018
0024
0024
0024
0E18
1A00
1180
31C0
B0E0
E030
4018
000E
0007
0003
ENDCHAR
STARTCHAR 307B
ENCODING 12411
SWIDTH 1020 0
DWIDTH 17 0
BBX 15 15 1 -1
BITMAP
C078
C078
67FC
6020
6030
603C
C07C
C7F0
C030
C030
D030
D3F0
643C
646E
23C4
ENDCHAR
STARTCHAR 307C
ENCODING 12412
SWIDTH 1020 0
DWIDTH 17 0
BBX 15 15 1 -1
BITMAP
C1E4
C1E4
6FF6
604A
606C
6074
C1F0
CFE0
C060
C060
D060
D7E0
6878
69DC
2788
ENDCHAR
STARTCHAR 307D
ENCODING 12413
SWIDTH 1020 0
DWIDTH 17 0
BBX 15 16 1 -1
BITMAP
000C
C1D2
C1D2
6FF2
604C
6060
6078
C1F8
CFE0
C060
C060
D060
D7E0
6878
69DC
2788
ENDCHAR
STARTCHAR 307E
ENCODING 12414
SWIDTH 1020 0
DWIDTH 17 0
BBX 12 16 2 -1
BITMAP
0E00
0700
0700
0700
4660
7FE0
3F00
0640
4FE0
7F80
2600
0700
7F00
87C0
CF70
7830
ENDCHAR
STARTCHAR 307F
ENCODING 12415
SWIDTH 1020 0
DWIDTH 17 0
BBX 15 15 1 -1
BITMAP
0180
0180
2FC0
39C0
1380
0730
0418
0C18
3FF8
5818
903E
E026
6060
0040
0180
ENDCHAR
STARTCHAR 3080
ENCODING 12416
SWIDTH 1020 0
DWIDTH 17 0
BBX 15 16 1 -1
BITMAP
3000
1800
1800
1B18
FF2C
7826
102E
1024
7810
D810
9018
B008
7018
2018
3FF0
1FE0
ENDCHAR
STARTCHAR 3081
ENCODING 12417
SWIDTH 1020 0
DWIDTH 17 0
BBX 14 15 1 -1
BITMAP
0380
0380
01C0
41C0
4180
67E0
3BB8
3318
770C
5C0C
C80C
9F0C
F718
4030
01C0
ENDCHAR
STARTCHAR 3082
ENCODING 12418
SWIDTH 1020 0
DWIDTH 17 0
BBX 12 16 2 -1
BITMAP
0E00
0700
0700
8700
6E00
3E00
1E00
4800
8880
D840
7E20
3E30
1030
1030
1FE0
0FC0
ENDCHAR
STARTCHAR 3083
ENCODING 12419
SWIDTH 1020 0
DWIDTH 17 0
BBX 13 11 1 -1
BITMAP
0400
1F00
2380
27F0
2D98
B318
FBF0
4DE0
0C00
0700
0700
ENDCHAR
STARTCHAR 3084
ENCODING 12420
SWIDTH 1020 0
DWIDTH 17 0
BBX 16 16 0 -1
BITMAP
0180
00C0
00C0
1CE0
23E0
303C
11C6
1F83
8C03
FCFE
643C
0600
0380
0380
01C0
01C0
ENDCHAR
STARTCHAR 3085
ENCODING 12421
SWIDTH 1020 0
DWIDTH 17 0
BBX 11 12 3 -2
BITMAP
8E00
D600
5F80
5740
F760
B720
D760
D6C0
4F80
0E00
0C00
1000
ENDCHAR
STARTCHAR 3086
ENCODING 12422
SWIDTH 1020 0
DWIDTH 17 0
BBX 14 16 1 -2
BITMAP
0380
0380
C5C0
69F0
6BD8
6DCC
49CC
D9CC
D5CC
E5CC
E5D8
43F0
6180
0380
0300
0400
ENDCHAR
STARTCHAR 3087
ENCODING 12423
SWIDTH 1020 0
DWIDTH 17 0
BBX 10 11 3 -1
BITMAP
1C00
0E00
0D80
0F80
0C00
0C00
0C00
7E00
8F80
DDC0
7000
ENDCHAR
STARTCHAR 3088
ENCODING 12424
SWIDTH 1020 0
DWIDTH 17 0
BBX 12 16 2 -1
BITMAP
0E00
0780
0780
0700
0700
0760
07F0
0700
0700
0700
0700
0700
7F00
87C0
CE70
7830
ENDCHAR
STARTCHAR 3089
ENCODING 12425
SWIDTH 1020 0
DWIDTH 17 0
BBX 11 16 3 -1
BITMAP
1000
0C00
0C00
1E00
2E00
4000
4000
4000
4F80
D0C0
E060
C060
0060
00C0
0180
1E00
ENDCHAR
STARTCHAR 308A
ENCODING 12426
SWIDTH 1020 0
DWIDTH 17 0
BBX 10 16 3 -2
BITMAP
C000
C000
6700
6D80
50C0
50C0
D0C0
E0C0
E0C0
40C0
60C0
0180
0180
0700
0E00
3000
ENDCHAR
STARTCHAR 308B
ENCODING 12427
SWIDTH 1020 0
DWIDTH 17 0
BBX 12 15 2 -1
BITMAP
2780
2780
3EC0
1380
0700
0600
0800
17C0
3860
6030
C030
CE30
13B0
18E0
0FC0
ENDCHAR
STARTCHAR 308C
ENCODING 12428
SWIDTH 1020 0
DWIDTH 17 0
BBX 15 16 1 -1
BITMAP
3000
1800
1800
1800
11F0
BB98
F718
5418
1818
1018
3030
7030
5030
D032
B83C
3018
ENDCHAR
STARTCHAR 308D
ENCODING 12429
SWIDTH 1020 0
DWIDTH 17 0
BBX 12 15 2 -1
BITMAP
2380
2380
3FC0
1B80
0700
0800
1800
37C0
7860
C030
C030
0030
0060
00C0
0F00
ENDCHAR
STARTCHAR 308E
ENCODING 12430
SWIDTH 1020 0
DWIDTH 17 0
BBX 11 10 2 -2
BITMAP
3000
1800
F780
58C0
1060
3020
5060
F040
5B80
1000
ENDCHAR
STARTCHAR 308F
ENCODING 12431
SWIDTH 1020 0
DWIDTH 17 0
BBX 14 16 1 -1
BITMAP
3000
1800
1800
1C00
1800
B000
FDF0
5718
180C
300C
300C
500C
D018
D830
39C0
1000
ENDCHAR
STARTCHAR 3090
ENCODING 12432
SWIDTH 1020 0
DWIDTH 17 0
BBX 14 15 1 -1
BITMAP
1180
1180
1FC0
0D80
0380
0300
07F0
1C18
2C0C
680C
C80C
538C
7458
2470
03E0
ENDCHAR
STARTCHAR 3091
ENCODING 12433
SWIDTH 1020 0
DWIDTH 17 0
BBX 15 15 0 -1
BITMAP
0BE0
0BE0
0EE0
05C0
0200
07F0
0C18
1B98
05B0
07E0
0C00
1818
3624
63CE
C1C6
ENDCHAR
STARTCHAR 3092
ENCODING 12434
SWIDTH 1020 0
DWIDTH 17 0
BBX 12 16 3 -1
BITMAP
1C00
0E00
0E00
8EC0
FFC0
7C00
1020
3E30
6770
C7C0
CF00
1700
3000
2000
3FC0
1FC0
ENDCHAR
STARTCHAR 3093
ENCODING 12435
SWIDTH 1020 0
DWIDTH 17 0
BBX 14 15 1 -1
BITMAP
0700
0700
0380
0380
0700
0700
0C00
0800
1F00
3384
2384
6388
6398
C1F0
C1E0
ENDCHAR
STARTCHAR 309B
ENCODING 12443
SWIDTH 1020 0
DWIDTH 17 0
BBX 4 5 0 10
BITMAP
20
B0
B0
D0
40
ENDCHAR
STARTCHAR 309C
ENCODING 12444
SWIDTH 1020 0
DWIDTH 17 0
BBX 4 5 0 10
BITMAP
60
90
90
90
60
ENDCHAR
STARTCHAR 309D
ENCODING 12445
SWIDTH 1020 0
DWIDTH 17 0
BBX 7 10 4 1
BITMAP
80
80
40
40
20
18
1C
0E
1E
60
ENDCHAR
STARTCHAR 309E
ENCODING 12446
SWIDTH 1020 0
DWIDTH 17 0
BBX 9 11 4 1
BITMAP
0100
8D80
8E80
4200
4000
2000
1800
1C00
0E00
1E00
6000
ENDCHAR
STARTCHAR 30A1
ENCODING 12449
SWIDTH 1020 0
DWIDTH 17 0
BBX 10 9 3 -1
BITMAP
0100
DF80
70C0
0180
1E00
0C00
1C00
1000
6000
ENDCHAR
STARTCHAR 30A2
ENCODING 12450
SWIDTH 1020 0
DWIDTH 17 0
BBX 13 13 2 -1
BITMAP
0060
8FF0
F838
6060
0EC0
0700
0700
0700
0700
0600
0E00
0800
1000
ENDCHAR
STARTCHAR 30A3
ENCODING 12451
SWIDTH 1020 0
DWIDTH 17 0
BBX 9 10 3 -2
BITMAP
0100
0780
0700
1E00
3C00
EE00
0E00
0E00
0E00
0C00
ENDCHAR
STARTCHAR 30A4
ENCODING 12452
SWIDTH 1020 0
DWIDTH 17 0
BBX 11 15 2 -1
BITMAP
00C0
00C0
00E0
0380
0380
0700
0E00
1F00
3700
C700
0700
0700
0700
0700
0700
ENDCHAR
STARTCHAR 30A5
ENCODING 12453
SWIDTH 1020 0
DWIDTH 17 0
BBX 10 11 4 -2
BITMAP
3800
1C00
9900
FF80
C0C0
8180
0100
0300
0E00
0C00
3800
ENDCHAR
STARTCHAR 30A6
ENCODING 12454
SWIDTH 1020 0
DWIDTH 17 0
BBX 13 15 2 -1
BITMAP
1800
1800
0E00
0E60
CFF0
7838
6030
6060
6060
4040
00C0
0380
0300
0600
0800
ENDCHAR
STARTCHAR 30A7
ENCODING 12455
SWIDTH 1020 0
DWIDTH 17 0
BBX 10 8 3 -1
BITMAP
4700
7F80
2C00
0E00
0E00
0C00
DF80
7FC0
ENDCHAR
STARTCHAR 30A8
ENCODING 12456
SWIDTH 1020 0
DWIDTH 17 0
BBX 14 10 1 1
BITMAP
43F0
3FF8
1F10
0380
0380
0380
0380
83B8
FFFC
7004
ENDCHAR
STARTCHAR 30A9
ENCODING 12457
SWIDTH 1020 0
DWIDTH 17 0
BBX 10 11 3 -2
BITMAP
0E00
0600
8780
FFC0
4E00
1E00
3600
6600
8E00
0E00
0600
ENDCHAR
STARTCHAR 30AA
ENCODING 12458
SWIDTH 1020 0
DWIDTH 17 0
BBX 14 15 1 -1
BITMAP
0380
0380
01C0
01C0
01C0
CFF8
7BDC
27C0
05C0
0DC0
19C0
31C0
25C0
C3C0
01C0
ENDCHAR
STARTCHAR 30AB
ENCODING 12459
SWIDTH 1020 0
DWIDTH 17 0
BBX 14 14 1 0
BITMAP
0C00
0C00
0780
0710
47F8
7F9C
3718
0C18
0C18
0830
1830
13B0
21E0
C060
ENDCHAR
STARTCHAR 30AC
ENCODING 12460
SWIDTH 1020 0
DWIDTH 17 0
BBX 16 15 0 0
BITMAP
0002
0C0B
0C0B
078D
0614
47F8
7F9C
3618
0C18
0C18
0830
1830
13B0
21E0
C0E0
ENDCHAR
STARTCHAR 30AD
ENCODING 12461
SWIDTH 1020 0
DWIDTH 17 0
BBX 14 15 1 -1
BITMAP
0C00
0C00
0C00
0760
4FF0
7C00
2700
0738
87FC
FF80
7380
0380
0380
0380
0380
ENDCHAR
STARTCHAR 30AE
ENCODING 12462
SWIDTH 1020 0
DWIDTH 17 0
BBX 16 16 0 -1
BITMAP
0002
0C0B
0C0B
0C0D
06E4
4FF0
7C00
2600
0638
87FC
FF80
7380
0380
0380
0380
0380
ENDCHAR
STARTCHAR 30AF
ENCODING 12463
SWIDTH 1020 0
DWIDTH 17 0
BBX 11 15 3 -1
BITMAP
1C00
1C00
0E00
1C40
1FC0
30E0
20C0
4180
8180
0700
0700
0E00
1C00
3000
C000
ENDCHAR
STARTCHAR 30B0
ENCODING 12464
SWIDTH 1020 0
DWIDTH 17 0
BBX 14 16 2 -1
BITMAP
0008
182C
182C
0E34
1890
1FC0
30E0
20C0
4380
8380
0700
0700
0E00
1800
3000
C000
ENDCHAR
STARTCHAR 30B1
ENCODING 12465
SWIDTH 1020 0
DWIDTH 17 0
BBX 14 15 1 -1
BITMAP
1000
1000
1800
0C00
1800
19F8
3FFC
2180
41C0
81C0
0380
0380
0700
0C00
3000
ENDCHAR
STARTCHAR 30B2
ENCODING 12466
SWIDTH 1020 0
DWIDTH 17 0
BBX 16 16 0 -1
BITMAP
0002
100B
100B
180D
0C04
1800
19F8
3FFC
2180
41C0
81C0
0380
0380
0600
0C00
3000
ENDCHAR
STARTCHAR 30B3
ENCODING 12467
SWIDTH 1020 0
DWIDTH 17 0
BBX 11 10 3 1
BITMAP
0180
FFC0
70E0
00C0
00C0
0080
0180
0180
FF80
70C0
ENDCHAR
STARTCHAR 30B4
ENCODING 12468
SWIDTH 1020 0
DWIDTH 17 0
BBX 14 14 2 1
BITMAP
0008
002C
002C
0034
0390
FFC0
70E0
00C0
00C0
0080
0380
0380
FF80
70C0
ENDCHAR
STARTCHAR 30B5
ENCODING 12469
SWIDTH 1020 0
DWIDTH 17 0
BBX 14 13 1 -1
BITMAP
01C0
1860
0C60
8DF8
FFFC
6C60
0C60
0860
01C0
01C0
0380
0300
0C00
ENDCHAR
STARTCHAR 30B6
ENCODING 12470
SWIDTH 1020 0
DWIDTH 17 0
BBX 16 16 0 -1
BITMAP
0002
000B
000B
01CD
18E4
0CE0
8DF8
FFFC
6CE0
0CE0
08E0
01C0
01C0
0380
0200
0C00
ENDCHAR
STARTCHAR 30B7
ENCODING 12471
SWIDTH 1020 0
DWIDTH 17 0
BBX 12 13 3 -1
BITMAP
6000
3000
1010
0020
C020
6040
20C0
0180
0700
0E00
DC00
7000
2000
ENDCHAR
STARTCHAR 30B8
ENCODING 12472
SWIDTH 1020 0
DWIDTH 17 0
BBX 14 16 2 -1
BITMAP
0008
002C
002C
6034
3010
1000
0010
C020
6060
20C0
0380
0700
0E00
D800
7000
2000
ENDCHAR
STARTCHAR 30B9
ENCODING 12473
SWIDTH 1020 0
DWIDTH 17 0
BBX 12 12 2 0
BITMAP
0080
47C0
7E60
30C0
00C0
0380
0300
0780
0EC0
1860
2070
C030
ENDCHAR
STARTCHAR 30BA
ENCODING 12474
SWIDTH 1020 0
DWIDTH 17 0
BBX 15 15 1 0
BITMAP
0004
0016
0016
019A
47C8
7C60
31C0
01C0
0380
0300
0780
0DC0
1860
2070
C030
ENDCHAR
STARTCHAR 30BB
ENCODING 12475
SWIDTH 1020 0
DWIDTH 17 0
BBX 14 14 1 0
BITMAP
1800
1800
0F00
0C00
0C10
0FF8
9F1C
FC30
6C20
0C40
0C00
0C00
07F8
03F8
ENDCHAR
STARTCHAR 30BC
ENCODING 12476
SWIDTH 1020 0
DWIDTH 17 0
BBX 16 15 0 0
BITMAP
0002
180B
180B
0E0D
0C04
0C10
0FF8
9E1C
FC30
6C20
0CC0
0C00
0C00
07F8
03F8
ENDCHAR
STARTCHAR 30BD
ENCODING 12477
SWIDTH 1020 0
DWIDTH 17 0
BBX 11 14 3 0
BITMAP
0080
0080
80C0
4060
6060
60C0
00C0
00C0
0180
0100
0700
0600
0C00
3000
ENDCHAR
STARTCHAR 30BE
ENCODING 12478
SWIDTH 1020 0
DWIDTH 17 0
BBX 15 15 1 0
BITMAP
0004
0016
0016
819A
41C8
6060
61C0
01C0
0180
0380
0300
0700
0400
0800
3000
ENDCHAR
STARTCHAR 30BF
ENCODING 12479
SWIDTH 1020 0
DWIDTH 17 0
BBX 11 15 3 -1
BITMAP
1C00
1C00
0E00
1C40
1FC0
30E0
20C0
7D80
8D80
0F00
0700
0E00
1C00
3000
C000
ENDCHAR
STARTCHAR 30C0
ENCODING 12480
SWIDTH 1020 0
DWIDTH 17 0
BBX 14 16 2 -1
BITMAP
0008
182C
182C
0E34
1890
1FC0
30E0
20C0
7B80
8B80
0F00
0700
0E00
1800
3000
C000
ENDCHAR
STARTCHAR 30C1
ENCODING 12481
SWIDTH 1020 0
DWIDTH 17 0
BBX 14 15 1 -1
BITMAP
0060
0060
03F0
0780
3F00
0380
87F8
FFBC
7380
0380
0380
0300
0700
0400
1800
ENDCHAR
STARTCHAR 30C2
ENCODING 12482
SWIDTH 1020 0
DWIDTH 17 0
BBX 16 16 0 -1
BITMAP
0002
00CB
00CB
03ED
0784
3E00
0380
87F8
FFBC
7380
0380
0380
0200
0600
0400
1800
ENDCHAR
STARTCHAR 30C3
ENCODING 12483
SWIDTH 1020 0
DWIDTH 17 0
BBX 10 9 3 -2
BITMAP
1080
9CC0
CCC0
4080
0180
0700
0600
0C00
3000
ENDCHAR
STARTCHAR 30C4
ENCODING 12484
SWIDTH 1020 0
DWIDTH 17 0
BBX 12 12 2 0
BITMAP
1040
0860
8E30
4660
6060
2040
00C0
0080
0380
0300
0600
1800
ENDCHAR
STARTCHAR 30C5
ENCODING 12485
SWIDTH 1020 0
DWIDTH 17 0
BBX 15 15 1 0
BITMAP
0004
0016
0016
101A
09C8
8C60
4460
6060
2040
01C0
0180
0380
0300
0400
1800
ENDCHAR
STARTCHAR 30C6
ENCODING 12486
SWIDTH 1020 0
DWIDTH 17 0
BBX 13 15 1 -1
BITMAP
1040
1040
1FE0
0F20
0000
8070
FFF8
7308
0380
0380
0380
0700
0700
0400
1800
ENDCHAR
STARTCHAR 30C7
ENCODING 12487
SWIDTH 1020 0
DWIDTH 17 0
BBX 16 16 0 -1
BITMAP
0002
10CB
10CB
1FED
0E24
0000
80F0
FFF8
7208
0380
0380
0380
0600
0600
0400
1800
ENDCHAR
STARTCHAR 30C8
ENCODING 12488
SWIDTH 1020 0
DWIDTH 17 0
BBX 9 15 5 -1
BITMAP
C000
C000
7000
7800
7000
7000
7C00
7700
7180
7180
7000
7000
7000
7000
7000
ENDCHAR
STARTCHAR 30C9
ENCODING 12489
SWIDTH 1020 0
DWIDTH 17 0
BBX 11 16 5 -1
BITMAP
0040
C160
C160
71A0
7880
7000
7000
7C00
7700
7180
7180
7000
7000
7000
7000
7000
ENDCHAR
STARTCHAR 30CA
ENCODING 12490
SWIDTH 1020 0
DWIDTH 17 0
BBX 14 15 1 -1
BITMAP
0700
0700
0380
0380
0380
03F8
9FBC
FB84
6380
0700
0700
0400
0C00
0800
3000
ENDCHAR
STARTCHAR 30CB
ENCODING 12491
SWIDTH 1020 0
DWIDTH 17 0
BBX 14 9 1 2
BITMAP
21C0
3FE0
1C20
0000
0000
0000
81F8
FFFC
7804
ENDCHAR
STARTCHAR 30CC
ENCODING 12492
SWIDTH 1020 0
DWIDTH 17 0
BBX 12 12 1 0
BITMAP
0040
23E0
3F70
1860
01C0
1DC0
0780
07C0
0C60
1870
2020
C000
ENDCHAR
STARTCHAR 30CD
ENCODING 12493
SWIDTH 1020 0
DWIDTH 17 0
BBX 12 16 2 -1
BITMAP
0800
0700
0700
0700
0080
6FC0
38E0
0380
0700
0FC0
1F70
3730
C700
0700
0700
0700
ENDCHAR
STARTCHAR 30CE
ENCODING 12494
SWIDTH 1020 0
DWIDTH 17 0
BBX 11 14 2 0
BITMAP
0380
0380
00C0
00E0
00C0
0380
0380
0700
0600
0E00
1800
1000
2000
C000
ENDCHAR
STARTCHAR 30CF
ENCODING 12495
SWIDTH 1020 0
DWIDTH 17 0
BBX 14 10 1 1
BITMAP
3000
19C0
1820
1830
3018
3018
200C
600C
400C
8000
ENDCHAR
STARTCHAR 30D0
ENCODING 12496
SWIDTH 1020 0
DWIDTH 17 0
BBX 15 14 1 1
BITMAP
0004
0016
0016
001A
3008
19C0
1820
1830
3018
3018
200C
600C
400C
8000
ENDCHAR
STARTCHAR 30D1
ENCODING 12497
SWIDTH 1020 0
DWIDTH 17 0
BBX 15 14 1 1
BITMAP
000C
0012
0012
0012
300C
19C0
1820
1830
3018
3018
200C
600C
400C
8000
ENDCHAR
STARTCHAR 30D2
ENCODING 12498
SWIDTH 1020 0
DWIDTH 17 0
BBX 11 12 3 0
BITMAP
C000
6000
7000
6000
61C0
7FC0
6C00
6000
6000
6060
3FE0
1F80
ENDCHAR
STARTCHAR 30D3
ENCODING 12499
SWIDTH 1020 0
DWIDTH 17 0
BBX 13 15 3 0
BITMAP
0010
0058
0058
C068
6020
7000
6000
61C0
7FC0
6C00
6000
6000
6060
3FE0
1F80
ENDCHAR
STARTCHAR 30D4
ENCODING 12500
SWIDTH 1020 0
DWIDTH 17 0
BBX 13 15 3 0
BITMAP
0030
0048
0048
C048
6030
7000
6000
61C0
7FC0
6C00
6000
6000
6060
3FE0
1F80
ENDCHAR
STARTCHAR 30D5
ENCODING 12501
SWIDTH 1020 0
DWIDTH 17 0
BBX 12 12 2 0
BITMAP
00C0
CFE0
7E70
3060
00C0
00C0
0380
0380
0700
0E00
1800
6000
ENDCHAR
STARTCHAR 30D6
ENCODING 12502
SWIDTH 1020 0
DWIDTH 17 0
BBX 15 15 1 0
BITMAP
0004
0016
0016
019A
CFC8
7C60
3060
01C0
01C0
0380
0380
0700
0C00
1800
6000
ENDCHAR
STARTCHAR 30D7
ENCODING 12503
SWIDTH 1020 0
DWIDTH 17 0
BBX 15 15 1 0
BITMAP
000C
0012
0012
0192
CFCC
7C60
3060
01C0
01C0
0380
0380
0700
0C00
1800
6000
ENDCHAR
STARTCHAR 30D8
ENCODING 12504
SWIDTH 1020 0
DWIDTH 17 0
BBX 15 9 0 2
BITMAP
0400
0E00
1980
11C0
30E0
6030
C018
000E
0006
ENDCHAR
STARTCHAR 30D9
ENCODING 12505
SWIDTH 1020 0
DWIDTH 17 0
BBX 15 13 0 2
BITMAP
0010
00D8
00D8
00E8
0420
0E00
1980
11C0
30E0
6030
C018
000E
0006
ENDCHAR
STARTCHAR 30DA
ENCODING 12506
SWIDTH 1020 0
DWIDTH 17 0
BBX 15 13 0 2
BITMAP
0030
00C8
00C8
00C8
0430
0E00
1980
11C0
30E0
6030
C018
000E
0006
ENDCHAR
STARTCHAR 30DB
ENCODING 12507
SWIDTH 1020 0
DWIDTH 17 0
BBX 13 15 2 -1
BITMAP
0E00
0E00
0700
0780
8770
FFF8
7708
0700
0740
2720
6730
C718
D718
0F00
0700
ENDCHAR
STARTCHAR 30DC
ENCODING 12508
SWIDTH 1020 0
DWIDTH 17 0
BBX 15 16 1 -1
BITMAP
0004
0C16
0C16
071A
0788
8770
FFF8
7708
0700
0740
2720
6730
C718
D718
0F00
0700
ENDCHAR
STARTCHAR 30DD
ENCODING 12509
SWIDTH 1020 0
DWIDTH 17 0
BBX 15 16 1 -1
BITMAP
000C
0C12
0C12
0712
078C
8770
FFF8
7708
0700
0740
2720
6730
C718
D718
0F00
0700
ENDCHAR
STARTCHAR 30DE
ENCODING 12510
SWIDTH 1020 0
DWIDTH 17 0
BBX 13 11 1 0
BITMAP
0020
C7F0
7F38
3060
0060
01C0
1380
0C00
0700
0380
0380
ENDCHAR
STARTCHAR 30DF
ENCODING 12511
SWIDTH 1020 0
DWIDTH 17 0
BBX 8 14 4 0
BITMAP
40
40
38
1E
0F
41
38
3E
0E
80
60
3C
1E
03
ENDCHAR
STARTCHAR 30E0
ENCODING 12512
SWIDTH 1020 0
DWIDTH 17 0
BBX 14 14 1 0
BITMAP
0400
0400
0700
0380
0700
0700
0400
0C40
0820
1810
1018
9FF8
FC0C
600C
ENDCHAR
STARTCHAR 30E1
ENCODING 12513
SWIDTH 1020 0
DWIDTH 17 0
BBX 11 12 2 0
BITMAP
00C0
0060
0060
30C0
0EC0
0780
0380
07C0
0E60
1860
3000
C000
ENDCHAR
STARTCHAR 30E2
ENCODING 12514
SWIDTH 1020 0
DWIDTH 17 0
BBX 14 12 1 0
BITMAP
21E0
3FF0
1C00
0700
0778
CFFC
7F00
2700
0700
0700
03F0
01F0
ENDCHAR
STARTCHAR 30E3
ENCODING 12515
SWIDTH 1020 0
DWIDTH 17 0
BBX 11 10 2 -2
BITMAP
3000
1040
1FE0
FEC0
6880
0F00
0E00
0600
0700
0700
ENDCHAR
STARTCHAR 30E4
ENCODING 12516
SWIDTH 1020 0
DWIDTH 17 0
BBX 14 15 1 -1
BITMAP
1800
1800
0C00
0C10
0DF8
078C
BC38
F720
4340
0380
0380
0180
01C0
01C0
01C0
ENDCHAR
STARTCHAR 30E5
ENCODING 12517
SWIDTH 1020 0
DWIDTH 17 0
BBX 11 7 2 0
BITMAP
2380
3FC0
1880
0380
0300
DFC0
70E0
ENDCHAR
STARTCHAR 30E6
ENCODING 12518
SWIDTH 1020 0
DWIDTH 17 0
BBX 14 11 1 0
BITMAP
0040
27E0
3F30
1060
0060
0060
01C0
01D8
DFFC
7804
2000
ENDCHAR
STARTCHAR 30E7
ENCODING 12519
SWIDTH 1020 0
DWIDTH 17 0
BBX 9 9 4 -1
BITMAP
8200
FF00
4180
0300
7F00
2300
0200
BF00
E300
ENDCHAR
STARTCHAR 30E8
ENCODING 12520
SWIDTH 1020 0
DWIDTH 17 0
BBX 11 12 3 0
BITMAP
0180
DFC0
70E0
00C0
00C0
6FC0
3CC0
0180
0180
8D80
FFC0
6040
ENDCHAR
STARTCHAR 30E9
ENCODING 12521
SWIDTH 1020 0
DWIDTH 17 0
BBX 11 13 3 -1
BITMAP
4F00
7F80
2000
0080
8FC0
FCE0
60C0
0180
0180
0700
0E00
1C00
6000
ENDCHAR
STARTCHAR 30EA
ENCODING 12522
SWIDTH 1020 0
DWIDTH 17 0
BBX 10 15 3 -1
BITMAP
0700
0700
C180
61C0
6180
6180
6180
6180
6180
4180
0700
0700
0E00
0C00
3000
ENDCHAR
STARTCHAR 30EB
ENCODING 12523
SWIDTH 1020 0
DWIDTH 17 0
BBX 15 11 1 0
BITMAP
0380
31C0
19E0
19C0
11C2
31C4
31C8
21D8
61F0
43E0
81C0
ENDCHAR
STARTCHAR 30EC
ENCODING 12524
SWIDTH 1020 0
DWIDTH 17 0
BBX 12 12 3 0
BITMAP
C000
6000
6000
6000
6000
6010
6020
60C0
6780
FE00
7000
6000
ENDCHAR
STARTCHAR 30ED
ENCODING 12525
SWIDTH 1020 0
DWIDTH 17 0
BBX 11 11 3 0
BITMAP
0080
8FC0
FE60
4060
60C0
60C0
60C0
60C0
6180
7FC0
6040
ENDCHAR
STARTCHAR 30EE
ENCODING 12526
SWIDTH 1020 0
DWIDTH 17 0
BBX 10 10 3 -2
BITMAP
8100
FF80
C0C0
C0C0
8180
0180
0100
0700
0600
1C00
ENDCHAR
STARTCHAR 30EF
ENCODING 12527
SWIDTH 1020 0
DWIDTH 17 0
BBX 12 13 2 -1
BITMAP
0040
C7E0
7E30
6060
6060
6060
40C0
00C0
0380
0700
0600
0800
3000
ENDCHAR
STARTCHAR 30F0
ENCODING 12528
SWIDTH 1020 0
DWIDTH 17 0
BBX 14 15 1 -1
BITMAP
0380
0380
01C0
01C0
41F0
7FF8
39C0
19C0
91D8
FFFC
71C0
01C0
01C0
01C0
01C0
ENDCHAR
STARTCHAR 30F1
ENCODING 12529
SWIDTH 1020 0
DWIDTH 17 0
BBX 14 11 1 0
BITMAP
0060
37F0
1C60
0840
0780
0380
0380
0330
DFF8
780C
2000
ENDCHAR
STARTCHAR 30F2
ENCODING 12530
SWIDTH 1020 0
DWIDTH 17 0
BBX 12 13 2 -1
BITMAP
0040
DFE0
7830
2060
0060
4FC0
78C0
3380
0380
0700
0E00
1800
6000
ENDCHAR
STARTCHAR 30F3
ENCODING 12531
SWIDTH 1020 0
DWIDTH 17 0
BBX 12 13 3 -1
BITMAP
8000
6000
3010
1020
0020
0040
00C0
0180
0700
0E00
DC00
7000
2000
ENDCHAR
STARTCHAR 30F4
ENCODING 12532
SWIDTH 1020 0
DWIDTH 17 0
BBX 15 16 1 -1
BITMAP
0004
1816
1816
0C1A
0C48
CFE0
7870
6060
6060
61C0
41C0
0180
0380
0300
0400
0800
ENDCHAR
STARTCHAR 30F5
ENCODING 12533
SWIDTH 1020 0
DWIDTH 17 0
BBX 11 10 3 -2
BITMAP
1C00
0E80
5FC0
7CE0
1CC0
1CC0
3080
2180
4F80
8100
ENDCHAR
STARTCHAR 30F6
ENCODING 12534
SWIDTH 1020 0
DWIDTH 17 0
BBX 11 11 2 -2
BITMAP
1800
1800
30C0
3FE0
6300
8380
0380
0700
0600
0800
3000
ENDCHAR
STARTCHAR 30FB
ENCODING 12539
SWIDTH 1020 0
DWIDTH 17 0
BBX 5 4 6 4
BITMAP
70
F8
F8
70
ENDCHAR
STARTCHAR 30FC
ENCODING 12540
SWIDTH 1020 0
DWIDTH 17 0
BBX 14 3 1 6
BITMAP
8000
FFF8
7FFC
ENDCHAR
STARTCHAR 30FD
ENCODING 12541
SWIDTH 1020 0
DWIDTH 17 0
BBX 6 7 5 2
BITMAP
80
40
30
38
1C
1C
04
ENDCHAR
STARTCHAR 30FE
ENCODING 12542
SWIDTH 1020 0
DWIDTH 17 0
BBX 9 10 4 2
BITMAP
0100
0D80
0E80
8200
4000
2000
3800
1C00
1C00
0C00
ENDCHAR
STARTCHAR 3231
ENCODING 12849
SWIDTH 1020 0
DWIDTH 17 0
BBX 16 16 0 -1
BITMAP
1008
2DB4
2DB4
49A2
4BFA
BE21
8829
9FFD
9A21
AAF1
C8E9
89AD
4A2A
4C22
2824
1008
ENDCHAR
STARTCHAR 3232
ENCODING 12850
SWIDTH 1020 0
DWIDTH 17 0
BBX 16 16 0 -1
BITMAP
1008
2384
2384
4212
7FFA
8201
8421
8FF1
9421
A7E1
C421
87E1
4422
45E2
24C4
1008
ENDCHAR
STARTCHAR 3239
ENCODING 12857
SWIDTH 1020 0
DWIDTH 17 0
BBX 16 16 0 -1
BITMAP
1008
26E4
26E4
44D2
44DA
88C1
8FFD
98C1
A8C1
C8C1
8821
8821
482A
4812
281C
1008
ENDCHAR
STARTCHAR 32A4
ENCODING 12964
SWIDTH 1020 0
DWIDTH 17 0
BBX 16 17 0 -2
BITMAP
07E0
1818
1818
2384
4202
4202
8221
83F1
8201
8201
8201
8211
5FFA
4002
2004
1818
07E0
ENDCHAR
STARTCHAR 32A5
ENCODING 12965
SWIDTH 1020 0
DWIDTH 17 0
BBX 16 17 0 -2
BITMAP
07E0
1818
1818
2384
4202
5212
9FF9
9211
9211
9211
9FF1
9211
4202
4202
2204
1818
07E0
ENDCHAR
STARTCHAR 32A6
ENCODING 12966
SWIDTH 1020 0
DWIDTH 17 0
BBX 16 17 0 -2
BITMAP
07E0
1818
1818
2004
4012
5FFA
8201
8201
83C1
8231
8211
8201
4202
4202
2204
1818
07E0
ENDCHAR
STARTCHAR 32A7
ENCODING 12967
SWIDTH 1020 0
DWIDTH 17 0
BBX 16 17 0 -2
BITMAP
07E0
1818
1818
2384
4202
4212
BFF9
8401
8411
8FF9
88C1
90C1
60D2
4FFA
2004
1818
07E0
ENDCHAR
STARTCHAR 32A8
ENCODING 12968
SWIDTH 1020 0
DWIDTH 17 0
BBX 16 17 0 -2
BITMAP
07E0
1818
1818
2384
4202
4212
BFF9
8401
8421
8FF1
9421
A421
4422
47E2
2424
1818
07E0
ENDCHAR
STARTCHAR 3303
ENCODING 13059
SWIDTH 1020 0
DWIDTH 17 0
BBX 16 16 0 -2
BITMAP
9F80
9F80
E200
1400
1980
10FF
10C0
2000
2380
4D80
0580
0588
0590
09A0
09C0
1180
ENDCHAR
STARTCHAR 330D
ENCODING 13069
SWIDTH 1020 0
DWIDTH 17 0
BBX 16 17 0 -2
BITMAP
3000
10E3
10E3
1E3D
F221
1221
2222
2222
5C3E
8822
0600
6400
44FF
4420
4400
0800
3000
ENDCHAR
STARTCHAR 3314
ENCODING 13076
SWIDTH 1020 0
DWIDTH 17 0
BBX 16 16 0 -1
BITMAP
3000
1000
1000
1000
1C00
F000
1000
1000
1EE7
F039
0821
0821
0822
0822
003E
0022
ENDCHAR
STARTCHAR 3318
ENCODING 13080
SWIDTH 1020 0
DWIDTH 17 0
BBX 16 17 0 -2
BITMAP
3180
24CE
24CE
3EF0
458F
45F2
8804
0804
1008
23B0
C180
0180
0200
0220
05F0
1E18
0808
ENDCHAR
STARTCHAR 3322
ENCODING 13090
SWIDTH 1020 0
DWIDTH 17 0
BBX 16 17 0 -2
BITMAP
60C0
2020
2020
3FB0
E201
2402
20CC
2030
1FA0
00C0
0FC0
0180
03FC
3D80
0180
0200
0C00
ENDCHAR
STARTCHAR 3323
ENCODING 13091
SWIDTH 1020 0
DWIDTH 17 0
BBX 16 17 0 -2
BITMAP
60C0
2020
2020
3FB0
E201
2402
20CC
2030
1FA0
0200
0200
0200
03C0
0230
0210
0200
0200
ENDCHAR
STARTCHAR 3326
ENCODING 13094
SWIDTH 1020 0
DWIDTH 17 0
BBX 15 17 1 -2
BITMAP
C300
4980
4980
4580
4400
6000
5800
4C00
4060
43A0
41A0
41A0
01A2
0324
0328
0430
0820
ENDCHAR
STARTCHAR 3327
ENCODING 13095
SWIDTH 1020 0
DWIDTH 17 0
BBX 14 16 2 -1
BITMAP
C000
4000
4000
4000
4000
6000
5800
4B00
4080
40C0
4004
4008
0610
0320
03C0
0300
ENDCHAR
STARTCHAR 332B
ENCODING 13099
SWIDTH 1020 0
DWIDTH 17 0
BBX 16 16 0 -1
BITMAP
13C0
6AC0
6AC0
27C0
2400
24FF
4220
8200
0200
C018
4208
59C8
E81E
522B
49C8
3D88
ENDCHAR
STARTCHAR 3336
ENCODING 13110
SWIDTH 1020 0
DWIDTH 17 0
BBX 16 17 0 -2
BITMAP
0030
1022
1022
183E
A424
62C4
4388
0190
0020
60C0
480C
7C34
4814
ABD5
1215
2026
40C4
ENDCHAR
STARTCHAR 333B
ENCODING 13115
SWIDTH 1020 0
DWIDTH 17 0
BBX 16 17 0 -2
BITMAP
03C0
02C0
02C0
1BC0
1400
A43F
6210
4380
0180
0408
0394
0808
0608
0020
08C0
0780
0400
ENDCHAR
STARTCHAR 3349
ENCODING 13129
SWIDTH 1020 0
DWIDTH 17 0
BBX 16 16 0 -2
BITMAP
6000
6000
1800
0C00
0000
6003
1032
0822
0022
C022
3022
0802
0C02
0004
0004
0018
ENDCHAR
STARTCHAR 334A
ENCODING 13130
SWIDTH 1020 0
DWIDTH 17 0
BBX 16 17 0 -2
BITMAP
3806
0434
0434
0024
3824
0424
0004
7008
0C08
0430
000C
6A34
5594
5015
4BD5
4A26
88C4
ENDCHAR
STARTCHAR 334D
ENCODING 13133
SWIDTH 1020 0
DWIDTH 17 0
BBX 16 17 0 -2
BITMAP
0600
0400
0400
4800
3180
10FF
28C0
4C00
8018
60E8
2028
2028
3829
26CA
20CC
2188
2200
ENDCHAR
STARTCHAR 3351
ENCODING 13137
SWIDTH 1020 0
DWIDTH 17 0
BBX 15 17 1 -2
BITMAP
0C00
C800
C800
8800
8844
8B24
89A8
1188
1010
6060
2000
2030
31D0
2852
2C54
2058
2390
ENDCHAR
STARTCHAR 3357
ENCODING 13143
SWIDTH 1020 0
DWIDTH 17 0
BBX 14 16 1 -2
BITMAP
9F00
9F00
E300
8324
8594
0454
0848
1010
2C20
0440
0400
0780
0460
0420
0400
0400
ENDCHAR
STARTCHAR 337B
ENCODING 13179
SWIDTH 1020 0
DWIDTH 17 0
BBX 16 12 0 0
BITMAP
0406
7EC5
10FF
54C4
54D5
12FD
FFD6
10D5
11B5
118A
1233
1001
ENDCHAR
STARTCHAR 337C
ENCODING 13180
SWIDTH 1020 0
DWIDTH 17 0
BBX 16 14 0 0
BITMAP
0200
0200
3F90
8A38
EBE5
AA27
B7FD
E425
AEF5
AAED
EBA7
AA25
0E20
0A20
ENDCHAR
STARTCHAR 337D
ENCODING 13181
SWIDTH 1020 0
DWIDTH 17 0
BBX 16 14 0 0
BITMAP
1804
1804
11FE
1410
FE10
10D0
10D4
10DE
28D0
28D0
28D0
44D2
47FF
8200
ENDCHAR
STARTCHAR 337E
ENCODING 13182
SWIDTH 1020 0
DWIDTH 17 0
BBX 16 15 0 -1
BITMAP
0AC6
0AC6
AE24
EA24
AACA
AE29
EA2F
AA19
AE20
EA2F
AAE9
0A29
1229
1E2F
2439
ENDCHAR
STARTCHAR 338E
ENCODING 13198
SWIDTH 1020 0
DWIDTH 17 0
BBX 15 10 1 -1
BITMAP
D836
7448
5448
5448
5430
5420
547C
FF42
0042
003C
ENDCHAR
STARTCHAR 338F
ENCODING 13199
SWIDTH 1020 0
DWIDTH 17 0
BBX 15 15 1 -1
BITMAP
C000
C000
4000
4000
4000
4F36
4448
4848
7048
5030
4820
447C
EF42
0042
003C
ENDCHAR
STARTCHAR 339C
ENCODING 13212
SWIDTH 1020 0
DWIDTH 17 0
BBX 15 8 1 1
BITMAP
D9D8
7474
5454
5454
5454
5454
5454
FFFE
ENDCHAR
STARTCHAR 339D
ENCODING 13213
SWIDTH 1020 0
DWIDTH 17 0
BBX 14 8 2 1
BITMAP
6BB0
98E8
88A8
80A8
80A8
88A8
88A8
73FC
ENDCHAR
STARTCHAR 339E
ENCODING 13214
SWIDTH 1020 0
DWIDTH 17 0
BBX 15 13 1 1
BITMAP
C000
C000
4000
4000
4000
5DD8
4874
5054
6054
5054
4854
4854
EDFE
ENDCHAR
STARTCHAR 33A1
ENCODING 13217
SWIDTH 1020 0
DWIDTH 17 0
BBX 13 13 2 1
BITMAP
0030
0030
0048
0008
0030
EF40
58F8
4880
4880
4880
4880
4880
FFC0
ENDCHAR
STARTCHAR 33C4
ENCODING 13252
SWIDTH 1020 0
DWIDTH 17 0
BBX 13 8 2 1
BITMAP
6868
9898
8888
8080
8080
8888
8888
7070
ENDCHAR
STARTCHAR 33CD
ENCODING 13261
SWIDTH 1020 0
DWIDTH 17 0
BBX 16 13 0 -1
BITMAP
EFEE
44C4
44C4
48C8
50D0
60E0
50D0
48C8
48C8
44C4
44C4
EFEF
0201
ENDCHAR
STARTCHAR 4E00
ENCODING 19968
SWIDTH 1020 0
DWIDTH 17 0
BBX 16 3 0 6
BITMAP
0004
000E
FFFF
ENDCHAR
STARTCHAR 4E01
ENCODING 19969
SWIDTH 1020 0
DWIDTH 17 0
BBX 16 17 0 -2
BITMAP
0006
FFFF
FFFF
01C0
01C0
01C0
01C0
01C0
01C0
01C0
01C0
01C0
01C0
01C0
01C0
0FC0
0380
ENDCHAR
STARTCHAR 4E03
ENCODING 19971
SWIDTH 1020 0
DWIDTH 17 0
BBX 16 16 0 -1
BITMAP
0E00
0C00
0C00
0C00
0C00
0C06
0C3F
1FE0
FC00
0C00
0C00
0C04
0C04
0C06
0FFE
07FC
ENDCHAR
STARTCHAR 4E07
ENCODING 19975
SWIDTH 1020 0
DWIDTH 17 0
BBX 16 16 0 -2
BITMAP
0006
0006
FFFF
0600
0600
060C
07FE
060C
060C
060C
0C0C
0C0C
1818
1018
21F0
C0E0
ENDCHAR
STARTCHAR 4E08
ENCODING 19976
SWIDTH 1020 0
DWIDTH 17 0
BBX 16 17 0 -2
BITMAP
01E0
01C0
01C0
01C6
FFFF
01C0
09C0
09C0
05C0
05C0
07C0
0380
03C0
06F0
0C3F
300E
C002
ENDCHAR
STARTCHAR 4E09
ENCODING 19977
SWIDTH 1020 0
DWIDTH 17 0
BBX 16 14 0 0
BITMAP
0018
0018
3FFC
0000
0000
0000
0030
1FF8
0000
0000
0000
0000
0006
FFFF
ENDCHAR
STARTCHAR 4E0A
ENCODING 19978
SWIDTH 1020 0
DWIDTH 17 0
BBX 16 16 0 -1
BITMAP
03C0
0380
0380
0380
0380
0380
0398
03FC
0380
0380
0380
0380
0380
0380
0386
FFFF
ENDCHAR
STARTCHAR 4E0B
ENCODING 19979
SWIDTH 1020 0
DWIDTH 17 0
BBX 16 17 0 -2
BITMAP
0006
FFFF
FFFF
0380
0380
0380
03E0
03B8
038C
038C
0380
0380
0380
0380
0380
0380
0380
ENDCHAR
STARTCHAR 4E0D
ENCODING 19981
SWIDTH 1020 0
DWIDTH 17 0
BBX 16 17 0 -2
BITMAP
0006
FFFF
FFFF
01C0
01E0
03C0
03B0
07CC
0DC6
19C7
31C3
C1C0
01C0
01C0
01C0
01C0
01C0
ENDCHAR
STARTCHAR 4E0E
ENCODING 19982
SWIDTH 1020 0
DWIDTH 17 0
BBX 16 17 0 -2
BITMAP
0E00
0C0C
0C0C
0FFE
0C00
1800
1818
1FFC
1818
0018
001A
FFFF
0030
0030
00E0
07E0
01C0
ENDCHAR
STARTCHAR 4E10
ENCODING 19984
SWIDTH 1020 0
DWIDTH 17 0
BBX 16 17 0 -2
BITMAP
0006
FFFF
FFFF
01C0
01C0
39CC
31FE
31C0
31C6
7FFF
6006
6006
0006
0006
000C
00FC
0018
ENDCHAR
STARTCHAR 4E11
ENCODING 19985
SWIDTH 1020 0
DWIDTH 17 0
BBX 16 16 0 -1
BITMAP
0018
3FFC
3FFC
0618
0618
0618
0618
061A
FFFF
0C18
0C18
0C18
0C18
0C18
0C1A
FFFF
ENDCHAR
STARTCHAR 4E14
ENCODING 19988
SWIDTH 1020 0
DWIDTH 17 0
BBX 16 16 0 -1
BITMAP
1018
1FFC
1FFC
1818
1818
1818
1FF8
1818
1818
1818
1FF8
1818
1818
1818
181A
FFFF
ENDCHAR
STARTCHAR 4E15
ENCODING 19989
SWIDTH 1020 0
DWIDTH 17 0
BBX 16 16 0 -1
BITMAP
0006
FFFF
FFFF
01C0
01E0
03C0
03E0
07D8
0DCC
19C6
61C6
01C0
01C0
01C0
0006
FFFF
ENDCHAR
STARTCHAR 4E16
ENCODING 19990
SWIDTH 1020 0
DWIDTH 17 0
BBX 16 17 0 -2
BITMAP
3BDC
3398
3398
3398
3398
339A
FFFF
3398
3398
3398
33F8
3398
3000
3000
3006
3FFF
3000
ENDCHAR
STARTCHAR 4E17
ENCODING 19991
SWIDTH 1020 0
DWIDTH 17 0
BBX 16 17 0 -2
BITMAP
01E0
39CE
39CE
31CC
31CC
31CC
31CE
FFFF
31CC
31CC
31CC
31CC
31CC
31CC
31CC
3FFC
300C
ENDCHAR
STARTCHAR 4E18
ENCODING 19992
SWIDTH 1020 0
DWIDTH 17 0
BBX 16 16 0 -1
BITMAP
0018
11FC
11FC
1FE0
1800
1800
180C
1FFE
1830
1830
1830
1830
1830
1830
1836
FFFF
ENDCHAR
STARTCHAR 4E19
ENCODING 19993
SWIDTH 1020 0
DWIDTH 17 0
BBX 16 17 0 -2
BITMAP
0006
FFFF
FFFF
01C0
41C6
7FFF
61C6
61C6
63C6
63B6
661E
6C1E
7006
6006
6006
601E
600C
ENDCHAR
STARTCHAR 4E1E
ENCODING 19998
SWIDTH 1020 0
DWIDTH 17 0
BBX 16 16 0 -1
BITMAP
0018
3FFC
3FFC
0018
0010
0DA6
FDC6
0DEC
19D8
19D0
31CC
21CF
47C6
8382
000C
7FFE
ENDCHAR
STARTCHAR 4E21
ENCODING 20001
SWIDTH 1020 0
DWIDTH 17 0
BBX 16 17 0 -2
BITMAP
0006
FFFF
FFFF
01C0
41C3
7FFF
61C3
61C3
6DDB
6DDB
6DDB
6DDB
6DDB
6FFB
6C1B
600F
6006
ENDCHAR
STARTCHAR 4E26
ENCODING 20006
SWIDTH 1020 0
DWIDTH 17 0
BBX 16 16 0 -1
BITMAP
100C
0C0C
0C0C
0C18
0624
7FFE
0630
4634
2636
2636
3634
3638
3630
0630
0636
FFFF
ENDCHAR
STARTCHAR 4E2A
ENCODING 20010
SWIDTH 1020 0
DWIDTH 17 0
BBX 16 17 0 -2
BITMAP
0180
01C0
01C0
03C0
07A0
0E30
181C
31EF
C1C6
01C0
01C0
01C0
01C0
01C0
01C0
01C0
01C0
ENDCHAR
STARTCHAR 4E2D
ENCODING 20013
SWIDTH 1020 0
DWIDTH 17 0
BBX 15 17 1 -2
BITMAP
03C0
0380
0380
8386
FFFE
C386
C386
C386
C386
C386
FFFE
C386
0380
0380
0380
0380
0380
ENDCHAR
STARTCHAR 4E31
ENCODING 20017
SWIDTH 1020 0
DWIDTH 17 0
BBX 15 17 1 -2
BITMAP
0F70
0C60
0C60
0C60
EC66
CC66
CC66
CC66
CC66
CC66
FC7E
CC66
0C66
0860
1860
1060
6060
ENDCHAR
STARTCHAR 4E32
ENCODING 20018
SWIDTH 1020 0
DWIDTH 17 0
BBX 15 17 1 -2
BITMAP
03C0
438C
438C
7FFE
638C
638C
7FFC
0380
8386
FFFE
C386
C386
C386
FFFE
C386
0380
0380
ENDCHAR
STARTCHAR 4E36
ENCODING 20022
SWIDTH 1020 0
DWIDTH 17 0
BBX 10 10 3 2
BITMAP
8000
6000
3000
1C00
0E00
0F00
0780
0180
01C0
00C0
ENDCHAR
STARTCHAR 4E38
ENCODING 20024
SWIDTH 1020 0
DWIDTH 17 0
BBX 16 17 0 -2
BITMAP
0E00
0C00
0C00
0C30
FFF8
0C30
0C30
0C30
6C30
1830
0C30
1E30
13B2
33B2
2033
403F
801E
ENDCHAR
STARTCHAR 4E39
ENCODING 20025
SWIDTH 1020 0
DWIDTH 17 0
BBX 16 17 0 -2
BITMAP
1018
1FFC
1FFC
1818
1E18
1B98
19D8
1998
181A
FFFF
1818
1818
1818
1018
3018
20F8
C030
ENDCHAR
STARTCHAR 4E3B
ENCODING 20027
SWIDTH 1020 0
DWIDTH 17 0
BBX 16 16 0 -1
BITMAP
0380
01C0
01C0
01E0
00CC
7FFE
01C0
01C0
01C0
01D8
3FFC
01C0
01C0
01C0
01C6
FFFF
ENDCHAR
STARTCHAR 4E3C
ENCODING 20028
SWIDTH 1020 0
DWIDTH 17 0
BBX 16 17 0 -2
BITMAP
0E1C
0C18
0C18
0C18
7FFE
0E18
0D98
0DD8
0DD8
0C1A
FFFF
0C18
1818
1818
3018
2018
C018
ENDCHAR
STARTCHAR 4E3F
ENCODING 20031
SWIDTH 1020 0
DWIDTH 17 0
BBX 10 17 1 -2
BITMAP
03C0
0380
0380
0380
0380
0380
0380
0380
0380
0380
0380
0700
0700
0700
0C00
1800
E000
ENDCHAR
STARTCHAR 4E42
ENCODING 20034
SWIDTH 1020 0
DWIDTH 17 0
BBX 16 17 0 -2
BITMAP
0008
100C
100C
100C
1018
0818
0818
0C30
0430
06E0
03C0
0180
03C0
06E0
0C38
301F
C006
ENDCHAR
STARTCHAR 4E43
ENCODING 20035
SWIDTH 1020 0
DWIDTH 17 0
BBX 16 17 0 -2
BITMAP
0030
7FF8
7FF8
0C30
0C30
0C30
0CE6
0CFF
0CE6
1806
1806
1806
100C
300C
200C
41F8
8030
ENDCHAR
STARTCHAR 4E45
ENCODING 20037
SWIDTH 1020 0
DWIDTH 17 0
BBX 16 17 0 -2
BITMAP
0780
0600
0600
0630
0FF8
0C30
1830
10E0
60E0
01E0
01E0
03B0
0610
0C1C
180F
3006
C002
ENDCHAR
STARTCHAR 4E4B
ENCODING 20043
SWIDTH 1020 0
DWIDTH 17 0
BBX 16 17 0 -2
BITMAP
01E0
01C0
01C0
01CC
7FFE
000C
0018
0018
0030
00E0
01C0
0200
1400
3800
2C00
E7FF
41FE
ENDCHAR
STARTCHAR 4E4D
ENCODING 20045
SWIDTH 1020 0
DWIDTH 17 0
BBX 16 17 0 -2
BITMAP
0C00
0C00
0C00
1806
1FFF
31C0
21C0
41C8
81FC
01C0
01C0
01CC
01FE
01C0
01C0
01C0
01C0
ENDCHAR
STARTCHAR 4E4E
ENCODING 20046
SWIDTH 1020 0
DWIDTH 17 0
BBX 16 17 0 -2
BITMAP
0038
03FC
03FC
7FC0
21C8
11CC
19D8
19D0
01E6
FFFF
01C0
01C0
01C0
01C0
01C0
0FC0
0380
ENDCHAR
STARTCHAR 4E4F
ENCODING 20047
SWIDTH 1020 0
DWIDTH 17 0
BBX 16 17 0 -2
BITMAP
0018
01FC
01FC
3FC0
01C0
01CC
7FFE
000C
0018
0030
00E0
01C0
1600
3800
6800
C7FF
41FE
ENDCHAR
STARTCHAR 4E55
ENCODING 20053
SWIDTH 1020 0
DWIDTH 17 0
BBX 16 17 0 -2
BITMAP
000C
21FE
21FE
3FE0
30E6
3FFF
30E0
30E6
3FFF
30E0
38E6
3FFF
2CE6
6CE6
4CEE
8CE6
00E0
ENDCHAR
STARTCHAR 4E56
ENCODING 20054
SWIDTH 1020 0
DWIDTH 17 0
BBX 16 17 0 -2
BITMAP
00FC
7FFE
7FFE
01C0
01C6
FFFF
01C0
0DD8
0DDA
FDDE
0DD8
0DDA
3DDA
EDDF
4DCE
01C0
01C0
ENDCHAR
STARTCHAR 4E57
ENCODING 20055
SWIDTH 1020 0
DWIDTH 17 0
BBX 16 17 0 -2
BITMAP
0018
03FC
03FC
3FC0
01C4
7FFE
19CC
FFFF
19CC
19CC
7FFE
03E0
07D0
0DD8
19CF
31C6
C1C2
ENDCHAR
STARTCHAR 4E58
ENCODING 20056
SWIDTH 1020 0
DWIDTH 17 0
BBX 16 17 0 -2
BITMAP
00FC
7FFE
7FFE
01C2
FFFF
01C0
1DDA
F9DE
19DA
FBDF
DBEE
07E0
0DD0
1DDC
31CF
C1C6
01C0
ENDCHAR
STARTCHAR 4E59
ENCODING 20057
SWIDTH 1020 0
DWIDTH 17 0
BBX 15 16 1 -1
BITMAP
0030
FFF8
FFF8
0030
0060
01C0
0380
0700
0C00
1800
3000
6004
6004
E006
7FFE
3FFC
ENDCHAR
STARTCHAR 4E5D
ENCODING 20061
SWIDTH 1020 0
DWIDTH 17 0
BBX 16 17 0 -2
BITMAP
0E00
0C00
0C00
0C00
0C30
FFF8
0C30
0C30
0C30
0C30
0C30
1830
1832
1832
3033
203F
C01E
ENDCHAR
STARTCHAR 4E5E
ENCODING 20062
SWIDTH 1020 0
DWIDTH 17 0
BBX 16 17 0 -2
BITMAP
0C00
0C00
0C00
1806
1FFF
3000
6030
9FF8
01E0
0380
0600
0C00
1802
1802
3003
3FFF
1FFE
ENDCHAR
STARTCHAR 4E5F
ENCODING 20063
SWIDTH 1020 0
DWIDTH 17 0
BBX 16 17 0 -2
BITMAP
01E0
1DC0
1DC0
19C0
19CC
19DE
1BEC
3DCC
D9CC
19CC
19FC
19C8
19C2
1802
1803
1FFF
0FFE
ENDCHAR
STARTCHAR 4E62
ENCODING 20066
SWIDTH 1020 0
DWIDTH 17 0
BBX 16 17 0 -2
BITMAP
1C38
1830
1830
1830
DBB0
DBB0
DBB0
DBB0
DBB0
DBB0
DBB0
DBB0
FFB2
C3B2
C033
003F
001E
ENDCHAR
STARTCHAR 4E71
ENCODING 20081
SWIDTH 1020 0
DWIDTH 17 0
BBX 16 17 0 -2
BITMAP
0638
1FB0
1FB0
7C30
0C30
0DB0
FFF0
0C30
0C30
4DB0
7FF0
63B0
63B2
63B2
63B3
7FBF
639E
ENDCHAR
STARTCHAR 4E73
ENCODING 20083
SWIDTH 1020 0
DWIDTH 17 0
BBX 16 17 0 -2
BITMAP
0638
1FB0
1FB0
7230
5BB0
6E30
2DB0
7FB0
0630
0430
0DF0
FE30
6C32
0C32
0C33
3C3F
181E
ENDCHAR
STARTCHAR 4E7E
ENCODING 20094
SWIDTH 1020 0
DWIDTH 17 0
BBX 16 17 0 -2
BITMAP
1C38
1A30
1A30
FFA6
18FF
7F80
660C
67FE
7E0C
6618
6630
7EE0
18E2
FFC2
19C3
19FF
18FE
ENDCHAR
STARTCHAR 4E80
ENCODING 20096
SWIDTH 1020 0
DWIDTH 17 0
BBX 16 17 0 -2
BITMAP
0C20
0FF0
0FF0
18E8
3FFC
D9D8
1FF8
19D8
5FF8
7FFE
61CC
7FFC
61CC
7FFE
61C3
01FF
00FE
ENDCHAR
STARTCHAR 4E82
ENCODING 20098
SWIDTH 1020 0
DWIDTH 17 0
BBX 16 17 0 -2
BITMAP
079C
7FD8
7FD8
5998
CBD8
BF98
0618
8CD8
FFF8
C9D8
DFD8
DBD8
C5DA
FFDA
D5DB
CFDF
F5CE
ENDCHAR
STARTCHAR 4E85
ENCODING 20101
SWIDTH 1020 0
DWIDTH 17 0
BBX 7 17 4 -2
BITMAP
1E
1C
1C
1C
1C
1C
1C
1C
1C
1C
1C
1C
1C
1C
1C
FC
38
ENDCHAR
STARTCHAR 4E86
ENCODING 20102
SWIDTH 1020 0
DWIDTH 17 0
BBX 14 17 1 -2
BITMAP
0018
FFFC
FFFC
0018
0030
0060
0340
0380
0380
0380
0380
0380
0380
0380
0380
1F80
0700
ENDCHAR
STARTCHAR 4E88
ENCODING 20104
SWIDTH 1020 0
DWIDTH 17 0
BBX 16 17 0 -2
BITMAP
0008
3FFC
3FFC
0018
0430
03A0
03C0
0182
FFFF
01C6
01C8
01C0
01C0
01C0
01C0
0FC0
0380
ENDCHAR
STARTCHAR 4E89
ENCODING 20105
SWIDTH 1020 0
DWIDTH 17 0
BBX 16 17 0 -2
BITMAP
0620
07F0
07F0
0CE0
08CC
3FFE
01CC
01CC
FFFF
01CC
01CC
3FFC
01CC
01C0
01C0
0FC0
0380
ENDCHAR
STARTCHAR 4E8A
ENCODING 20106
SWIDTH 1020 0
DWIDTH 17 0
BBX 16 17 0 -2
BITMAP
01E0
01C6
01C6
FFFF
09D8
0DD0
3FFC
01CC
01CE
FFFF
01CC
01CC
3FFC
01CC
01C0
07C0
0380
ENDCHAR
STARTCHAR 4E8B
ENCODING 20107
SWIDTH 1020 0
DWIDTH 17 0
BBX 16 17 0 -2
BITMAP
01C2
FFFF
FFFF
01C0
3FFC
31CC
3FFC
01C0
7FFE
01C6
FFFF
01C6
7FFE
01C6
01C0
0FC0
0380
ENDCHAR
STARTCHAR 4E8C
ENCODING 20108
SWIDTH 1020 0
DWIDTH 17 0
BBX 16 11 0 1
BITMAP
0018
3FFC
0000
0000
0000
0000
0000
0000
0000
0006
FFFF
ENDCHAR
STARTCHAR 4E8E
ENCODING 20110
SWIDTH 1020 0
DWIDTH 17 0
BBX 16 17 0 -2
BITMAP
000C
7FFE
7FFE
01C0
01C0
01C0
01C6
FFFF
01C0
01C0
01C0
01C0
01C0
01C0
01C0
0FC0
0380
ENDCHAR
STARTCHAR 4E91
ENCODING 20113
SWIDTH 1020 0
DWIDTH 17 0
BBX 16 16 0 -1
BITMAP
0018
3FFC
3FFC
0000
0000
0000
0006
FFFF
0380
0380
0610
0408
0C0C
0BFC
FF86
7806
ENDCHAR
STARTCHAR 4E92
ENCODING 20114
SWIDTH 1020 0
DWIDTH 17 0
BBX 16 16 0 -1
BITMAP
000C
7FFE
7FFE
0600
0600
0C18
0FFC
0C18
0C18
0C18
1FF8
1818
1830
0030
0036
FFFF
ENDCHAR
STARTCHAR 4E94
ENCODING 20116
SWIDTH 1020 0
DWIDTH 17 0
BBX 16 16 0 -1
BITMAP
000C
7FFE
7FFE
0380
0380
0380
0600
0618
3FFC
0618
0618
0618
0C18
0C18
0C1A
FFFF
ENDCHAR
STARTCHAR 4E95
ENCODING 20117
SWIDTH 1020 0
DWIDTH 17 0
BBX 16 17 0 -2
BITMAP
0E38
0C30
0C30
0C30
0C34
7FFE
0C30
0C30
0C30
0C36
FFFF
0C30
0C30
0830
1830
1030
6030
ENDCHAR
STARTCHAR 4E98
ENCODING 20120
SWIDTH 1020 0
DWIDTH 17 0
BBX 16 16 0 -1
BITMAP
000C
7FFE
7FFE
0000
1018
1FFC
1818
1818
1FF8
1818
1818
1818
1FF8
1818
0006
FFFF
ENDCHAR
STARTCHAR 4E99
ENCODING 20121
SWIDTH 1020 0
DWIDTH 17 0
BBX 16 16 0 -1
BITMAP
000C
7FFE
7FFE
0600
0618
07FC
0C18
0F98
0DD8
0DD8
1830
1E30
1BB0
03B0
0036
FFFF
ENDCHAR
STARTCHAR 4E9B
ENCODING 20123
SWIDTH 1020 0
DWIDTH 17 0
BBX 16 16 0 -1
BITMAP
0EF0
0CE6
0CE6
6CEE
6FF8
6CE2
6CE2
6FE3
7CFF
F03E
C000
0018
3FFC
0000
0006
FFFF
ENDCHAR
STARTCHAR 4E9C
ENCODING 20124
SWIDTH 1020 0
DWIDTH 17 0
BBX 16 16 0 -1
BITMAP
000C
7FFE
7FFE
06E0
06E0
46E6
7FFF
66E6
66E6
66E6
7FFE
66E6
06E0
06E0
06E6
FFFF
ENDCHAR
STARTCHAR 4E9E
ENCODING 20126
SWIDTH 1020 0
DWIDTH 17 0
BBX 16 16 0 -1
BITMAP
000C
7FFE
7FFE
06E0
06E0
46E2
7EFF
66E6
6006
6006
66C6
7EFE
66E6
06E0
06E6
FFFF
ENDCHAR
STARTCHAR 4E9F
ENCODING 20127
SWIDTH 1020 0
DWIDTH 17 0
BBX 16 16 0 -1
BITMAP
000C
7FFE
7FFE
0600
0600
0CC0
0FE4
41FE
7DD6
65D4
65CC
7DDE
61D7
07A2
0386
FFFF
ENDCHAR
STARTCHAR 4EA0
ENCODING 20128
SWIDTH 1020 0
DWIDTH 17 0
BBX 16 6 0 4
BITMAP
01E0
01C0
01C0
01C0
01C6
FFFF
ENDCHAR
STARTCHAR 4EA1
ENCODING 20129
SWIDTH 1020 0
DWIDTH 17 0
BBX 16 16 0 -1
BITMAP
01E0
01C0
01C0
01C0
01C6
FFFF
1800
1800
1800
1800
1800
1800
1800
1800
1FFC
0FFC
ENDCHAR
STARTCHAR 4EA2
ENCODING 20130
SWIDTH 1020 0
DWIDTH 17 0
BBX 16 17 0 -2
BITMAP
01E0
01C6
01C6
FFFF
0000
0830
0FF8
0C30
0C30
0C30
0C30
0C30
0C32
1832
1833
303F
C01E
ENDCHAR
STARTCHAR 4EA4
ENCODING 20132
SWIDTH 1020 0
DWIDTH 17 0
BBX 16 17 0 -2
BITMAP
01E0
01C6
01C6
FFFF
0400
0E30
0C0C
1C2E
3436
4230
03E0
01C0
03E0
0638
0C1F
3006
C002
ENDCHAR
STARTCHAR 4EA5
ENCODING 20133
SWIDTH 1020 0
DWIDTH 17 0
BBX 16 17 0 -2
BITMAP
01E0
01C6
01C6
FFFF
0200
07A0
26F0
18E4
0DCE
078C
0E18
1830
60F0
01E8
078C
1806
E006
ENDCHAR
STARTCHAR 4EA6
ENCODING 20134
SWIDTH 1020 0
DWIDTH 17 0
BBX 16 17 0 -2
BITMAP
01E0
01C0
01C0
01C6
FFFF
0630
2630
3638
3634
2636
6633
4633
8C30
0C30
1830
11F0
60E0
ENDCHAR
STARTCHAR 4EA8
ENCODING 20136
SWIDTH 1020 0
DWIDTH 17 0
BBX 16 17 0 -2
BITMAP
01C2
FFFF
FFFF
0000
1FF8
1818
1818
1FF8
000C
7FFE
0018
01A0
01C0
01C0
01C0
0FC0
0380
ENDCHAR
STARTCHAR 4EAB
ENCODING 20139
SWIDTH 1020 0
DWIDTH 17 0
BBX 16 17 0 -2
BITMAP
01C2
FFFF
FFFF
0000
1FF8
1818
1818
1FF8
000C
7FFE
0018
01A6
FFFF
01C0
01C0
0FC0
0380
ENDCHAR
STARTCHAR 4EAC
ENCODING 20140
SWIDTH 1020 0
DWIDTH 17 0
BBX 16 17 0 -2
BITMAP
01E0
01C6
01C6
FFFF
0000
1FFC
180C
180C
180C
1FFC
01CC
19C0
19CC
31C6
21C3
C7C3
0380
ENDCHAR
STARTCHAR 4EAD
ENCODING 20141
SWIDTH 1020 0
DWIDTH 17 0
BBX 16 17 0 -2
BITMAP
01C4
7FFE
7FFE
0000
1FF8
1818
1818
1FF8
4002
7FFF
C006
DFFC
01C0
01C0
01C0
0FC0
0380
ENDCHAR
STARTCHAR 4EAE
ENCODING 20142
SWIDTH 1020 0
DWIDTH 17 0
BBX 16 17 0 -2
BITMAP
01E0
01C6
01C6
FFFF
0000
0FF8
0C18
0FF8
4006
7FFF
C006
CEF8
0CE2
0CE2
18E3
30FF
C03E
ENDCHAR
STARTCHAR 4EB0
ENCODING 20144
SWIDTH 1020 0
DWIDTH 17 0
BBX 16 17 0 -2
BITMAP
01E0
01C6
01C6
FFFF
1008
1FFC
1818
1818
1FF8
1818
1818
1FF8
09C0
0DDC
19C6
33C6
4180
ENDCHAR
STARTCHAR 4EB3
ENCODING 20147
SWIDTH 1020 0
DWIDTH 17 0
BBX 16 17 0 -2
BITMAP
01C2
FFFF
FFFF
0000
1FF8
1818
1FF8
4002
7FFF
C003
C0F4
1FF8
0388
7FFE
0382
03FF
01FE
ENDCHAR
STARTCHAR 4EB6
ENCODING 20150
SWIDTH 1020 0
DWIDTH 17 0
BBX 16 16 0 -1
BITMAP
01C2
FFFF
FFFF
0000
3FFC
342C
37EC
3FFC
0000
1FF8
1818
1FF8
1818
1FF8
0006
FFFF
ENDCHAR
STARTCHAR 4EBA
ENCODING 20154
SWIDTH 1020 0
DWIDTH 17 0
BBX 16 17 0 -2
BITMAP
01E0
01C0
01C0
01C0
01C0
01C0
01C0
01C0
03A0
03A0
03A0
0610
0618
0C08
180F
3006
C002
ENDCHAR
STARTCHAR 4EC0
ENCODING 20160
SWIDTH 1020 0
DWIDTH 17 0
BBX 16 17 0 -2
BITMAP
0838
0C30
0C30
0C30
1830
1830
3036
37FF
7030
B030
3030
3030
3030
3030
3030
3030
3030
ENDCHAR
STARTCHAR 4EC1
ENCODING 20161
SWIDTH 1020 0
DWIDTH 17 0
BBX 16 17 0 -2
BITMAP
0400
0600
0600
0E0C
0DFE
1800
1800
3800
5800
9800
1800
1800
1800
1806
1BFF
1800
1800
ENDCHAR
STARTCHAR 4EC2
ENCODING 20162
SWIDTH 1020 0
DWIDTH 17 0
BBX 16 17 0 -2
BITMAP
08F0
0CE0
0CE0
1CE0
18E0
18E6
3FFF
38E6
58E6
98E6
18E6
18E6
19C6
19C6
199E
1A0C
1C08
ENDCHAR
STARTCHAR 4EC4
ENCODING 20164
SWIDTH 1020 0
DWIDTH 17 0
BBX 16 17 0 -2
BITMAP
2006
3FFF
3FFF
3000
30F0
30E0
30E0
30E0
30E0
30E0
31F0
31D0
21D8
638C
620F
4406
9802
ENDCHAR
STARTCHAR 4EC6
ENCODING 20166
SWIDTH 1020 0
DWIDTH 17 0
BBX 16 17 0 -2
BITMAP
04F0
06E0
06E0
0EE0
0CE0
1CE0
18F0
38EC
58E6
98E3
18E3
18E0
18E0
18E0
18E0
18E0
18E0
ENDCHAR
STARTCHAR 4EC7
ENCODING 20167
SWIDTH 1020 0
DWIDTH 17 0
BBX 16 17 0 -2
BITMAP
11E0
19C0
19C0
19C0
39D8
37FC
31D8
71D8
71D8
B1D8
31D8
3398
3398
339A
361A
341F
380E
ENDCHAR
STARTCHAR 4ECA
ENCODING 20170
SWIDTH 1020 0
DWIDTH 17 0
BBX 16 17 0 -2
BITMAP
01C0
01C0
01C0
03A0
0630
0C1C
182F
37F6
C002
0018
7FFC
0018
0030
0030
00E0
01C0
01C0
ENDCHAR
STARTCHAR 4ECB
ENCODING 20171
SWIDTH 1020 0
DWIDTH 17 0
BBX 16 17 0 -2
BITMAP
0380
0380
0380
06C0
0C20
1838
301F
CE3E
0C32
0C30
0C30
0C30
0C30
0830
1830
1030
6030
ENDCHAR
STARTCHAR 4ECD
ENCODING 20173
SWIDTH 1020 0
DWIDTH 17 0
BBX 16 17 0 -2
BITMAP
1004
1FFE
1FFE
1B8C
338C
338C
7398
739A
B39F
3396
3386
3206
3606
360C
340C
383C
3008
ENDCHAR
STARTCHAR 4ECE
ENCODING 20174
SWIDTH 1020 0
DWIDTH 17 0
BBX 16 17 0 -2
BITMAP
1C38
1830
1830
1830
1830
1830
1830
1830
1830
1838
1CE8
36E8
36CC
21CC
4187
8206
0C02
ENDCHAR
STARTCHAR 4ECF
ENCODING 20175
SWIDTH 1020 0
DWIDTH 17 0
BBX 16 17 0 -2
BITMAP
0420
0E30
0E30
0C30
0C30
1830
18E0
38E0
38E8
58C4
98C4
19C6
1982
199F
1FF3
1BC3
1A00
ENDCHAR
STARTCHAR 4ED4
ENCODING 20180
SWIDTH 1020 0
DWIDTH 17 0
BBX 16 17 0 -2
BITMAP
0802
0DFF
0DFF
0C06
1804
1828
3030
3036
77FF
B030
3030
3030
3030
3030
3030
33F0
30E0
ENDCHAR
STARTCHAR 4ED5
ENCODING 20181
SWIDTH 1020 0
DWIDTH 17 0
BBX 16 17 0 -2
BITMAP
0838
0C30
0C30
0C30
1830
1836
37FF
3030
7030
B030
3030
3030
3030
3030
3034
37FE
3000
ENDCHAR
STARTCHAR 4ED6
ENCODING 20182
SWIDTH 1020 0
DWIDTH 17 0
BBX 16 17 0 -2
BITMAP
1038
1BB0
1BB0
1BB0
33B6
33BF
73F6
7FB6
B3B6
33BE
33B6
33B0
33B2
3382
3383
33FF
31FE
ENDCHAR
STARTCHAR 4ED7
ENCODING 20183
SWIDTH 1020 0
DWIDTH 17 0
BBX 16 17 0 -2
BITMAP
1038
1830
1830
1830
3036
37FF
7030
7230
B230
3230
31B0
31E0
30E0
30E0
31B8
321F
3C06
ENDCHAR
STARTCHAR 4ED8
ENCODING 20184
SWIDTH 1020 0
DWIDTH 17 0
BBX 16 17 0 -2
BITMAP
100E
180C
180C
180C
300E
37FF
700C
720C
B38C
31CC
31CC
300C
300C
300C
300C
30FC
3018
ENDCHAR
STARTCHAR 4ED9
ENCODING 20185
SWIDTH 1020 0
DWIDTH 17 0
BBX 16 17 0 -2
BITMAP
0838
0C30
0C30
1C30
1830
37B3
3633
7633
B633
3633
3633
3633
3633
3633
3633
37FF
3603
ENDCHAR
STARTCHAR 4EDD
ENCODING 20189
SWIDTH 1020 0
DWIDTH 17 0
BBX 16 16 0 -1
BITMAP
0180
0380
0380
03C0
0620
0C30
1818
300F
C016
3FFA
0380
0380
0380
0380
0386
FFFF
ENDCHAR
STARTCHAR 4EDE
ENCODING 20190
SWIDTH 1020 0
DWIDTH 17 0
BBX 16 17 0 -2
BITMAP
1000
1806
1806
1BFF
30E6
30E6
72E6
72E6
B6E6
36E6
31C6
31C6
318C
338C
320C
3438
3818
ENDCHAR
STARTCHAR 4EDF
ENCODING 20191
SWIDTH 1020 0
DWIDTH 17 0
BBX 16 17 0 -2
BITMAP
100C
183E
183E
1BF8
1830
3030
3030
7036
7FFF
B030
3030
3030
3030
3030
3030
3030
3030
ENDCHAR
STARTCHAR 4EE3
ENCODING 20195
SWIDTH 1020 0
DWIDTH 17 0
BBX 16 17 0 -2
BITMAP
08F0
0CE8
0CE8
1CEC
18EC
30E6
3FFF
70E0
B0E0
30E0
3030
3030
3030
301A
301A
300F
3007
ENDCHAR
STARTCHAR 4EE4
ENCODING 20196
SWIDTH 1020 0
DWIDTH 17 0
BBX 16 17 0 -2
BITMAP
01C0
03C0
03C0
03A0
0630
0C18
182F
37F6
C002
000C
3FFE
038C
038C
038C
03BC
0398
0380
ENDCHAR
STARTCHAR 4EE5
ENCODING 20197
SWIDTH 1020 0
DWIDTH 17 0
BBX 16 17 0 -2
BITMAP
380E
300C
300C
360C
338C
31CC
31CC
300C
300C
300C
3008
3198
3618
3836
F023
C0C3
0380
ENDCHAR
STARTCHAR 4EED
ENCODING 20205
SWIDTH 1020 0
DWIDTH 17 0
BBX 16 17 0 -2
BITMAP
1000
1806
1806
1BFF
30E6
34E6
74E6
72E6
B3E6
31C6
31E6
31BE
319F
338E
320C
3438
3818
ENDCHAR
STARTCHAR 4EEE
ENCODING 20206
SWIDTH 1020 0
DWIDTH 17 0
BBX 16 17 0 -2
BITMAP
120C
1BFE
1BFE
1B80
3B80
338C
73FE
738C
B3CC
33CC
33AC
33B8
3238
3618
343F
38E6
3382
ENDCHAR
STARTCHAR 4EF0
ENCODING 20208
SWIDTH 1020 0
DWIDTH 17 0
BBX 16 17 0 -2
BITMAP
11E3
1DFF
1DFF
1FB3
3633
3633
7633
7633
B633
3633
3633
37F3
3FBF
3436
3030
3030
3030
ENDCHAR
STARTCHAR 4EF2
ENCODING 20210
SWIDTH 1020 0
DWIDTH 17 0
BBX 16 17 0 -2
BITMAP
1038
1830
1830
1830
3433
37FF
7633
7633
B633
3633
37FF
3633
3030
3030
3030
3030
3030
ENDCHAR
STARTCHAR 4EF6
ENCODING 20214
SWIDTH 1020 0
DWIDTH 17 0
BBX 16 17 0 -2
BITMAP
1038
1BB0
1BB0
1BB0
3234
37FE
7430
7830
B030
3036
3FFF
3030
3030
3030
3030
3030
3030
ENDCHAR
STARTCHAR 4EF7
ENCODING 20215
SWIDTH 1020 0
DWIDTH 17 0
BBX 16 17 0 -2
BITMAP
10E0
18E0
18E0
19F0
31D8
338C
7207
75CE
B9CC
31CC
31CC
31CC
31CC
338C
338C
360C
380C
ENDCHAR
STARTCHAR 4EFB
ENCODING 20219
SWIDTH 1020 0
DWIDTH 17 0
BBX 16 17 0 -2
BITMAP
100C
18FE
18FE
1FE0
30E0
30E0
70E0
70E6
BFFF
30E0
30E0
30E0
30E0
30E0
30EC
37FE
3000
ENDCHAR
STARTCHAR 4F01
ENCODING 20225
SWIDTH 1020 0
DWIDTH 17 0
BBX 16 16 0 -1
BITMAP
01C0
01C0
01C0
03A0
0630
0C18
19EF
E1C6
01C2
1DD8
19FC
19C0
19C0
19C0
19C6
FFFF
ENDCHAR
STARTCHAR 4F09
ENCODING 20233
SWIDTH 1020 0
DWIDTH 17 0
BBX 16 17 0 -2
BITMAP
10F0
18E0
18E0
38E6
37FF
3000
7218
73FC
B398
3398
3398
3398
339A
321A
361B
341F
380E
ENDCHAR
STARTCHAR 4F0A
ENCODING 20234
SWIDTH 1020 0
DWIDTH 17 0
BBX 16 17 0 -2
BITMAP
1006
1BFE
1BFE
18E6
38E6
37FF
30E6
70E6
70E6
B3FE
30E6
30E0
30E0
30C0
31C0
3180
3600
ENDCHAR
STARTCHAR 4F0D
ENCODING 20237
SWIDTH 1020 0
DWIDTH 17 0
BBX 16 17 0 -2
BITMAP
100C
1FFE
1FFE
18E0
38E0
30E0
31CC
77FE
71CC
B1CC
31CC
31CC
338C
338C
338E
3FFF
3000
ENDCHAR
STARTCHAR 4F0E
ENCODING 20238
SWIDTH 1020 0
DWIDTH 17 0
BBX 16 17 0 -2
BITMAP
10F0
18E0
18E0
18E6
1FFF
30E0
30E0
70EC
77FE
B18C
318C
30D8
30D8
3030
30FF
31CE
3602
ENDCHAR
STARTCHAR 4F0F
ENCODING 20239
SWIDTH 1020 0
DWIDTH 17 0
BBX 16 17 0 -2
BITMAP
10F0
18E8
18E8
18EC
30EC
30E2
7FFF
70E0
B0E0
31D0
31D0
31D8
3188
338C
3207
3406
3802
ENDCHAR
STARTCHAR 4F10
ENCODING 20240
SWIDTH 1020 0
DWIDTH 17 0
BBX 16 17 0 -2
BITMAP
08F0
0CEC
0CEC
18EC
18E2
30FF
3FE0
70E4
B036
3036
303C
3018
3039
30FD
31CE
3607
3003
ENDCHAR
STARTCHAR 4F11
ENCODING 20241
SWIDTH 1020 0
DWIDTH 17 0
BBX 16 17 0 -2
BITMAP
10F0
18E0
18E0
18E0
30E6
3FFF
71E0
71F0
B3F0
33F8
32E8
36EC
34E7
38E6
30E2
30E0
30E0
ENDCHAR
STARTCHAR 4F1A
ENCODING 20250
SWIDTH 1020 0
DWIDTH 17 0
BBX 16 17 0 -2
BITMAP
0380
0380
0380
06C0
0C20
1838
30DF
DFF6
0002
000C
7FFE
0380
0610
0408
09FC
7F86
7806
ENDCHAR
STARTCHAR 4F1C
ENCODING 20252
SWIDTH 1020 0
DWIDTH 17 0
BBX 16 17 0 -2
BITMAP
10E0
18E4
18E4
1FFE
30ED
31CE
71CF
7387
BCF0
30E0
30E6
3FFF
30E0
30E0
30E0
30E0
30E0
ENDCHAR
STARTCHAR 4F1D
ENCODING 20253
SWIDTH 1020 0
DWIDTH 17 0
BBX 16 17 0 -2
BITMAP
0800
0C0C
0C0C
1FFE
1800
3000
3006
77FF
B0E0
30E0
30C0
31C8
3184
3186
3FFF
37C3
3200
ENDCHAR
STARTCHAR 4F2F
ENCODING 20271
SWIDTH 1020 0
DWIDTH 17 0
BBX 16 17 0 -2
BITMAP
1030
1C30
1C30
1AE3
33FF
3383
7383
7383
B383
33FF
3383
3383
3383
3383
3383
33FF
3383
ENDCHAR
STARTCHAR 4F30
ENCODING 20272
SWIDTH 1020 0
DWIDTH 17 0
BBX 16 17 0 -2
BITMAP
1038
1830
1830
1830
3036
3FFF
7030
7030
B030
3236
33FF
3386
3386
3386
3386
33FE
3386
ENDCHAR
STARTCHAR 4F34
ENCODING 20276
SWIDTH 1020 0
DWIDTH 17 0
BBX 16 17 0 -2
BITMAP
1038
1A34
1A34
1BB6
33BE
31B8
7034
77FE
B030
3030
3036
3FFF
3030
3030
3030
3030
3030
ENDCHAR
STARTCHAR 4F36
ENCODING 20278
SWIDTH 1020 0
DWIDTH 17 0
BBX 16 17 0 -2
BITMAP
10E0
18E0
18E0
19D0
31D8
338F
36F6
7802
7006
B7FF
30E6
30E6
30E6
30EE
30EC
30E0
30E0
ENDCHAR
STARTCHAR 4F38
ENCODING 20280
SWIDTH 1020 0
DWIDTH 17 0
BBX 16 17 0 -2
BITMAP
1038
1830
1830
1833
3FFF
3633
3633
77FF
7633
B633
3633
37FF
3633
3030
3030
3030
3030
ENDCHAR
STARTCHAR 4F3A
ENCODING 20282
SWIDTH 1020 0
DWIDTH 17 0
BBX 16 17 0 -2
BITMAP
1003
1FFF
1FFF
1803
3813
37FB
7003
7213
B3FB
33B3
33B3
33B3
33F3
33B3
3003
300F
3006
ENDCHAR
STARTCHAR 4F3C
ENCODING 20284
SWIDTH 1020 0
DWIDTH 17 0
BBX 16 17 0 -2
BITMAP
0800
0FCE
0FCE
1B8C
1BCC
33AC
33BC
73AC
B38C
338C
339C
33AC
33DC
379A
3E33
3423
31C3
ENDCHAR
STARTCHAR 4F3D
ENCODING 20285
SWIDTH 1020 0
DWIDTH 17 0
BBX 16 17 0 -2
BITMAP
13C0
1B80
1B80
3B80
33AB
3FFF
76EB
76EB
B6EB
36EB
36EB
36EB
36EB
34EB
34EF
3BCB
31C0
ENDCHAR
STARTCHAR 4F43
ENCODING 20291
SWIDTH 1020 0
DWIDTH 17 0
BBX 16 17 0 -2
BITMAP
1000
1C03
1C03
1FFF
3633
3633
3633
7633
77FF
B633
3633
3633
3633
3633
37FF
3603
3000
ENDCHAR
STARTCHAR 4F46
ENCODING 20294
SWIDTH 1020 0
DWIDTH 17 0
BBX 16 17 0 -2
BITMAP
120C
1BFE
1BFE
1B8C
338C
338C
738C
73FC
B38C
338C
338C
338C
33FC
338C
3006
3FFF
3000
ENDCHAR
STARTCHAR 4F47
ENCODING 20295
SWIDTH 1020 0
DWIDTH 17 0
BBX 16 17 0 -2
BITMAP
1038
1830
1830
1A32
33FF
3603
7604
7006
B7FF
3018
3018
3018
3018
3018
3018
30F8
3030
ENDCHAR
STARTCHAR 4F4D
ENCODING 20301
SWIDTH 1020 0
DWIDTH 17 0
BBX 16 17 0 -2
BITMAP
10F0
18E0
18E0
18E0
38E6
37FF
3004
7206
7206
B384
318C
31CC
31C8
31D8
3012
3FFF
3000
ENDCHAR
STARTCHAR 4F4E
ENCODING 20302
SWIDTH 1020 0
DWIDTH 17 0
BBX 16 17 0 -2
BITMAP
1004
1A1E
1A1E
1BF8
3398
3398
739A
73FF
B398
3398
338C
338D
3FED
3786
3017
37FB
3000
ENDCHAR
STARTCHAR 4F4F
ENCODING 20303
SWIDTH 1020 0
DWIDTH 17 0
BBX 16 17 0 -2
BITMAP
08E0
0C30
0C30
1C30
1806
37FF
3030
7030
B030
3034
37FE
3030
3030
3030
3036
3FFF
3000
ENDCHAR
STARTCHAR 4F50
ENCODING 20304
SWIDTH 1020 0
DWIDTH 17 0
BBX 16 17 0 -2
BITMAP
10F0
18E0
18E0
18E0
30E6
3FFF
71C0
71C0
B380
320C
35FE
3830
3030
3030
3036
37FF
3000
ENDCHAR
STARTCHAR 4F51
ENCODING 20305
SWIDTH 1020 0
DWIDTH 17 0
BBX 16 17 0 -2
BITMAP
10F0
18E0
18E0
18E0
30E6
3FFF
71C0
71C0
B380
3386
37FF
39C6
31C6
31C6
31C6
31FE
31C6
ENDCHAR
STARTCHAR 4F53
ENCODING 20307
SWIDTH 1020 0
DWIDTH 17 0
BBX 16 17 0 -2
BITMAP
10F0
18E0
18E0
18E0
30E6
3FFF
71F0
71F0
B3E8
32E8
36EC
34E7
3FFE
30E2
30E0
30E0
30E0
ENDCHAR
STARTCHAR 4F55
ENCODING 20309
SWIDTH 1020 0
DWIDTH 17 0
BBX 16 17 0 -2
BITMAP
1000
1806
1806
1FFF
3006
3436
77F6
7636
B636
3636
37F6
3636
3606
3006
3006
303E
300C
ENDCHAR
STARTCHAR 4F57
ENCODING 20311
SWIDTH 1020 0
DWIDTH 17 0
BBX 16 17 0 -2
BITMAP
1038
1830
1830
1A32
33FF
3603
77C4
71C0
B1C6
31DE
31F8
31C0
31C2
31C2
31C3
31FF
30FE
ENDCHAR
STARTCHAR 4F59
ENCODING 20313
SWIDTH 1020 0
DWIDTH 17 0
BBX 16 17 0 -2
BITMAP
01C0
03C0
03C0
03A0
0630
0C18
182F
37F6
C1C2
01CC
7FFE
09C0
1DD8
19CC
31C6
47C6
0380
ENDCHAR
STARTCHAR 4F5A
ENCODING 20314
SWIDTH 1020 0
DWIDTH 17 0
BBX 16 17 0 -2
BITMAP
1038
1BB0
1BB0
1BB4
33FE
3630
7C30
7036
BFFF
3030
3030
30E8
30E8
31CC
3387
3606
3802
ENDCHAR
STARTCHAR 4F5B
ENCODING 20315
SWIDTH 1020 0
DWIDTH 17 0
BBX 16 17 0 -2
BITMAP
11D8
19DA
19DA
1FFF
39DA
35DA
77FE
75D8
B5DA
37FF
35DB
31DB
31DB
339E
339A
3618
3818
ENDCHAR
STARTCHAR 4F5C
ENCODING 20316
SWIDTH 1020 0
DWIDTH 17 0
BBX 16 17 0 -2
BITMAP
08C0
0CE0
0CE0
19E0
19C6
33FF
32E0
76E0
B8EC
30FE
30E0
30E0
30EC
30FE
30E0
30E0
30E0
ENDCHAR
STARTCHAR 4F5D
ENCODING 20317
SWIDTH 1020 0
DWIDTH 17 0
BBX 16 17 0 -2
BITMAP
11C0
19C0
19C0
1B86
33FF
3606
7A16
73FE
B3B6
33B6
33B6
33F6
33B6
3006
300C
303C
3018
ENDCHAR
STARTCHAR 4F5E
ENCODING 20318
SWIDTH 1020 0
DWIDTH 17 0
BBX 16 17 0 -2
BITMAP
1018
1BFC
1BFC
1800
3006
3FFF
7000
70E0
B0E2
3FFF
31CC
3398
33D8
3038
30EC
31C7
3E03
ENDCHAR
STARTCHAR 4F69
ENCODING 20329
SWIDTH 1020 0
DWIDTH 17 0
BBX 16 17 0 -2
BITMAP
1402
1FFF
1FFF
3E06
3606
37FE
7626
7626
B7FE
37AE
37AE
37AE
37AF
35AE
39AF
3823
3023
ENDCHAR
STARTCHAR 4F6F
ENCODING 20335
SWIDTH 1020 0
DWIDTH 17 0
BBX 16 17 0 -2
BITMAP
120C
19CC
19CC
19D4
37FE
3030
7034
73FC
B030
3030
3032
37FF
3030
3030
3030
3030
3030
ENDCHAR
STARTCHAR 4F70
ENCODING 20336
SWIDTH 1020 0
DWIDTH 17 0
BBX 16 17 0 -2
BITMAP
1002
1FFF
1FFF
1830
30E0
32C6
73FF
7386
B386
3386
33FE
3386
3386
3386
3386
33FE
3386
ENDCHAR
STARTCHAR 4F73
ENCODING 20339
SWIDTH 1020 0
DWIDTH 17 0
BBX 16 17 0 -2
BITMAP
1030
1834
1834
1BFE
3830
3030
7036
77FF
B000
3030
3034
37FE
3030
3030
3036
37FF
3000
ENDCHAR
STARTCHAR 4F75
ENCODING 20341
SWIDTH 1020 0
DWIDTH 17 0
BBX 16 17 0 -2
BITMAP
118C
19CC
19CC
19D8
37FE
31CC
71CC
71CC
B1CE
3FFF
31CC
31CC
31CC
318C
338C
320C
3C0C
ENDCHAR
STARTCHAR 4F76
ENCODING 20342
SWIDTH 1020 0
DWIDTH 17 0
BBX 16 17 0 -2
BITMAP
10F0
18E0
18E0
38E6
3FFF
30E0
70E0
70EC
B7FE
3000
320C
33FE
338C
338C
338C
33FC
338C
ENDCHAR
STARTCHAR 4F7B
ENCODING 20347
SWIDTH 1020 0
DWIDTH 17 0
BBX 16 17 0 -2
BITMAP
11DC
19D8
19D8
19D8
31DA
3DDE
77DC
73D8
B1D8
37DC
3DDE
35DA
31D8
339A
339A
361F
380E
ENDCHAR
STARTCHAR 4F7C
ENCODING 20348
SWIDTH 1020 0
DWIDTH 17 0
BBX 16 17 0 -2
BITMAP
1038
1830
1830
3836
37FF
30C0
71DC
71C6
B396
34D8
30D8
3030
3030
30F8
31CF
3386
3C02
ENDCHAR
STARTCHAR 4F7F
ENCODING 20351
SWIDTH 1020 0
DWIDTH 17 0
BBX 16 17 0 -2
BITMAP
10F0
18E6
18E6
1FFF
38E0
34E6
77FF
76E6
B6E6
37FE
32E6
31E0
30E0
31F0
31DF
338E
3C02
ENDCHAR
STARTCHAR 4F83
ENCODING 20355
SWIDTH 1020 0
DWIDTH 17 0
BBX 16 17 0 -2
BITMAP
120C
1BFE
1BFE
1B8E
3B8C
338C
738C
73FC
B000
33AE
33AC
33AC
33AC
33AD
362D
362F
3807
ENDCHAR
STARTCHAR 4F86
ENCODING 20358
SWIDTH 1020 0
DWIDTH 17 0
BBX 16 17 0 -2
BITMAP
01E0
01C6
01C6
FFFF
01C0
19D8
19D8
19D8
37D6
27E6
43E0
07D0
0DDC
19CF
31C6
C1C2
01C0
ENDCHAR
STARTCHAR 4F88
ENCODING 20360
SWIDTH 1020 0
DWIDTH 17 0
BBX 16 17 0 -2
BITMAP
10E4
18FE
18FE
19C6
33EC
3438
7030
70E0
B1F2
363F
30E6
31F6
321C
3018
3030
30E0
3780
ENDCHAR
STARTCHAR 4F8B
ENCODING 20363
SWIDTH 1020 0
DWIDTH 17 0
BBX 16 17 0 -2
BITMAP
1023
1FF3
1FF3
3B8B
338B
33AB
73FB
72EB
B6EB
37EB
38CB
31CB
318B
338B
3203
340F
3806
ENDCHAR
STARTCHAR 4F8D
ENCODING 20365
SWIDTH 1020 0
DWIDTH 17 0
BBX 16 17 0 -2
BITMAP
10F0
18E0
18E0
18EC
3FFE
30E0
30E6
7FFF
700C
B00C
37FF
338C
31CC
31CC
300C
30FC
3018
ENDCHAR
STARTCHAR 4F8F
ENCODING 20367
SWIDTH 1020 0
DWIDTH 17 0
BBX 16 17 0 -2
BITMAP
1038
1BB0
1BB0
1BB4
33FE
3630
7C30
7036
BFFF
30F0
31F8
31F8
33B7
3636
3832
3030
3030
ENDCHAR
STARTCHAR 4F91
ENCODING 20369
SWIDTH 1020 0
DWIDTH 17 0
BBX 16 17 0 -2
BITMAP
1030
1832
1832
1FFF
30E0
31C2
73FF
73C6
B5C6
39FE
31C6
31C6
31FE
31C6
31C6
31CE
31C6
ENDCHAR
STARTCHAR 4F96
ENCODING 20374
SWIDTH 1020 0
DWIDTH 17 0
BBX 16 17 0 -2
BITMAP
0180
03C0
03C0
07A0
0E30
181C
3FFF
C006
200C
3FFE
36EC
36EC
3FFC
36EC
36EC
36FC
36E8
ENDCHAR
STARTCHAR 4F98
ENCODING 20376
SWIDTH 1020 0
DWIDTH 17 0
BBX 16 17 0 -2
BITMAP
1038
1830
1830
3A32
37FF
3603
7034
70FC
B7E0
30E0
30E6
3FFF
30E0
30E2
30E2
30FF
303E
ENDCHAR
STARTCHAR 4F9B
ENCODING 20379
SWIDTH 1020 0
DWIDTH 17 0
BBX 16 17 0 -2
BITMAP
11D8
19D8
19D8
19D8
31D8
3FFE
71D8
71D8
B1D8
31DA
3FFF
3000
3390
3388
360C
3406
3806
ENDCHAR
STARTCHAR 4F9D
ENCODING 20381
SWIDTH 1020 0
DWIDTH 17 0
BBX 16 17 0 -2
BITMAP
10F0
18E0
18E0
18E6
3FFF
30E0
71E0
71C6
B3A6
37AC
3BB0
3390
3398
3398
33EF
3F86
3602
ENDCHAR
STARTCHAR 4FA0
ENCODING 20384
SWIDTH 1020 0
DWIDTH 17 0
BBX 16 17 0 -2
BITMAP
10F0
1CE0
1CE0
18EC
1FFE
30E0
34EC
76EC
B6E8
30F2
3FFF
30D0
31D8
31CC
338F
3206
3C02
ENDCHAR
STARTCHAR 4FA1
ENCODING 20385
SWIDTH 1020 0
DWIDTH 17 0
BBX 16 17 0 -2
BITMAP
1006
1FFF
1FFF
19D8
39D8
35DA
77FF
76D6
B6D6
36D6
36D6
36D6
36D6
36D6
37FE
3606
3000
ENDCHAR
STARTCHAR 4FAB
ENCODING 20395
SWIDTH 1020 0
DWIDTH 17 0
BBX 16 17 0 -2
BITMAP
1038
1832
1832
1FFF
3380
3380
73FE
71FE
B000
30E2
3FFF
31CC
31CC
33F8
3038
30EE
3786
ENDCHAR
STARTCHAR 4FAD
ENCODING 20397
SWIDTH 1020 0
DWIDTH 17 0
BBX 16 17 0 -2
BITMAP
1202
1BFF
1BFF
1B86
3386
33FE
7396
7390
B398
3388
32EC
3637
3436
3B82
30E0
3038
3018
ENDCHAR
STARTCHAR 4FAE
ENCODING 20398
SWIDTH 1020 0
DWIDTH 17 0
BBX 16 17 0 -2
BITMAP
11C0
19C6
19C6
1BFF
3380
360C
7BFE
73AC
B3AC
33AE
3FFF
36CC
36CC
37FF
3618
30F8
3030
ENDCHAR
STARTCHAR 4FAF
ENCODING 20399
SWIDTH 1020 0
DWIDTH 17 0
BBX 16 17 0 -2
BITMAP
1008
1BFC
1BFC
3818
301A
3FFF
71C0
71CC
B3FE
34E0
30E6
3FFF
31D0
31D8
338F
3606
3802
ENDCHAR
STARTCHAR 4FB5
ENCODING 20405
SWIDTH 1020 0
DWIDTH 17 0
BBX 16 17 0 -2
BITMAP
1004
1BFE
1BFE
180C
3BFC
300C
73FC
7402
B7FF
3C0A
3BFC
3198
30D8
3030
30FF
31CE
3602
ENDCHAR
STARTCHAR 4FB6
ENCODING 20406
SWIDTH 1020 0
DWIDTH 17 0
BBX 16 17 0 -2
BITMAP
0986
0DFF
0DFF
19C6
19C6
31C6
31FE
71B6
7020
B2E3
33FF
3383
3383
3383
3383
33FF
3383
ENDCHAR
STARTCHAR 4FBF
ENCODING 20415
SWIDTH 1020 0
DWIDTH 17 0
BBX 16 17 0 -2
BITMAP
1006
1FFF
1FFF
1830
3BFE
33B6
73FE
73B6
B3B6
33FE
31B6
31B0
30E0
30F0
31DF
338E
3C02
ENDCHAR
STARTCHAR 4FC2
ENCODING 20418
SWIDTH 1020 0
DWIDTH 17 0
BBX 16 17 0 -2
BITMAP
100C
183E
183E
1BF0
38E8
30EC
73DC
71F4
B0F2
3FFF
37B3
3030
33FC
33B6
3633
3833
3030
ENDCHAR
STARTCHAR 4FC3
ENCODING 20419
SWIDTH 1020 0
DWIDTH 17 0
BBX 16 17 0 -2
BITMAP
1206
1BFF
1BFF
1B86
3B86
3386
73FE
73B6
B030
3030
33B4
33BE
33B0
33B0
37B0
35FF
38FE
ENDCHAR
STARTCHAR 4FC4
ENCODING 20420
SWIDTH 1020 0
DWIDTH 17 0
BBX 16 17 0 -2
BITMAP
21B0
33FC
33FC
3FB6
3636
6632
7FFF
6630
E636
67F6
7E36
6E3C
661C
661A
663E
6EEF
6583
ENDCHAR
STARTCHAR 4FCA
ENCODING 20426
SWIDTH 1020 0
DWIDTH 17 0
BBX 16 17 0 -2
BITMAP
10E0
18E4
18E4
19C6
3FFF
37DA
71D8
739F
B60F
39C8
31FC
338C
3CD8
3030
30FF
33CE
3C02
ENDCHAR
STARTCHAR 4FCE
ENCODING 20430
SWIDTH 1020 0
DWIDTH 17 0
BBX 16 16 0 -1
BITMAP
3184
31FE
31FE
31CC
31CC
2DCC
6DFC
45CC
81CC
31CC
31CC
31FC
2DCC
6DCC
45CE
8FFF
ENDCHAR
STARTCHAR 4FD0
ENCODING 20432
SWIDTH 1020 0
DWIDTH 17 0
BBX 16 17 0 -2
BITMAP
10E3
19F3
19F3
3FCB
31CB
31CB
7FFB
71CB
B3EB
37FB
35DB
35CB
39CB
31C3
31C3
31C7
31C2
ENDCHAR
STARTCHAR 4FD1
ENCODING 20433
SWIDTH 1020 0
DWIDTH 17 0
BBX 16 17 0 -2
BITMAP
1004
1BFE
1BFE
180C
39D8
34F2
37FF
76E6
76E6
B7FE
36E6
36E6
37FE
36E6
36E6
36EE
36E4
ENDCHAR
STARTCHAR 4FD4
ENCODING 20436
SWIDTH 1020 0
DWIDTH 17 0
BBX 16 17 0 -2
BITMAP
1204
1BFE
1BFE
1B8C
338C
33FC
738C
738C
B3FC
338C
338C
33FC
31D8
31DA
339A
361F
380E
ENDCHAR
STARTCHAR 4FD7
ENCODING 20439
SWIDTH 1020 0
DWIDTH 17 0
BBX 16 17 0 -2
BITMAP
1188
19C4
19C4
1B86
3233
34F3
78D0
71C8
B38E
3607
3A02
33FE
338C
338C
338C
33FC
338C
ENDCHAR
STARTCHAR 4FD8
ENCODING 20440
SWIDTH 1020 0
DWIDTH 17 0
BBX 16 17 0 -2
BITMAP
1038
1BFE
1BFE
19A4
33B6
361B
77FC
7018
B010
3036
3FFF
3030
3030
3030
3030
31F0
3020
ENDCHAR
STARTCHAR 4FDA
ENCODING 20442
SWIDTH 1020 0
DWIDTH 17 0
BBX 16 17 0 -2
BITMAP
1202
1BFF
1BFF
3BB6
33B6
33FE
73B6
73B6
B3FE
3030
3034
37FE
3030
3030
3036
3FFF
3000
ENDCHAR
STARTCHAR 4FDB
ENCODING 20443
SWIDTH 1020 0
DWIDTH 17 0
BBX 16 17 0 -2
BITMAP
11C0
19D0
19D0
1BF8
3A30
34E2
77FF
76E6
B6E6
36E6
37FE
31D8
31D8
31DA
339A
321F
3C0E
ENDCHAR
STARTCHAR 4FDD
ENCODING 20445
SWIDTH 1020 0
DWIDTH 17 0
BBX 16 17 0 -2
BITMAP
1202
1BFF
1BFF
1B86
3386
3386
73FE
7030
B036
37FF
30F8
31FC
31B4
33B7
3636
3832
3030
ENDCHAR
STARTCHAR 4FDF
ENCODING 20447
SWIDTH 1020 0
DWIDTH 17 0
BBX 16 17 0 -2
BITMAP
10E0
18E8
18E8
18CC
37FE
37C6
7380
7388
B7FC
3CE0
30EC
3FFE
30E0
31D8
338C
3607
3802
ENDCHAR
STARTCHAR 4FE1
ENCODING 20449
SWIDTH 1020 0
DWIDTH 17 0
BBX 16 17 0 -2
BITMAP
0804
0DFE
0DFE
1C06
1BFF
3000
3004
73FE
B004
33FE
3000
3206
33FF
3386
3386
33FE
3386
ENDCHAR
STARTCHAR 4FE3
ENCODING 20451
SWIDTH 1020 0
DWIDTH 17 0
BBX 16 17 0 -2
BITMAP
1204
1BFE
1BFE
1B8C
338C
33FC
7004
77FE
B0E0
30E6
3FFF
30F0
31D0
31C8
338F
3606
3802
ENDCHAR
STARTCHAR 4FE4
ENCODING 20452
SWIDTH 1020 0
DWIDTH 17 0
BBX 16 17 0 -2
BITMAP
1188
19CC
19CC
19DA
37FF
3036
7236
73FE
B3B0
3632
37FF
35F3
31F3
33BE
3636
3830
3030
ENDCHAR
STARTCHAR 4FE5
ENCODING 20453
SWIDTH 1020 0
DWIDTH 17 0
BBX 16 17 0 -2
BITMAP
1038
1834
1834
1FFE
3030
3030
77FE
7636
B7FE
3636
37FE
3030
3036
3FFF
3030
3030
3030
ENDCHAR
STARTCHAR 4FEE
ENCODING 20462
SWIDTH 1020 0
DWIDTH 17 0
BBX 16 17 0 -2
BITMAP
10E0
18E6
18E6
19FF
33CC
3ECC
6C38
6C30
EDEF
6F96
6C3A
6CE4
6FDE
6C3B
6FE6
601C
63E0
ENDCHAR
STARTCHAR 4FEF
ENCODING 20463
SWIDTH 1020 0
DWIDTH 17 0
BBX 16 17 0 -2
BITMAP
2030
3832
3832
3FFF
3C00
2CC6
6CE6
6DC6
6DFF
EFC6
6DE6
6DF6
6DD6
69C6
69C6
71CE
61C4
ENDCHAR
STARTCHAR 4FF3
ENCODING 20467
SWIDTH 1020 0
DWIDTH 17 0
BBX 16 17 0 -2
BITMAP
11DC
19D8
19D8
19DA
3FDF
31D8
71D8
77DE
B1D8
31D8
31D8
3FDA
3DDF
3198
3398
3618
3818
ENDCHAR
STARTCHAR 4FF5
ENCODING 20469
SWIDTH 1020 0
DWIDTH 17 0
BBX 16 17 0 -2
BITMAP
10E0
18EC
18EC
1FFE
30E0
30E8
77FC
70E0
B0E6
3FFF
33E6
37D6
35DC
39C8
31FF
37E6
3382
ENDCHAR
STARTCHAR 4FF6
ENCODING 20470
SWIDTH 1020 0
DWIDTH 17 0
BBX 16 17 0 -2
BITMAP
13C0
1B82
1B82
1BBF
33D6
3396
7396
7FF6
B396
3BCC
3FEC
3BAC
3B9C
3396
37B6
3223
30C2
ENDCHAR
STARTCHAR 4FF8
ENCODING 20472
SWIDTH 1020 0
DWIDTH 17 0
BBX 16 17 0 -2
BITMAP
10F0
18E4
18E4
1FFE
38E4
37FE
70E2
7FFF
B1D8
338F
36E6
3BFA
30E0
30E4
37FE
30E0
30E0
ENDCHAR
STARTCHAR 4FFA
ENCODING 20474
SWIDTH 1020 0
DWIDTH 17 0
BBX 16 17 0 -2
BITMAP
10E0
18E6
18E6
1FFF
38F0
31D8
73EF
7EE6
B7FE
36EC
37FC
36EC
37FC
36EE
30E3
30FF
303E
ENDCHAR
STARTCHAR 4FFE
ENCODING 20478
SWIDTH 1020 0
DWIDTH 17 0
BBX 16 17 0 -2
BITMAP
10F0
18E2
18E2
1FFF
36E6
36E6
37FE
76E6
76E6
B7FE
3180
31DC
339A
3FFF
3018
3018
3018
ENDCHAR
STARTCHAR 5005
ENCODING 20485
SWIDTH 1020 0
DWIDTH 17 0
BBX 16 17 0 -2
BITMAP
1030
1834
1834
3BFE
3000
3398
7398
72F6
B6F6
3430
3832
37FF
3030
3030
3030
3030
3030
ENDCHAR
STARTCHAR 5006
ENCODING 20486
SWIDTH 1020 0
DWIDTH 17 0
BBX 16 17 0 -2
BITMAP
1002
1FFF
1FFF
18E0
34E6
37FF
74E6
74E6
B7FE
37FE
35EE
37EE
36F6
34E6
34E6
34EE
34E6
ENDCHAR
STARTCHAR 5009
ENCODING 20489
SWIDTH 1020 0
DWIDTH 17 0
BBX 16 17 0 -2
BITMAP
01C0
03E0
03E0
0620
0C18
1FFF
3806
CFFA
0C18
0FF8
0C18
1FF8
1804
3FFE
6C0C
8FFC
0C0C
ENDCHAR
STARTCHAR 500B
ENCODING 20491
SWIDTH 1020 0
DWIDTH 17 0
BBX 16 17 0 -2
BITMAP
1403
1FFF
1FFF
1603
3633
3633
77FF
7633
B633
36FB
36CB
36CB
36CB
36FB
3603
37FF
3603
ENDCHAR
STARTCHAR 500D
ENCODING 20493
SWIDTH 1020 0
DWIDTH 17 0
BBX 16 17 0 -2
BITMAP
1038
1832
1832
1FFF
3208
339C
71D8
7192
BFFF
3000
320C
33FE
338C
338C
338C
33FC
338C
ENDCHAR
STARTCHAR 500F
ENCODING 20495
SWIDTH 1020 0
DWIDTH 17 0
BBX 16 17 0 -2
BITMAP
1030
1834
1834
18FE
35CC
3638
3438
74EF
7786
B43C
3434
37FE
3430
34E8
30EF
31C6
3602
ENDCHAR
STARTCHAR 5011
ENCODING 20497
SWIDTH 1020 0
DWIDTH 17 0
BBX 16 17 0 -2
BITMAP
1000
1FDF
1FDF
1EDB
36DB
37DF
76DB
76DB
B7DF
3603
3603
3603
3603
3603
3603
3607
3602
ENDCHAR
STARTCHAR 5012
ENCODING 20498
SWIDTH 1020 0
DWIDTH 17 0
BBX 16 17 0 -2
BITMAP
10C3
3FE3
3FE3
361B
36DB
64FB
7FFB
EBBB
639B
639B
6FFB
639B
639B
63E3
7F83
6C0F
6006
ENDCHAR
STARTCHAR 5014
ENCODING 20500
SWIDTH 1020 0
DWIDTH 17 0
BBX 16 17 0 -2
BITMAP
1406
1FFF
1FFF
1E06
3606
37FE
3606
7630
77B6
B7B6
35FE
3430
3BB3
3BB3
33B3
33FF
3383
ENDCHAR
STARTCHAR 5016
ENCODING 20502
SWIDTH 1020 0
DWIDTH 17 0
BBX 16 17 0 -2
BITMAP
10F0
18EC
18EC
3FFE
30E0
30E6
7FFF
720C
B1D8
31D6
3FFF
30E0
30EC
37FE
30E0
30E0
30E0
ENDCHAR
STARTCHAR 5019
ENCODING 20505
SWIDTH 1020 0
DWIDTH 17 0
BBX 16 17 0 -2
BITMAP
1004
19FE
19FE
380C
360C
37FF
76C0
76E4
B6FE
37B0
3636
37FF
3638
36E8
30EF
31C6
3602
ENDCHAR
STARTCHAR 501A
ENCODING 20506
SWIDTH 1020 0
DWIDTH 17 0
BBX 16 17 0 -2
BITMAP
10F0
18E4
18E4
1FFE
31E0
339E
740C
7FFF
B006
3416
37FE
3636
3636
37F6
3636
300E
300C
ENDCHAR
STARTCHAR 501F
ENCODING 20511
SWIDTH 1020 0
DWIDTH 17 0
BBX 16 17 0 -2
BITMAP
11D8
19D8
19D8
19D8
37FE
31D8
71DA
7FFF
B000
33FC
338C
338C
33FC
338C
338C
33FC
338C
ENDCHAR
STARTCHAR 5021
ENCODING 20513
SWIDTH 1020 0
DWIDTH 17 0
BBX 16 17 0 -2
BITMAP
1204
1BFE
1BFE
1B8C
3BFC
338C
33FC
738C
7402
B7FF
3606
3606
37FE
3606
3606
37FE
3606
ENDCHAR
STARTCHAR 5023
ENCODING 20515
SWIDTH 1020 0
DWIDTH 17 0
BBX 16 17 0 -2
BITMAP
1798
3E18
3E18
36D8
3FF2
763F
76D6
B7D6
35D6
35D6
35CC
35CC
35C8
35DC
3B97
3BA6
30C2
ENDCHAR
STARTCHAR 5024
ENCODING 20516
SWIDTH 1020 0
DWIDTH 17 0
BBX 16 17 0 -2
BITMAP
1032
1BFF
1BFF
1830
3832
30FE
76E6
76FE
B6E6
36FE
36E6
36E6
36FE
36E6
3602
37FF
3600
ENDCHAR
STARTCHAR 5025
ENCODING 20517
SWIDTH 1020 0
DWIDTH 17 0
BBX 16 17 0 -2
BITMAP
1038
1830
1830
3A32
33FF
3603
76DC
71D8
B1DF
338F
3C04
33FE
3030
3030
3036
37FF
3000
ENDCHAR
STARTCHAR 5026
ENCODING 20518
SWIDTH 1020 0
DWIDTH 17 0
BBX 16 17 0 -2
BITMAP
1234
19B6
19B6
19F8
1FFE
30E0
31CA
7FFF
B1CC
3387
37FE
381A
31F8
31DA
31C3
31FF
30FE
ENDCHAR
STARTCHAR 5028
ENCODING 20520
SWIDTH 1020 0
DWIDTH 17 0
BBX 16 17 0 -2
BITMAP
1402
1FFF
1FFF
1E06
3606
37FE
7630
7632
B7FF
3630
3632
37FF
37C6
35C6
39C6
39FE
31C6
ENDCHAR
STARTCHAR 5029
ENCODING 20521
SWIDTH 1020 0
DWIDTH 17 0
BBX 16 17 0 -2
BITMAP
10F0
18E4
18E4
1FFE
30E8
33FC
30E2
7FFF
7000
B3FC
33AC
33AC
33FC
338C
338C
339C
338C
ENDCHAR
STARTCHAR 502A
ENCODING 20522
SWIDTH 1020 0
DWIDTH 17 0
BBX 16 17 0 -2
BITMAP
1000
19C2
19C2
1FDF
3606
3606
37DE
7606
7606
B7FE
35DA
31D8
31D8
339A
339B
361F
380E
ENDCHAR
STARTCHAR 502B
ENCODING 20523
SWIDTH 1020 0
DWIDTH 17 0
BBX 16 17 0 -2
BITMAP
10E0
18E0
18E0
19D0
3398
360F
79F6
7402
B7FC
35AC
35AC
37FC
35AC
35AC
35AC
35BC
3418
ENDCHAR
STARTCHAR 502C
ENCODING 20524
SWIDTH 1020 0
DWIDTH 17 0
BBX 16 17 0 -2
BITMAP
10F0
18E4
18E4
18FE
30E0
34E2
37FF
7606
77FE
B606
37FE
36E6
30E2
3FFF
30E0
30E0
30E0
ENDCHAR
STARTCHAR 502D
ENCODING 20525
SWIDTH 1020 0
DWIDTH 17 0
BBX 16 17 0 -2
BITMAP
100C
183E
183E
3BF0
3036
37FF
71F8
73BF
BC36
30E2
30E6
3FFF
31CC
33D8
30F8
31CE
3606
ENDCHAR
STARTCHAR 5036
ENCODING 20534
SWIDTH 1020 0
DWIDTH 17 0
BBX 16 17 0 -2
BITMAP
120C
1BFE
1BFE
1B8C
3B8C
33FC
738C
738C
B3FC
338C
338C
33FC
3002
3FFF
318C
33C6
3E06
ENDCHAR
STARTCHAR 5039
ENCODING 20537
SWIDTH 1020 0
DWIDTH 17 0
BBX 16 17 0 -2
BITMAP
10E0
18E0
18E0
19D0
3398
360F
7DFE
70E2
B7FE
36E6
36E6
37FE
30F0
31D8
31CF
3386
3C02
ENDCHAR
STARTCHAR 5043
ENCODING 20547
SWIDTH 1020 0
DWIDTH 17 0
BBX 16 17 0 -2
BITMAP
1406
1FFF
1FFF
1E00
36FE
36E6
36FE
76E6
76FE
B632
37FF
36EC
36F8
361E
36E6
37FF
3600
ENDCHAR
STARTCHAR 5047
ENCODING 20551
SWIDTH 1020 0
DWIDTH 17 0
BBX 16 17 0 -2
BITMAP
10C2
1FDF
1FDF
16C6
36C6
36C6
77DE
7600
B6C2
37FF
3626
3626
37DC
360C
361E
3637
37C2
ENDCHAR
STARTCHAR 5048
ENCODING 20552
SWIDTH 1020 0
DWIDTH 17 0
BBX 16 17 0 -2
BITMAP
1404
1FFE
1FFE
1E0C
37FC
360C
77FC
71C0
B382
37FF
3E33
3633
36EB
378B
37FF
360E
3006
ENDCHAR
STARTCHAR 5049
ENCODING 20553
SWIDTH 1020 0
DWIDTH 17 0
BBX 16 17 0 -2
BITMAP
10E4
1BFE
1BFE
19CC
39CC
37FF
7000
73FE
B386
33FE
3018
37FE
3398
339A
3FFF
3018
3018
ENDCHAR
STARTCHAR 504F
ENCODING 20559
SWIDTH 1020 0
DWIDTH 17 0
BBX 16 17 0 -2
BITMAP
1006
1FFF
1FFF
1800
37FE
3606
7606
77FE
B601
37FF
37AB
37AB
37FF
3FAB
33AB
33AF
3386
ENDCHAR
STARTCHAR 5050
ENCODING 20560
SWIDTH 1020 0
DWIDTH 17 0
BBX 16 17 0 -2
BITMAP
10F0
18E4
18E4
3FFE
3198
30F0
71D8
760E
B7FF
3608
361C
36F6
360C
343A
35E7
381C
33E0
ENDCHAR
STARTCHAR 5055
ENCODING 20565
SWIDTH 1020 0
DWIDTH 17 0
BBX 16 17 0 -2
BITMAP
179C
1E18
1E18
3EDB
37FF
7618
77FA
BF9F
3CEE
30C0
33FE
3386
33FE
3386
3386
33FE
3386
ENDCHAR
STARTCHAR 5056
ENCODING 20566
SWIDTH 1020 0
DWIDTH 17 0
BBX 16 17 0 -2
BITMAP
10F0
18EA
18EA
3FFF
30E6
30EC
7FFF
7038
B0EA
31FF
33C6
3DC6
31FE
31C6
31C6
31FE
31C6
ENDCHAR
STARTCHAR 505A
ENCODING 20570
SWIDTH 1020 0
DWIDTH 17 0
BBX 16 17 0 -2
BITMAP
1398
1B98
1B98
1B98
33B2
3FFF
73B6
73D6
B396
37D6
36DC
36DC
36C8
37DC
36F7
3026
31C2
ENDCHAR
STARTCHAR 505C
ENCODING 20572
SWIDTH 1020 0
DWIDTH 17 0
BBX 16 17 0 -2
BITMAP
1030
1836
1836
3FFF
3000
73FC
738C
B3FC
3402
37FF
3C06
37FC
3030
3030
3030
31F0
30E0
ENDCHAR
STARTCHAR 5065
ENCODING 20581
SWIDTH 1020 0
DWIDTH 17 0
BBX 16 17 0 -2
BITMAP
1030
1A34
1A34
1EFE
3634
37FF
6434
6CFC
EE34
7630
77FE
6C32
6FFF
6430
6E00
6BFF
70FE
ENDCHAR
STARTCHAR 506C
ENCODING 20588
SWIDTH 1020 0
DWIDTH 17 0
BBX 16 17 0 -2
BITMAP
11C0
19C0
19C0
1B82
33FF
36DE
7996
73F6
B4F6
31D6
339C
3C2C
31F0
35D6
3DC3
3DFF
30FC
ENDCHAR
STARTCHAR 5072
ENCODING 20594
SWIDTH 1020 0
DWIDTH 17 0
BBX 16 17 0 -2
BITMAP
1206
1BFF
1BFF
1BB6
3BB6
33FE
33B6
73B6
73FE
B3B6
3018
32FA
32EB
36E3
3EE4
34FE
303C
ENDCHAR
STARTCHAR 5074
ENCODING 20596
SWIDTH 1020 0
DWIDTH 17 0
BBX 16 17 0 -2
BITMAP
28C3
3FFB
3FFB
3DDB
6DDB
6DDB
6FDB
EDDB
6DDB
6FDB
6DDB
6DDB
6DDB
6FC3
65C3
6CEF
70E6
ENDCHAR
STARTCHAR 5075
ENCODING 20597
SWIDTH 1020 0
DWIDTH 17 0
BBX 16 17 0 -2
BITMAP
1032
183F
183F
1A30
33FE
3386
7386
73FE
B386
3386
33FE
3386
3386
33FE
318C
33C7
3E03
ENDCHAR
STARTCHAR 5076
ENCODING 20598
SWIDTH 1020 0
DWIDTH 17 0
BBX 16 17 0 -2
BITMAP
1206
1BFF
1BFF
1BB6
3BB6
33FE
73B6
73B6
B3FE
3431
37FF
3633
363B
363F
37F3
36CF
3606
ENDCHAR
STARTCHAR 5078
ENCODING 20600
SWIDTH 1020 0
DWIDTH 17 0
BBX 16 17 0 -2
BITMAP
13F0
18E8
18E8
19CC
3387
35FA
7800
77DB
B5DB
37D2
35F6
35E4
37F6
35D2
35DB
35DB
35DB
ENDCHAR
STARTCHAR 507D
ENCODING 20605
SWIDTH 1020 0
DWIDTH 17 0
BBX 16 17 0 -2
BITMAP
0998
0DD8
0DD8
1CF0
1BFC
30EC
30C8
71FE
B1C6
3384
37FF
3983
36D3
37FB
35A6
341E
300C
ENDCHAR
STARTCHAR 5080
ENCODING 20608
SWIDTH 1020 0
DWIDTH 17 0
BBX 16 17 0 -2
BITMAP
1030
18E2
18E2
37FF
36E6
36E6
77FE
76E6
B6E6
37FE
35B4
33F6
33BF
33BD
3632
343F
381E
ENDCHAR
STARTCHAR 5085
ENCODING 20613
SWIDTH 1020 0
DWIDTH 17 0
BBX 16 17 0 -2
BITMAP
10EC
18E6
18E6
3FFF
30E0
37FE
76E6
77FE
B6E6
37FE
36E6
300C
3FFF
338C
31CC
31DC
3008
ENDCHAR
STARTCHAR 508D
ENCODING 20621
SWIDTH 1020 0
DWIDTH 17 0
BBX 16 17 0 -2
BITMAP
1030
1834
1834
1BFE
3198
35D2
77FF
7CE6
BCE4
37FE
30E4
30FE
31CC
31CC
338C
3638
3818
ENDCHAR
STARTCHAR 5091
ENCODING 20625
SWIDTH 1020 0
DWIDTH 17 0
BBX 16 17 0 -2
BITMAP
1386
1A26
1A26
1FE6
36FF
3AD6
71D6
71FF
B386
3C36
3032
3FFF
30F8
31FC
33B7
3636
3832
ENDCHAR
STARTCHAR 5098
ENCODING 20632
SWIDTH 1020 0
DWIDTH 17 0
BBX 16 17 0 -2
BITMAP
01C0
03C0
03C0
0630
0DD8
31CF
C9D6
3DDA
45EC
19CE
31D8
2DD6
49E4
FFFF
01C0
01C0
01C0
ENDCHAR
STARTCHAR 5099
ENCODING 20633
SWIDTH 1020 0
DWIDTH 17 0
BBX 16 17 0 -2
BITMAP
21D8
37FE
37FE
31D8
69DA
6FFF
6C00
EDFE
6DD6
6DD6
6DFE
6DD6
6DD6
69FE
69D6
71DE
61CC
ENDCHAR
STARTCHAR 509A
ENCODING 20634
SWIDTH 1020 0
DWIDTH 17 0
BBX 16 17 0 -2
BITMAP
1398
1B98
1B98
3398
3FF2
35BF
75F6
7CD6
B9B6
35D6
338C
338C
37CC
34DE
3817
3026
30C2
ENDCHAR
STARTCHAR 50AC
ENCODING 20652
SWIDTH 1020 0
DWIDTH 17 0
BBX 16 17 0 -2
BITMAP
1030
1BB6
1BB6
1BB6
33FE
31CC
71DA
73FF
B798
3B98
33FE
3398
33FE
3398
339A
33FF
3380
ENDCHAR
STARTCHAR 50AD
ENCODING 20653
SWIDTH 1020 0
DWIDTH 17 0
BBX 16 17 0 -2
BITMAP
1032
1FFF
1FFF
3618
36FE
361A
77FF
761A
B6FE
3618
36FE
36DA
36FE
34DA
34FE
38DA
30DA
ENDCHAR
STARTCHAR 50B2
ENCODING 20658
SWIDTH 1020 0
DWIDTH 17 0
BBX 16 17 0 -2
BITMAP
1398
1B98
1B98
3FF8
3392
3FFF
73B6
7396
BFF6
3616
37EE
36EC
36EC
34EC
3BD7
39D6
3022
ENDCHAR
STARTCHAR 50B3
ENCODING 20659
SWIDTH 1020 0
DWIDTH 17 0
BBX 16 17 0 -2
BITMAP
1032
1FFF
1FFF
1830
37FE
3636
37FE
7636
77FE
B033
37FF
300E
3FFF
338C
31CC
303C
3018
ENDCHAR
STARTCHAR 50B4
ENCODING 20660
SWIDTH 1020 0
DWIDTH 17 0
BBX 16 17 0 -2
BITMAP
1406
1FFF
1FFF
1E00
36FC
36C4
36C4
76FC
7600
B7EE
37AA
37AA
37EE
37AA
3606
37FF
3600
ENDCHAR
STARTCHAR 50B5
ENCODING 20661
SWIDTH 1020 0
DWIDTH 17 0
BBX 16 17 0 -2
BITMAP
10E4
1FFE
1FFE
18E0
33FC
30E2
7FFF
7000
B3FC
338C
33FC
338C
33FC
338C
33FC
3387
3E03
ENDCHAR
STARTCHAR 50B7
ENCODING 20663
SWIDTH 1020 0
DWIDTH 17 0
BBX 16 17 0 -2
BITMAP
11C4
19FE
19FE
1B80
33F8
3798
7BF8
7398
B3F8
3006
37FF
31C4
37FE
3DB6
32E6
35DC
3018
ENDCHAR
STARTCHAR 50BE
ENCODING 20670
SWIDTH 1020 0
DWIDTH 17 0
BBX 16 17 0 -2
BITMAP
1002
19FF
19FF
1818
3C12
34FF
75E6
77E6
B4FE
34E6
34FE
35E6
33E6
30FE
30EE
31C3
3603
ENDCHAR
STARTCHAR 50C2
ENCODING 20674
SWIDTH 1020 0
DWIDTH 17 0
BBX 16 17 0 -2
BITMAP
10E0
1BFC
1BFC
3AEE
3FFF
32EC
73FC
70E0
B3FC
32EC
33FC
31C2
3FFF
338C
37D8
30FC
3F8E
ENDCHAR
STARTCHAR 50C5
ENCODING 20677
SWIDTH 1020 0
DWIDTH 17 0
BBX 16 17 0 -2
BITMAP
1398
1B9A
1B9A
1FFF
3398
3404
77FE
76EC
B6EC
37FC
30E4
37FE
30E0
33FC
30E2
3FFF
3000
ENDCHAR
STARTCHAR 50C9
ENCODING 20681
SWIDTH 1020 0
DWIDTH 17 0
BBX 16 17 0 -2
BITMAP
0380
03C0
03C0
0620
0E30
181C
3FFF
C002
3EFC
32E4
32E4
3EFC
3AF4
1830
36EC
37C6
C206
ENDCHAR
STARTCHAR 50CA
ENCODING 20682
SWIDTH 1020 0
DWIDTH 17 0
BBX 16 17 0 -2
BITMAP
1002
1FFF
1FFF
19D0
37FE
35D6
75D6
77FE
B0E2
3FFF
3398
37FF
3B9A
33B8
3384
33FE
31FC
ENDCHAR
STARTCHAR 50CD
ENCODING 20685
SWIDTH 1020 0
DWIDTH 17 0
BBX 16 17 0 -2
BITMAP
21CE
3FEC
3FEC
338C
7FED
639F
6FEB
EBAB
6FEB
6BAB
6BAB
6FEB
638B
6FFB
6393
6FF6
6E26
ENDCHAR
STARTCHAR 50CF
ENCODING 20687
SWIDTH 1020 0
DWIDTH 17 0
BBX 16 17 0 -2
BITMAP
10E8
18FC
18FC
19D8
3BA6
37FF
73B6
73B6
B3FE
30F4
31D6
37BE
31D8
37BC
30FF
379A
3032
ENDCHAR
STARTCHAR 50D1
ENCODING 20689
SWIDTH 1020 0
DWIDTH 17 0
BBX 16 17 0 -2
BITMAP
101C
1BFE
1BFE
18E0
37FF
31C8
73FF
760E
BFFA
3406
37FF
3606
36F6
36D6
36F6
36CE
360C
ENDCHAR
STARTCHAR 50D5
ENCODING 20693
SWIDTH 1020 0
DWIDTH 17 0
BBX 16 17 0 -2
BITMAP
15DA
1FDE
1FDE
39DA
37FF
3198
71D2
7FFF
B0E4
37FE
30E2
3FFF
30F0
31C8
338F
3606
3802
ENDCHAR
STARTCHAR 50D6
ENCODING 20694
SWIDTH 1020 0
DWIDTH 17 0
BBX 16 17 0 -2
BITMAP
10E2
1FFF
1FFF
18E0
37FE
3000
37FE
7606
77FE
B198
31D2
3FFF
3000
37FE
3606
37FE
3606
ENDCHAR
STARTCHAR 50DA
ENCODING 20698
SWIDTH 1020 0
DWIDTH 17 0
BBX 16 17 0 -2
BITMAP
10E0
18E4
18E4
1FFE
30E0
3DDB
778E
7607
BBFE
338C
33FC
338C
33FC
32F0
36EC
35E6
38E6
ENDCHAR
STARTCHAR 50DE
ENCODING 20702
SWIDTH 1020 0
DWIDTH 17 0
BBX 16 17 0 -2
BITMAP
101C
1BFE
1BFE
19A4
33B6
3612
33FC
7388
73FE
B386
338C
33FF
36D3
35FF
39AB
338E
3006
ENDCHAR
STARTCHAR 50E3
ENCODING 20707
SWIDTH 1020 0
DWIDTH 17 0
BBX 16 17 0 -2
BITMAP
138C
1BAC
1BAC
3FFF
338C
33AC
7FFF
738C
B7DB
34F3
3BFE
3386
33FE
3386
3386
33FE
3386
ENDCHAR
STARTCHAR 50E5
ENCODING 20709
SWIDTH 1020 0
DWIDTH 17 0
BBX 16 17 0 -2
BITMAP
1034
1BFE
1BFE
1830
37FF
338C
7FDF
738C
BFEC
363F
3002
3FFF
31D8
31D8
339A
361F
380E
ENDCHAR
STARTCHAR 50E7
ENCODING 20711
SWIDTH 1020 0
DWIDTH 17 0
BBX 16 17 0 -2
BITMAP
198C
19D9
19D9
1FFF
3633
37FF
7633
7633
B7FF
3000
33FE
3386
33FE
3386
3386
33FE
3386
ENDCHAR
STARTCHAR 50ED
ENCODING 20717
SWIDTH 1020 0
DWIDTH 17 0
BBX 16 17 0 -2
BITMAP
13AC
1FFF
1FFF
3BAC
338C
3FFF
779C
75D7
B9E7
3202
33FF
3386
33FE
3386
3386
33FE
3386
ENDCHAR
STARTCHAR 50EE
ENCODING 20718
SWIDTH 1020 0
DWIDTH 17 0
BBX 16 17 0 -2
BITMAP
10E4
1FFE
1FFE
1998
31D2
3FFF
3000
73FC
72EC
B3FC
32EC
33FC
30E4
37FE
30E2
3FFF
3000
ENDCHAR
STARTCHAR 50F5
ENCODING 20725
SWIDTH 1020 0
DWIDTH 17 0
BBX 16 17 0 -2
BITMAP
1002
1FFF
1FFF
3800
37FE
36E6
77FE
76E6
BFFF
37FE
36E6
37FE
36E6
37FE
3002
3FFF
3000
ENDCHAR
STARTCHAR 50F9
ENCODING 20729
SWIDTH 1020 0
DWIDTH 17 0
BBX 15 17 0 -2
BITMAP
1004
1FFE
1FFE
39D0
37FE
35D6
77FE
7000
B3FC
338C
33FC
338C
33FC
338C
33FC
31DE
3786
ENDCHAR
STARTCHAR 50FB
ENCODING 20731
SWIDTH 1020 0
DWIDTH 17 0
BBX 16 17 0 -2
BITMAP
14CC
1FEC
1FEC
36CE
36FF
36E4
67D6
661C
E6FF
6C0C
6FCC
6ECE
76FF
76CC
67CC
66CC
600C
ENDCHAR
STARTCHAR 5100
ENCODING 20736
SWIDTH 1020 0
DWIDTH 17 0
BBX 16 17 0 -2
BITMAP
118C
19CA
19CA
3BFF
3030
3FFE
7030
77FF
B180
37DE
339A
3FFF
339A
3FCE
339C
37B7
33C3
ENDCHAR
STARTCHAR 5101
ENCODING 20737
SWIDTH 1020 0
DWIDTH 17 0
BBX 16 17 0 -2
BITMAP
10EC
19DA
19DA
1BFF
3F98
33FE
7398
73FE
B39A
33FF
3400
37EF
36EB
36FB
36EB
3607
3603
ENDCHAR
STARTCHAR 5102
ENCODING 20738
SWIDTH 1020 0
DWIDTH 17 0
BBX 16 17 0 -2
BITMAP
11D0
1FFE
1FFE
3DD6
37FE
35D6
77FE
7000
B7FE
3600
37FC
3600
37FF
35E6
3DDC
3BFF
33C6
ENDCHAR
STARTCHAR 5104
ENCODING 20740
SWIDTH 1020 0
DWIDTH 17 0
BBX 16 17 0 -2
BITMAP
1034
1BFE
1BFE
198C
31CA
37FF
7000
73FC
B38C
33FC
338C
33FC
3026
32F3
36E7
36FC
303C
ENDCHAR
STARTCHAR 5109
ENCODING 20745
SWIDTH 1020 0
DWIDTH 17 0
BBX 16 17 0 -2
BITMAP
10E0
18F0
18F0
19C8
33CC
37FF
3C02
7000
77DE
B6DA
36DA
37DE
338C
338C
37DE
35D3
38E3
ENDCHAR
STARTCHAR 5112
ENCODING 20754
SWIDTH 1020 0
DWIDTH 17 0
BBX 16 17 0 -2
BITMAP
2004
37FE
37FE
30E2
3FFF
6CE6
7EEE
E0E0
66EC
6006
7FFF
60E0
6FFF
6DDB
6DDB
6DDF
6C06
ENDCHAR
STARTCHAR 5114
ENCODING 20756
SWIDTH 1020 0
DWIDTH 17 0
BBX 16 17 0 -2
BITMAP
1034
1BFE
1BFE
3830
33FC
3002
77FF
7006
B3FC
3032
37FF
3006
37DF
36F6
37D6
36CE
3004
ENDCHAR
STARTCHAR 5115
ENCODING 20757
SWIDTH 1020 0
DWIDTH 17 0
BBX 16 17 0 -2
BITMAP
1032
1FFF
1FFF
3988
30D2
3FFF
75AA
75AB
BBAD
3000
338C
33FC
338C
33FC
338C
360C
380C
ENDCHAR
STARTCHAR 5116
ENCODING 20758
SWIDTH 1020 0
DWIDTH 17 0
BBX 16 17 0 -2
BITMAP
1418
1FDA
1FDA
1D9F
37D0
34F0
74E2
77DF
B580
37E0
3002
37FE
36D6
36D6
36D6
3FFF
3000
ENDCHAR
STARTCHAR 5118
ENCODING 20760
SWIDTH 1020 0
DWIDTH 17 0
BBX 16 17 0 -2
BITMAP
10E4
1FFC
1FFC
18EE
3FFF
30EC
77FC
70E2
BFFF
35B6
3DD3
3CD9
37FC
35AC
35AE
3FFF
3000
ENDCHAR
STARTCHAR 511A
ENCODING 20762
SWIDTH 1020 0
DWIDTH 17 0
BBX 16 17 0 -2
BITMAP
11D8
1FFE
1FFE
39D8
3000
37FE
76D6
77FE
B402
37FF
3CEB
3DFC
338C
35F8
3030
30E0
3780
ENDCHAR
STARTCHAR 511F
ENCODING 20767
SWIDTH 1020 0
DWIDTH 17 0
BBX 16 17 0 -2
BITMAP
13B6
19B4
19B4
1BFF
36FB
36CC
70F8
7206
B3FF
3386
33FE
3386
33FE
3386
33FE
3387
3E03
ENDCHAR
STARTCHAR 5121
ENCODING 20769
SWIDTH 1020 0
DWIDTH 17 0
BBX 16 17 0 -2
BITMAP
1202
1BFF
1BFF
1BB6
33FE
33B6
33FE
6386
68D1
EFDF
6AD5
6AD5
6FDF
6AD5
6AD5
6FDF
68D1
ENDCHAR
STARTCHAR 512A
ENCODING 20778
SWIDTH 1020 0
DWIDTH 17 0
BBX 16 17 0 -2
BITMAP
1002
1BFF
1BFF
38E0
33FE
3386
73FE
7786
BFFF
36F6
32EA
36FE
31C8
33FC
3598
30FF
37CE
ENDCHAR
STARTCHAR 5132
ENCODING 20786
SWIDTH 1020 0
DWIDTH 17 0
BBX 16 17 0 -2
BITMAP
221C
379A
379A
31FF
3FDB
601E
62FF
6F98
E230
6EE6
61BF
69B6
6FBE
6DB6
6DB6
6FBE
6DB6
ENDCHAR
STARTCHAR 5137
ENCODING 20791
SWIDTH 1020 0
DWIDTH 17 0
BBX 16 17 0 -2
BITMAP
1182
1FDF
1FDF
3800
37DF
36D5
7430
77FF
76EC
B7FF
36CB
37FF
37CC
35EF
35CC
3BFF
3386
ENDCHAR
STARTCHAR 513A
ENCODING 20794
SWIDTH 1020 0
DWIDTH 17 0
BBX 16 17 0 -2
BITMAP
24DA
3FF6
3FF6
34D4
27D6
63BF
6FF4
6BB4
EFFE
6394
6FD4
639E
6FD4
6394
67D6
65DF
6810
ENDCHAR
STARTCHAR 513B
ENCODING 20795
SWIDTH 1020 0
DWIDTH 17 0
BBX 16 17 0 -2
BITMAP
13AC
19AA
19AA
3FFF
37DA
31F8
7402
77FF
B5AA
B5AA
37FE
3034
37FE
3032
3FFF
32D2
36FB
ENDCHAR
STARTCHAR 513C
ENCODING 20796
SWIDTH 1020 0
DWIDTH 17 0
BBX 16 17 0 -2
BITMAP
2000
37DE
37DE
36DA
37DE
6802
6FFF
6C0C
6FEA
ED9F
6DEA
6DAA
6DEE
69A4
6FE7
76EE
60F2
ENDCHAR
STARTCHAR 513F
ENCODING 20799
SWIDTH 1020 0
DWIDTH 17 0
BBX 16 17 0 -2
BITMAP
0EF0
0CE0
0CE0
0CE0
0CE0
0CE0
0CE0
0CE0
0CE0
0CE0
0CE0
0CE0
18E2
18E2
30E3
20FF
C03E
ENDCHAR
STARTCHAR 5140
ENCODING 20800
SWIDTH 1020 0
DWIDTH 17 0
BBX 16 17 0 -2
BITMAP
0006
FFFF
FFFF
0CE0
0CE0
0CE0
0CE0
0CE0
0CE0
0CE0
0CE0
0CE0
18E2
18E2
30E3
20FF
C03E
ENDCHAR
STARTCHAR 5141
ENCODING 20801
SWIDTH 1020 0
DWIDTH 17 0
BBX 16 17 0 -2
BITMAP
0380
0380
0380
0610
0408
08FC
FFE6
FCE6
0CE0
0CE0
0CE0
0CE0
0CE2
18E2
18E3
30FF
C03E
ENDCHAR
STARTCHAR 5143
ENCODING 20803
SWIDTH 1020 0
DWIDTH 17 0
BBX 16 17 0 -2
BITMAP
0018
3FFC
3FFC
0000
0000
0000
0006
FFFF
0CE0
0CE0
0CE0
0CE0
18E2
18E2
30E3
20FF
C03E
ENDCHAR
STARTCHAR 5144
ENCODING 20804
SWIDTH 1020 0
DWIDTH 17 0
BBX 16 17 0 -2
BITMAP
200C
3FFE
3FFE
300C
300C
300C
300C
300C
3FFC
36EC
06E0
06E0
0CE2
0CE2
18E3
30FF
C03E
ENDCHAR
STARTCHAR 5145
ENCODING 20805
SWIDTH 1020 0
DWIDTH 17 0
BBX 16 17 0 -2
BITMAP
01E0
01C6
01C6
FFFF
0380
0610
040C
7FFE
7EE6
0CE0
0CE0
0CE0
0CE2
18E2
18E3
30FF
C03E
ENDCHAR
STARTCHAR 5146
ENCODING 20806
SWIDTH 1020 0
DWIDTH 17 0
BBX 16 17 0 -2
BITMAP
0EF0
0CE0
0CE0
8CE6
4CE6
6CEC
6CF0
2CE0
0CF0
3CEC
ECE6
CCE6
0CE2
18E2
18E3
30FF
C03E
ENDCHAR
STARTCHAR 5147
ENCODING 20807
SWIDTH 1020 0
DWIDTH 17 0
BBX 16 17 0 -2
BITMAP
30CE
3CEC
3CEC
37EC
31CC
33CC
32EC
3CEC
300C
3FFC
36EC
06E0
0CE2
0CE2
18E3
30FF
C03E
ENDCHAR
STARTCHAR 5148
ENCODING 20808
SWIDTH 1020 0
DWIDTH 17 0
BBX 16 17 0 -2
BITMAP
01E0
19C0
19C0
19CC
1FFE
31C0
41C0
01C6
FFFF
0630
0630
0630
0C32
0C32
1833
303F
C01E
ENDCHAR
STARTCHAR 5149
ENCODING 20809
SWIDTH 1020 0
DWIDTH 17 0
BBX 16 17 0 -2
BITMAP
03C0
238C
238C
338C
1B98
1B90
03A6
FFFF
0CE0
0CE0
0CE0
0CE0
0CE2
18E2
18E3
30FF
C03E
ENDCHAR
STARTCHAR 514B
ENCODING 20811
SWIDTH 1020 0
DWIDTH 17 0
BBX 16 17 0 -2
BITMAP
01E0
01C6
01C6
FFFF
01C0
11CC
1FFE
180C
180C
180C
1FFC
0630
0632
0632
0C33
183F
E01E
ENDCHAR
STARTCHAR 514C
ENCODING 20812
SWIDTH 1020 0
DWIDTH 17 0
BBX 16 17 0 -2
BITMAP
09E0
0C20
0C20
1C30
1818
700F
DFFE
1818
1818
1818
1FF8
04E0
06E2
0EE2
0CE3
38FF
E03E
ENDCHAR
STARTCHAR 514D
ENCODING 20813
SWIDTH 1020 0
DWIDTH 17 0
BBX 16 17 0 -2
BITMAP
0600
0610
0610
0FF8
1830
30C2
FFFF
31C6
31C6
3FFE
3636
0630
0632
0C32
0833
303F
C01E
ENDCHAR
STARTCHAR 514E
ENCODING 20814
SWIDTH 1020 0
DWIDTH 17 0
BBX 16 17 0 -2
BITMAP
0018
01FC
01FC
3FE0
01C0
21CC
3FFE
31CC
31CC
3FFC
29C4
0DD8
0DCC
19CC
19C2
31FF
C0FE
ENDCHAR
STARTCHAR 5150
ENCODING 20816
SWIDTH 1020 0
DWIDTH 17 0
BBX 16 17 0 -2
BITMAP
740C
67FE
67FE
660C
660C
67FC
660C
660C
67FC
660C
11E0
1DC0
19C2
19C2
31C3
21FF
C0FE
ENDCHAR
STARTCHAR 5152
ENCODING 20818
SWIDTH 1020 0
DWIDTH 17 0
BBX 16 17 0 -2
BITMAP
0604
2EFE
2EFE
380C
300C
3EFC
300C
300C
3FFC
2CEC
0CE0
0CE0
0CE2
18E2
18E3
30FF
C03E
ENDCHAR
STARTCHAR 5154
ENCODING 20820
SWIDTH 1020 0
DWIDTH 17 0
BBX 16 17 0 -2
BITMAP
0600
0630
0630
0FF8
0CE0
18C0
318C
FFFE
31CC
31CC
3FFC
36E4
0EF8
0CEA
18E3
30FF
C03E
ENDCHAR
STARTCHAR 515A
ENCODING 20826
SWIDTH 1020 0
DWIDTH 17 0
BBX 16 17 0 -2
BITMAP
19CC
0DDC
0DDC
4DD2
7FFF
C006
DFFC
1818
1818
1818
1FF8
0CE8
0EE2
0CE2
18E3
30FF
C03E
ENDCHAR
STARTCHAR 515C
ENCODING 20828
SWIDTH 1020 0
DWIDTH 17 0
BBX 16 17 0 -2
BITMAP
19C0
5B82
5B82
77EF
66E6
67E6
66E6
66E6
77EE
6006
0EF0
0CE0
0CE2
0CE2
18E3
30FF
C03E
ENDCHAR
STARTCHAR 5162
ENCODING 20834
SWIDTH 1020 0
DWIDTH 17 0
BBX 16 17 0 -2
BITMAP
1C1C
199A
199A
FFFF
1818
5ADA
7EFF
66E6
66E6
66E6
7EFE
2C2C
6DED
6EED
5DCE
598F
8206
ENDCHAR
STARTCHAR 5165
ENCODING 20837
SWIDTH 1020 0
DWIDTH 17 0
BBX 16 17 0 -2
BITMAP
01C0
1FE0
1FE0
00C0
00C0
00C0
01C0
01C0
01E0
03A0
03A0
0210
0618
0C0C
180F
3006
C002
ENDCHAR
STARTCHAR 5168
ENCODING 20840
SWIDTH 1020 0
DWIDTH 17 0
BBX 16 16 0 -1
BITMAP
01C0
01C0
01C0
03A0
0610
0C1C
3807
DFFE
01C2
01C0
01D8
3FFC
01C0
01C0
01C6
FFFF
ENDCHAR
STARTCHAR 5169
ENCODING 20841
SWIDTH 1020 0
DWIDTH 17 0
BBX 16 17 0 -2
BITMAP
0006
FFFF
FFFF
01C0
41C6
7FFF
61C6
61C6
6DF6
65D6
65D6
6FEE
6BEE
73C6
61C6
61C6
61C6
ENDCHAR
STARTCHAR 516A
ENCODING 20842
SWIDTH 1020 0
DWIDTH 17 0
BBX 16 17 0 -2
BITMAP
3FC0
03A0
03A0
0630
0C1C
3FFF
E006
3FB6
33B6
3FA4
37EC
33C8
3FEC
37A4
33B6
37B6
33B6
ENDCHAR
STARTCHAR 516B
ENCODING 20843
SWIDTH 1020 0
DWIDTH 17 0
BBX 16 17 0 -2
BITMAP
0020
04F0
04F0
07A0
0620
0620
0620
0610
0410
0C10
0C18
0808
180C
100C
2007
4006
8002
ENDCHAR
STARTCHAR 516C
ENCODING 20844
SWIDTH 1020 0
DWIDTH 17 0
BBX 16 17 0 -2
BITMAP
0820
0DE0
0DE0
0C20
1810
1818
3388
238F
4386
8602
0610
0410
0C08
09FC
FF86
7806
4000
ENDCHAR
STARTCHAR 516D
ENCODING 20845
SWIDTH 1020 0
DWIDTH 17 0
BBX 16 16 0 -1
BITMAP
01E0
01C0
01C0
01C0
01C6
FFFF
0000
0800
0C10
0C18
180C
180C
3006
2006
4006
8000
ENDCHAR
STARTCHAR 516E
ENCODING 20846
SWIDTH 1020 0
DWIDTH 17 0
BBX 16 17 0 -2
BITMAP
05E0
0620
0620
0C30
0C18
182C
3FFF
4606
8600
0C18
0FFC
0C18
0018
0030
0030
01F0
00E0
ENDCHAR
STARTCHAR 5171
ENCODING 20849
SWIDTH 1020 0
DWIDTH 17 0
BBX 16 17 0 -2
BITMAP
0E38
0C30
0C30
0C30
0C34
7FFE
0C30
0C30
0C30
0C36
FFFF
0400
0E30
0C18
180C
3006
C006
ENDCHAR
STARTCHAR 5175
ENCODING 20853
SWIDTH 1020 0
DWIDTH 17 0
BBX 16 17 0 -2
BITMAP
0030
11F8
11F8
1FC0
1800
180C
1FFE
1830
1830
1830
1836
FFFF
0820
1C18
180C
3006
C006
ENDCHAR
STARTCHAR 5176
ENCODING 20854
SWIDTH 1020 0
DWIDTH 17 0
BBX 16 17 0 -2
BITMAP
0E38
0C34
0C34
7FFE
0C30
0C30
0FF0
0C30
0C30
0FF0
0C30
0C36
FFFF
0400
0E38
180E
E006
ENDCHAR
STARTCHAR 5177
ENCODING 20855
SWIDTH 1020 0
DWIDTH 17 0
BBX 16 17 0 -2
BITMAP
1018
1FFC
1FFC
1818
1818
1FF8
1818
1818
1FF8
1818
1818
1FF8
0006
FFFF
0C18
1C0E
7006
ENDCHAR
STARTCHAR 5178
ENCODING 20856
SWIDTH 1020 0
DWIDTH 17 0
BBX 16 17 0 -2
BITMAP
06F0
06E0
06E0
46E6
7FFF
66E6
66E6
66E6
7FFE
66E6
66E6
66E6
FFFF
0800
1C1C
3806
C006
ENDCHAR
STARTCHAR 517C
ENCODING 20860
SWIDTH 1020 0
DWIDTH 17 0
BBX 16 17 0 -2
BITMAP
0818
0C32
0C32
FFFF
06E0
3FFC
06EC
FFFF
06EC
06EC
3FFC
0EF0
1EF8
16E8
36EF
66E6
86E2
ENDCHAR
STARTCHAR 5180
ENCODING 20864
SWIDTH 1020 0
DWIDTH 17 0
BBX 16 17 0 -2
BITMAP
0EEE
FCFC
FCFC
0CE2
FC3F
CC04
3FFE
31CC
3FFC
31CC
3FFC
0634
7FFE
0632
FFFF
0E1E
7806
ENDCHAR
STARTCHAR 5182
ENCODING 20866
SWIDTH 1020 0
DWIDTH 17 0
BBX 15 17 1 -2
BITMAP
800C
FFFE
FFFE
C00C
C00C
C00C
C00C
C00C
C00C
C00C
C00C
C00C
C00C
C00C
C00C
C03C
C018
ENDCHAR
STARTCHAR 5185
ENCODING 20869
SWIDTH 1020 0
DWIDTH 17 0
BBX 15 17 1 -2
BITMAP
03C0
0380
0380
8386
FFFE
C386
C386
C746
C766
CC36
D836
E006
C006
C006
C006
C01E
C00C
ENDCHAR
STARTCHAR 5186
ENCODING 20870
SWIDTH 1020 0
DWIDTH 17 0
BBX 15 17 1 -2
BITMAP
800C
FFFE
FFFE
C38C
C38C
C38C
C38C
C38C
FFFC
C00C
C00C
C00C
C00C
C00C
C00C
C03C
C018
ENDCHAR
STARTCHAR 5189
ENCODING 20873
SWIDTH 1020 0
DWIDTH 17 0
BBX 16 17 0 -2
BITMAP
01E0
21CC
21CC
3FFE
31CC
31CC
31CC
3FFC
31CC
31CC
31CE
FFFF
300C
300C
300C
303C
3018
ENDCHAR
STARTCHAR 518A
ENCODING 20874
SWIDTH 1020 0
DWIDTH 17 0
BBX 16 17 0 -2
BITMAP
200C
3FFE
3FFE
36EC
36EC
36EC
36EC
36EE
FFFF
36EC
36EC
36EC
36EC
36EC
36EC
36FC
3018
ENDCHAR
STARTCHAR 518C
ENCODING 20876
SWIDTH 1020 0
DWIDTH 17 0
BBX 16 17 0 -2
BITMAP
22C4
3EFE
3EFE
36EC
36EC
36EC
36EC
36EE
FFFF
36EC
36EC
36EC
36EC
26EC
66CC
4EDC
8588
ENDCHAR
STARTCHAR 518D
ENCODING 20877
SWIDTH 1020 0
DWIDTH 17 0
BBX 16 17 0 -2
BITMAP
0006
FFFF
FFFF
01C0
11CC
1FFE
19CC
19CC
1FFC
19CC
19CC
FFFF
180C
180C
180C
18FC
1818
ENDCHAR
STARTCHAR 518F
ENCODING 20879
SWIDTH 1020 0
DWIDTH 17 0
BBX 15 17 1 -2
BITMAP
800C
FFFE
FFFE
CDCC
CDCC
D9CC
D9FC
E07C
D02C
DFFC
D86C
D86C
D86C
DFEC
D80C
C03C
C018
ENDCHAR
STARTCHAR 5190
ENCODING 20880
SWIDTH 1020 0
DWIDTH 17 0
BBX 15 17 1 -2
BITMAP
800C
FFFE
FFFE
C00C
DFEC
C00C
DFEC
C00C
2030
3FF8
3030
3FF0
3030
3FF0
3030
3070
3020
ENDCHAR
STARTCHAR 5191
ENCODING 20881
SWIDTH 1020 0
DWIDTH 17 0
BBX 15 17 1 -2
BITMAP
8384
FFFE
FFFE
C38C
FFFC
C38C
FFFC
C00C
3FF8
3018
37D8
3018
37D8
3018
3018
3038
3010
ENDCHAR
STARTCHAR 5192
ENCODING 20882
SWIDTH 1020 0
DWIDTH 17 0
BBX 14 17 2 -2
BITMAP
8008
FFFC
FFFC
C018
FFF8
C018
FFF8
2020
3FF0
3060
3FE0
3060
3FE0
3060
3060
3FE0
3060
ENDCHAR
STARTCHAR 5193
ENCODING 20883
SWIDTH 1020 0
DWIDTH 17 0
BBX 16 17 0 -2
BITMAP
0634
7FFE
7FFE
0630
3FFC
0632
FFFF
01C0
1FF8
19D8
1FF8
19DA
FFFF
1818
1818
18F8
1830
ENDCHAR
STARTCHAR 5195
ENCODING 20885
SWIDTH 1020 0
DWIDTH 17 0
BBX 16 17 0 -2
BITMAP
4002
7FFF
7FFF
6006
6FF6
6006
6FF6
0CC0
1FE0
31C4
FFFE
31CC
3FFC
2CEC
0EE2
18FF
E03E
ENDCHAR
STARTCHAR 5196
ENCODING 20886
SWIDTH 1020 0
DWIDTH 17 0
BBX 16 4 0 5
BITMAP
4002
7FFF
C003
C004
ENDCHAR
STARTCHAR 5197
ENCODING 20887
SWIDTH 1020 0
DWIDTH 17 0
BBX 16 17 0 -2
BITMAP
4002
7FFF
7FFF
4006
C004
C830
0FF8
0C30
0C30
0C30
0C30
0C30
0C32
1832
1833
303F
C01E
ENDCHAR
STARTCHAR 5199
ENCODING 20889
SWIDTH 1020 0
DWIDTH 17 0
BBX 16 17 0 -2
BITMAP
4002
7FFF
7FFF
4006
CE04
CC30
1FF8
1800
1818
3FFC
3018
001A
FFFF
0030
00E0
07E0
01C0
ENDCHAR
STARTCHAR 51A0
ENCODING 20896
SWIDTH 1020 0
DWIDTH 17 0
BBX 16 17 0 -2
BITMAP
4002
7FFF
7FFF
C006
C40C
3E0C
00FE
078C
FEEC
36EC
360C
360C
363C
261A
6603
47FF
83FE
ENDCHAR
STARTCHAR 51A2
ENCODING 20898
SWIDTH 1020 0
DWIDTH 17 0
BBX 16 17 0 -2
BITMAP
4002
7FFF
7FFF
C003
C014
3FF8
03C0
0F8C
7BCC
17D8
0CE0
1FF0
63E8
06EF
1CE6
73C2
01C0
ENDCHAR
STARTCHAR 51A4
ENCODING 20900
SWIDTH 1020 0
DWIDTH 17 0
BBX 16 17 0 -2
BITMAP
4006
7FFF
7FFF
C606
CCE8
0FF0
19C0
318C
FFFE
31CC
31CC
3FFC
08F8
0EEC
1CE2
30FF
C03F
ENDCHAR
STARTCHAR 51A5
ENCODING 20901
SWIDTH 1020 0
DWIDTH 17 0
BBX 16 17 0 -2
BITMAP
4002
7FFF
7FFF
C006
D018
1FFC
1818
1FF8
1818
1FF8
19D8
01C6
FFFF
0400
0E1C
1806
6006
ENDCHAR
STARTCHAR 51A6
ENCODING 20902
SWIDTH 1020 0
DWIDTH 17 0
BBX 16 17 0 -2
BITMAP
4006
7FFF
7FFF
C006
C434
7E30
003E
0230
FFFE
36C6
362C
3618
363C
27C6
6602
47FF
83FE
ENDCHAR
STARTCHAR 51A8
ENCODING 20904
SWIDTH 1020 0
DWIDTH 17 0
BBX 16 17 0 -2
BITMAP
4002
7FFF
7FFF
C006
DFFC
0000
1FF8
1818
1FF8
2004
3FFE
31CC
3FFC
31CC
31CC
3FFC
300C
ENDCHAR
STARTCHAR 51A9
ENCODING 20905
SWIDTH 1020 0
DWIDTH 17 0
BBX 16 17 0 -2
BITMAP
4002
7FFF
7FFF
C003
C604
3FFC
300C
3EFC
300C
3FFC
0C02
1FFF
3026
C9B6
2DD6
64DC
400C
ENDCHAR
STARTCHAR 51AA
ENCODING 20906
SWIDTH 1020 0
DWIDTH 17 0
BBX 16 17 0 -2
BITMAP
4002
7FFF
7FFF
C6E3
FFFC
06E0
1FF8
1818
1FF8
181A
FFFF
0DD8
1FFC
39DF
D9DA
19F8
01C0
ENDCHAR
STARTCHAR 51AB
ENCODING 20907
SWIDTH 1020 0
DWIDTH 17 0
BBX 9 17 4 -2
BITMAP
4000
3800
3800
1C00
1C80
0100
0100
0200
0200
0C00
1C00
9C00
7800
3800
2000
3800
3800
ENDCHAR
STARTCHAR 51AC
ENCODING 20908
SWIDTH 1020 0
DWIDTH 17 0
BBX 16 17 0 -2
BITMAP
0600
0618
0618
0FFC
1818
3430
C4E0
03C0
03F0
0E3F
3B8E
C1E2
00E0
0000
0F80
01E0
00F0
ENDCHAR
STARTCHAR 51B0
ENCODING 20912
SWIDTH 1020 0
DWIDTH 17 0
BBX 16 17 0 -2
BITMAP
0038
4030
4030
3032
3033
09B6
0FF4
11FC
11F8
33B8
23BC
623C
C636
4437
6832
71F2
60E0
ENDCHAR
STARTCHAR 51B1
ENCODING 20913
SWIDTH 1020 0
DWIDTH 17 0
BBX 16 17 0 -2
BITMAP
000C
4FFE
4FFE
31C0
31C0
09CC
09FE
0B8C
138C
138C
3398
27F8
E618
6618
401E
7FFF
6000
ENDCHAR
STARTCHAR 51B2
ENCODING 20914
SWIDTH 1020 0
DWIDTH 17 0
BBX 16 17 0 -2
BITMAP
0038
8030
8030
6030
6433
0FFF
0E33
1633
1633
1633
37FF
2633
6030
E030
4030
6030
6030
ENDCHAR
STARTCHAR 51B3
ENCODING 20915
SWIDTH 1020 0
DWIDTH 17 0
BBX 16 17 0 -2
BITMAP
00F0
40E0
40E0
30E4
37FE
08EC
08EC
08EC
10EE
1FFF
30E0
21D0
E1D8
638C
460F
6C06
7002
ENDCHAR
STARTCHAR 51B4
ENCODING 20916
SWIDTH 1020 0
DWIDTH 17 0
BBX 16 17 0 -2
BITMAP
4002
23FF
23FF
31CC
31CC
09CC
09CC
17FF
103C
20EC
60EC
C1CC
438C
660C
6C0C
30FC
0018
ENDCHAR
STARTCHAR 51B5
ENCODING 20917
SWIDTH 1020 0
DWIDTH 17 0
BBX 16 17 0 -2
BITMAP
0406
47FF
47FF
3606
3606
0E06
0E06
1606
17FE
159A
21D8
21D8
E39A
639A
461B
641F
780E
ENDCHAR
STARTCHAR 51B6
ENCODING 20918
SWIDTH 1020 0
DWIDTH 17 0
BBX 16 17 0 -2
BITMAP
00E0
40E0
40E0
20C8
31C4
3586
09FF
0FE2
1600
120C
33FE
638C
E38C
438C
638C
63FC
038C
ENDCHAR
STARTCHAR 51B7
ENCODING 20919
SWIDTH 1020 0
DWIDTH 17 0
BBX 16 17 0 -2
BITMAP
40E0
20E0
20E0
31D8
318C
0397
0BFE
0C02
1006
17FF
30E6
60E6
E0E6
40EE
60EC
60E0
00E0
ENDCHAR
STARTCHAR 51BD
ENCODING 20925
SWIDTH 1020 0
DWIDTH 17 0
BBX 16 17 0 -2
BITMAP
00E3
9FF3
9FF3
6383
639B
17FB
17DB
15DB
25DB
2FDB
2B9B
739B
621B
C61B
4403
6807
7002
ENDCHAR
STARTCHAR 51C4
ENCODING 20932
SWIDTH 1020 0
DWIDTH 17 0
BBX 16 17 0 -2
BITMAP
00F0
80E2
80E2
5FFF
60E0
67FC
00EC
1FFF
10EC
27FC
21C2
7FFF
E398
4630
47F8
61DE
6E0E
ENDCHAR
STARTCHAR 51C5
ENCODING 20933
SWIDTH 1020 0
DWIDTH 17 0
BBX 16 17 0 -2
BITMAP
0803
8FFF
8FFF
6C03
6CE3
1CEB
1FFF
2CE3
2CEB
2DFB
6DDB
4DDB
CDFB
CDDB
6C03
6FFF
6C03
ENDCHAR
STARTCHAR 51C6
ENCODING 20934
SWIDTH 1020 0
DWIDTH 17 0
BBX 16 17 0 -2
BITMAP
01C8
81CC
81CC
439A
63FF
6630
0E30
1634
1FFE
1630
3634
27FE
E630
6630
4636
67FF
6600
ENDCHAR
STARTCHAR 51C9
ENCODING 20937
SWIDTH 1020 0
DWIDTH 17 0
BBX 16 17 0 -2
BITMAP
00F0
80E0
80E0
60E6
6FFF
1404
17FE
160C
360C
260C
27FC
64E0
C6EC
CEE6
6CE3
73E3
61C0
ENDCHAR
STARTCHAR 51CB
ENCODING 20939
SWIDTH 1020 0
DWIDTH 17 0
BBX 16 17 0 -2
BITMAP
0806
8FFF
8FFF
4C06
6CE6
6FFE
0CE6
1CE6
2FFE
2CE6
6DF6
ED96
6D96
49F6
6986
703E
200C
ENDCHAR
STARTCHAR 51CC
ENCODING 20940
SWIDTH 1020 0
DWIDTH 17 0
BBX 16 17 0 -2
BITMAP
00E4
47FE
47FE
20E0
30E6
3FFF
0398
139F
1EEF
20E4
21FE
638C
CD98
40F0
60FF
63CE
1C02
ENDCHAR
STARTCHAR 51CD
ENCODING 20941
SWIDTH 1020 0
DWIDTH 17 0
BBX 16 17 0 -2
BITMAP
00F0
40E6
40E6
2FFF
30E0
37FF
0EE6
16E6
17FE
36E6
26E6
E7FE
41F0
63E8
66EF
6CE6
30E2
ENDCHAR
STARTCHAR 51D6
ENCODING 20950
SWIDTH 1020 0
DWIDTH 17 0
BBX 16 17 0 -2
BITMAP
4398
6A34
6A34
2FFE
1E30
17FC
2630
67FC
C630
67FE
6600
01C0
01C6
FFFF
01C0
01C0
01C0
ENDCHAR
STARTCHAR 51DB
ENCODING 20955
SWIDTH 1020 0
DWIDTH 17 0
BBX 16 17 0 -2
BITMAP
00E2
8FFF
8FFF
6000
67FE
16D6
16F6
1606
37FE
2008
23FC
6002
CFFF
C4E0
6EEE
69E3
70C3
ENDCHAR
STARTCHAR 51DC
ENCODING 20956
SWIDTH 1020 0
DWIDTH 17 0
BBX 16 17 0 -2
BITMAP
00F0
80E6
80E6
4FFF
6000
67FE
0606
16F6
16D6
37FE
2018
61E6
EFFF
41F0
43EF
66E6
78E2
ENDCHAR
STARTCHAR 51DD
ENCODING 20957
SWIDTH 1020 0
DWIDTH 17 0
BBX 16 17 0 -2
BITMAP
0D82
8FBF
8FBF
4E06
6CD4
6FEC
17FF
140E
2FCC
2E2C
762F
EFEC
462C
67EC
6DFC
682F
10C6
ENDCHAR
STARTCHAR 51E0
ENCODING 20960
SWIDTH 1020 0
DWIDTH 17 0
BBX 16 17 0 -2
BITMAP
0830
0FF8
0FF8
0C30
0C30
0C30
0C30
0C30
0C30
0C30
0C30
0C30
1832
1832
3033
203F
C01E
ENDCHAR
STARTCHAR 51E1
ENCODING 20961
SWIDTH 1020 0
DWIDTH 17 0
BBX 16 17 0 -2
BITMAP
1030
1FF8
1FF8
1830
1830
1830
1830
1E30
1BB0
1BB0
1830
1830
1832
1032
3033
203F
C01E
ENDCHAR
STARTCHAR 51E6
ENCODING 20966
SWIDTH 1020 0
DWIDTH 17 0
BBX 16 17 0 -2
BITMAP
20C4
32FE
32FE
3FEC
36EC
36EC
36EC
66EC
6CEC
ACEC
1CCD
19CD
198F
3606
2600
43FF
80FE
ENDCHAR
STARTCHAR 51E7
ENCODING 20967
SWIDTH 1020 0
DWIDTH 17 0
BBX 16 17 0 -2
BITMAP
400C
7FFE
7FFE
600C
638C
6BAC
6FFC
6BAC
6BAC
6BAC
6BAC
6BAD
6BED
4BA6
4386
8387
0383
ENDCHAR
STARTCHAR 51E9
ENCODING 20969
SWIDTH 1020 0
DWIDTH 17 0
BBX 16 17 0 -2
BITMAP
200C
3FFE
3FFE
300C
33CC
338C
33AC
3FFC
338C
37CC
37CC
37ED
2FAD
6BA6
7386
4387
8003
ENDCHAR
STARTCHAR 51EA
ENCODING 20970
SWIDTH 1020 0
DWIDTH 17 0
BBX 16 17 0 -2
BITMAP
200C
3FFE
3FFE
300C
31EC
31CC
35CC
35CC
35CC
35FC
35CC
35CD
25CD
65C6
65D6
5FFF
8003
ENDCHAR
STARTCHAR 51ED
ENCODING 20973
SWIDTH 1020 0
DWIDTH 17 0
BBX 16 17 0 -2
BITMAP
101C
3BFE
3BFE
3032
77FF
B030
3034
37FE
3000
0FF8
0C30
0C30
0C30
0C32
1833
303F
C01E
ENDCHAR
STARTCHAR 51F0
ENCODING 20976
SWIDTH 1020 0
DWIDTH 17 0
BBX 16 17 0 -2
BITMAP
200C
3FFE
3FFE
338C
37EC
36EC
37EC
36EC
37EC
302C
3FFC
338D
37ED
2386
63A6
5FF7
8003
ENDCHAR
STARTCHAR 51F1
ENCODING 20977
SWIDTH 1020 0
DWIDTH 17 0
BBX 16 17 0 -2
BITMAP
18CC
5AFE
5AFE
5AEC
7EEC
00EC
FFEC
00EC
7EEC
66EC
7EEC
26EC
36ED
35ED
1ECD
F9CF
6207
ENDCHAR
STARTCHAR 51F5
ENCODING 20981
SWIDTH 1020 0
DWIDTH 17 0
BBX 15 17 1 -2
BITMAP
E00E
C00C
C00C
C00C
C00C
C00C
C00C
C00C
C00C
C00C
C00C
C00C
C00C
C00C
C00C
FFFC
C00C
ENDCHAR
STARTCHAR 51F6
ENCODING 20982
SWIDTH 1020 0
DWIDTH 17 0
BBX 15 17 1 -2
BITMAP
0020
E036
E036
C036
D866
C466
C766
C3C6
C386
C3C6
C766
CC66
D836
E036
C006
FFFE
C006
ENDCHAR
STARTCHAR 51F8
ENCODING 20984
SWIDTH 1020 0
DWIDTH 17 0
BBX 15 16 1 -1
BITMAP
1060
1FF0
1FF0
1860
1860
1860
986C
F87E
D86C
C00C
C00C
C00C
C00C
C00C
FFFC
C00C
ENDCHAR
STARTCHAR 51F9
ENCODING 20985
SWIDTH 1020 0
DWIDTH 17 0
BBX 15 16 1 -2
BITMAP
8C46
8C46
FF7E
CC66
CC66
CC66
CC66
CC66
CFE6
CC66
C006
C006
C006
FFFE
C006
C006
ENDCHAR
STARTCHAR 51FA
ENCODING 20986
SWIDTH 1020 0
DWIDTH 17 0
BBX 15 17 1 -2
BITMAP
03C0
738E
738E
638C
638C
638C
638C
7FFC
638C
0380
E386
C386
C386
C386
C386
FFFE
C006
ENDCHAR
STARTCHAR 51FD
ENCODING 20989
SWIDTH 1020 0
DWIDTH 17 0
BBX 16 17 0 -2
BITMAP
0006
FFFF
FFFF
0600
06C0
6FE7
61D6
6DDE
67F6
65C6
63E6
6DF6
7DDE
6BD6
6186
7FFE
6006
ENDCHAR
STARTCHAR 51FE
ENCODING 20990
SWIDTH 1020 0
DWIDTH 17 0
BBX 15 17 1 -2
BITMAP
0020
3FF0
3FF0
0060
0340
C38E
FBFC
EBBC
EBBC
EBEC
EBAC
FFFC
E7DC
C30C
C00C
FFFC
C00C
ENDCHAR
STARTCHAR 5200
ENCODING 20992
SWIDTH 1020 0
DWIDTH 17 0
BBX 16 16 0 -2
BITMAP
0006
0006
7FFF
0606
0606
0606
0606
0606
0606
0606
0C06
0C06
080C
180C
30FC
C018
ENDCHAR
STARTCHAR 5203
ENCODING 20995
SWIDTH 1020 0
DWIDTH 17 0
BBX 16 17 0 -2
BITMAP
0006
FFFF
FFFF
0386
0386
0386
3386
0F86
0386
03C6
03E6
06E6
0606
0C0C
180C
30FC
C018
ENDCHAR
STARTCHAR 5204
ENCODING 20996
SWIDTH 1020 0
DWIDTH 17 0
BBX 16 17 0 -2
BITMAP
000C
7FFE
7FFE
038C
138C
138C
0B8C
0F8C
060C
060C
0798
0DD8
0CF8
183F
1036
21F0
C0E0
ENDCHAR
STARTCHAR 5206
ENCODING 20998
SWIDTH 1020 0
DWIDTH 17 0
BBX 16 17 0 -2
BITMAP
0420
06F0
06F0
0C20
0C10
1818
100F
3FFE
C61A
0618
0618
0618
0C18
0C18
1830
11F0
60E0
ENDCHAR
STARTCHAR 5207
ENCODING 20999
SWIDTH 1020 0
DWIDTH 17 0
BBX 16 17 0 -2
BITMAP
3800
3003
3003
33FF
3033
3433
3E33
3833
F033
3433
34E3
36E3
3EE3
1DC6
0386
023E
0C0C
ENDCHAR
STARTCHAR 5208
ENCODING 21000
SWIDTH 1020 0
DWIDTH 17 0
BBX 16 17 0 -2
BITMAP
0783
0603
0603
063B
0633
C633
3633
1E33
0C33
0E33
0BB3
1BB3
11C3
31C3
2003
400F
8006
ENDCHAR
STARTCHAR 520A
ENCODING 21002
SWIDTH 1020 0
DWIDTH 17 0
BBX 16 17 0 -2
BITMAP
0203
FFBB
FFBB
1833
1833
1833
1833
1BB3
FFF3
1833
1833
1833
1833
1803
1803
180F
1806
ENDCHAR
STARTCHAR 520B
ENCODING 21003
SWIDTH 1020 0
DWIDTH 17 0
BBX 16 17 0 -2
BITMAP
0607
1F86
1F86
78F6
18E6
18E6
1AE6
FFE6
18E6
18E6
18E6
18E6
30E6
3006
2006
401E
800C
ENDCHAR
STARTCHAR 520E
ENCODING 21006
SWIDTH 1020 0
DWIDTH 17 0
BBX 16 17 0 -2
BITMAP
1803
1803
1803
31DB
3FFB
6BDB
5BDB
97DB
35DB
25DB
6DDB
4B9B
9B9B
3383
2603
4E0F
8406
ENDCHAR
STARTCHAR 5211
ENCODING 21009
SWIDTH 1020 0
DWIDTH 17 0
BBX 16 17 0 -2
BITMAP
0183
7FC3
7FC3
363B
3633
3633
3633
FFF3
3633
3633
3633
3633
3633
2633
6603
460F
8606
ENDCHAR
STARTCHAR 5214
ENCODING 21012
SWIDTH 1020 0
DWIDTH 17 0
BBX 16 17 0 -2
BITMAP
0E03
0C03
0C03
0D9B
7FDB
0DDB
0DDB
0DDB
FFFB
0C1B
0E1B
0D9B
19DB
19C3
3003
600F
8006
ENDCHAR
STARTCHAR 5217
ENCODING 21015
SWIDTH 1020 0
DWIDTH 17 0
BBX 16 17 0 -2
BITMAP
0383
FFC3
FFC3
183B
19B3
1FF3
33B3
33B3
23B3
7BB3
8E33
0633
0C33
0C03
1803
100F
6006
ENDCHAR
STARTCHAR 521D
ENCODING 21021
SWIDTH 1020 0
DWIDTH 17 0
BBX 16 17 0 -2
BITMAP
3800
3003
3003
35FF
FE33
0C33
0C33
1A33
1E33
3C33
7633
B4E3
30E3
30E6
31C6
319E
360C
ENDCHAR
STARTCHAR 5224
ENCODING 21028
SWIDTH 1020 0
DWIDTH 17 0
BBX 16 17 0 -2
BITMAP
1C07
9B86
9B86
5BF6
7EE6
58E6
1AE6
FFE6
18E6
18E6
1AE6
FFE6
18E6
1806
1806
183E
180C
ENDCHAR
STARTCHAR 5225
ENCODING 21029
SWIDTH 1020 0
DWIDTH 17 0
BBX 16 17 0 -2
BITMAP
4183
7FBB
7FBB
63B3
63B3
63B3
7FB3
5833
1A33
1FB3
1BB3
33B3
33B3
3383
6603
4E1F
8406
ENDCHAR
STARTCHAR 5227
ENCODING 21031
SWIDTH 1020 0
DWIDTH 17 0
BBX 16 17 0 -2
BITMAP
1C00
1803
1803
19FF
7E33
1833
1833
1BB3
FFF3
1833
30E3
34E6
26E6
FEC6
E3C6
019C
020C
ENDCHAR
STARTCHAR 5229
ENCODING 21033
SWIDTH 1020 0
DWIDTH 17 0
BBX 16 17 0 -2
BITMAP
0607
1F86
1F86
F8F6
18E6
1AE6
FFE6
18E6
3CE6
3EE6
7AE6
58E6
98E6
1806
1806
183E
180C
ENDCHAR
STARTCHAR 522A
ENCODING 21034
SWIDTH 1020 0
DWIDTH 17 0
BBX 16 17 0 -2
BITMAP
40E3
7FF3
7FF3
6AEF
6AEB
6AEB
6AEB
6AEB
FFFB
6AEB
6AEB
6AEB
6AEB
6AE3
6AE3
6BEF
60C6
ENDCHAR
STARTCHAR 522E
ENCODING 21038
SWIDTH 1020 0
DWIDTH 17 0
BBX 16 17 0 -2
BITMAP
0383
1FC3
1FC3
FC3B
0C33
0DB3
FFF3
0C33
0C33
4DB3
7FF3
63B3
63B3
6383
6383
7F8F
6386
ENDCHAR
STARTCHAR 5230
ENCODING 21040
SWIDTH 1020 0
DWIDTH 17 0
BBX 16 17 0 -2
BITMAP
0603
FF83
FF83
303B
3433
2633
FFB3
E3B3
1A33
1833
1A33
FFB3
1833
1803
1F83
F81F
E006
ENDCHAR
STARTCHAR 5233
ENCODING 21043
SWIDTH 1020 0
DWIDTH 17 0
BBX 16 17 0 -2
BITMAP
0C03
0D83
0D83
FFFB
1C1B
3B9B
61FB
BEDB
001B
7FDB
181B
1FDB
339B
0383
0383
0E0F
0406
ENDCHAR
STARTCHAR 5236
ENCODING 21046
SWIDTH 1020 0
DWIDTH 17 0
BBX 16 17 0 -2
BITMAP
4E03
6C03
6C03
6D9B
7FDB
CC1B
8DDB
FFFB
0C1B
7FDB
6DDB
6DDB
6DDB
6DC3
6FC3
6D8F
0C06
ENDCHAR
STARTCHAR 5237
ENCODING 21047
SWIDTH 1020 0
DWIDTH 17 0
BBX 16 17 0 -2
BITMAP
41C3
7FDB
7FDB
61DB
61DB
7FDB
661B
66DB
7FDB
76DB
76DB
76DB
76DB
57C3
56C3
860F
0606
ENDCHAR
STARTCHAR 5238
ENCODING 21048
SWIDTH 1020 0
DWIDTH 17 0
BBX 16 17 0 -2
BITMAP
19CC
0DDC
0DDC
0DD0
7FFE
03C0
03A6
FFFF
0630
0C18
3FFF
E39E
061A
0618
0C18
19F0
60E0
ENDCHAR
STARTCHAR 5239
ENCODING 21049
SWIDTH 1020 0
DWIDTH 17 0
BBX 16 17 0 -2
BITMAP
0203
6783
6783
1E3B
1C33
37B3
C3B3
0C33
0DB3
FFF3
1C33
3E33
2FB3
4D83
8C03
0C0F
0C06
ENDCHAR
STARTCHAR 523A
ENCODING 21050
SWIDTH 1020 0
DWIDTH 17 0
BBX 16 17 0 -2
BITMAP
0E03
0CC3
0CC3
FFDB
0C1B
4DDB
7FDB
6DDB
6DDB
6FDB
6D9B
1C1B
1E1B
3F83
2D83
4C0F
8C06
ENDCHAR
STARTCHAR 523B
ENCODING 21051
SWIDTH 1020 0
DWIDTH 17 0
BBX 16 17 0 -2
BITMAP
1C03
183B
183B
1BB3
FFF3
1833
13B3
77B3
3633
1C33
1BB3
33B3
C633
0C03
1B83
31CF
C1C6
ENDCHAR
STARTCHAR 5243
ENCODING 21059
SWIDTH 1020 0
DWIDTH 17 0
BBX 16 17 0 -2
BITMAP
6383
3783
3783
341B
FFDB
1B9B
5B9B
7F9B
D81B
D9DB
FFDB
39DB
79DB
5B83
9F83
1A1F
1806
ENDCHAR
STARTCHAR 5244
ENCODING 21060
SWIDTH 1020 0
DWIDTH 17 0
BBX 15 17 1 -2
BITMAP
0186
FFC6
FFC6
49B6
6DF6
DBB6
9336
DBB6
6DF6
0336
FFB6
1836
1836
1FC6
FC06
E01E
000C
ENDCHAR
STARTCHAR 5247
ENCODING 21063
SWIDTH 1020 0
DWIDTH 17 0
BBX 16 17 0 -2
BITMAP
4203
7F83
7F83
663B
6633
7E33
6633
6633
6633
7E33
6633
6633
6633
7E03
6603
638F
8386
ENDCHAR
STARTCHAR 524A
ENCODING 21066
SWIDTH 1020 0
DWIDTH 17 0
BBX 16 17 0 -2
BITMAP
8CC3
6DE3
6DE3
7FDB
2C1B
7FDB
61DB
61DB
7FDB
61DB
61DB
7FDB
61C3
61C3
61C3
67CF
6386
ENDCHAR
STARTCHAR 524B
ENCODING 21067
SWIDTH 1020 0
DWIDTH 17 0
BBX 16 17 0 -2
BITMAP
1C0E
1A0C
1A0C
FFEC
18EC
18EC
7EEC
66EC
66EC
66EC
7EEC
2C0C
6C1C
6C0A
4C03
4FFF
87FE
ENDCHAR
STARTCHAR 524C
ENCODING 21068
SWIDTH 1020 0
DWIDTH 17 0
BBX 16 17 0 -2
BITMAP
0E07
0D86
0D86
FFC6
0C36
0C36
7FB6
6DB6
6DB6
7FB6
1C36
1E36
3FB6
2D86
4C06
8C1E
0C0C
ENDCHAR
STARTCHAR 524D
ENCODING 21069
SWIDTH 1020 0
DWIDTH 17 0
BBX 16 17 0 -2
BITMAP
0C38
0632
0632
FFFF
0000
4607
7FB6
6636
6636
7E36
6636
6636
7E36
6636
6606
6E1E
6C0C
ENDCHAR
STARTCHAR 524F
ENCODING 21071
SWIDTH 1020 0
DWIDTH 17 0
BBX 16 17 0 -2
BITMAP
4C06
6DFF
6DFF
29B6
FFB6
6DB6
6DB6
6CF6
FFF6
6CF6
6C36
6CFE
6CFC
6CCF
4DCE
4DBA
8218
ENDCHAR
STARTCHAR 5254
ENCODING 21076
SWIDTH 1020 0
DWIDTH 17 0
BBX 16 17 0 -2
BITMAP
4187
7FC6
7FC6
63B6
7FB6
63B6
7FB6
1836
39B6
3FF6
7FB6
B7B6
2DB6
DB86
3606
CE1E
0C0C
ENDCHAR
STARTCHAR 5256
ENCODING 21078
SWIDTH 1020 0
DWIDTH 17 0
BBX 16 17 0 -2
BITMAP
0C03
0DBB
0DBB
7FB3
2633
3633
35B3
FFF3
0033
41B3
7FF3
63B3
63B3
63B3
6383
7F8F
6386
ENDCHAR
STARTCHAR 525B
ENCODING 21083
SWIDTH 1020 0
DWIDTH 17 0
BBX 16 17 0 -2
BITMAP
81C3
FFE3
FFE3
C1DB
E3DB
F7DB
D5DB
FFDB
C9DB
C9DB
EBDB
EBDB
EBDB
FFC3
E1C3
C7CF
C386
ENDCHAR
STARTCHAR 525E
ENCODING 21086
SWIDTH 1020 0
DWIDTH 17 0
BBX 16 17 0 -2
BITMAP
0E03
0CC3
0CC3
FFFB
0E1B
1BDB
31DB
401B
FFFB
01DB
7DDB
6DDB
6DDB
7DC3
61C3
07CF
0386
ENDCHAR
STARTCHAR 5263
ENCODING 21091
SWIDTH 1020 0
DWIDTH 17 0
BBX 16 17 0 -2
BITMAP
0C03
0E3B
0E3B
1BB3
31F3
7FB3
8C33
7FB3
6DB3
6DB3
7FB3
4C33
1E33
1B83
31C3
21CF
C006
ENDCHAR
STARTCHAR 5264
ENCODING 21092
SWIDTH 1020 0
DWIDTH 17 0
BBX 16 17 0 -2
BITMAP
1C03
19DB
19DB
FFFB
139B
161B
0C1B
3FFB
F3DB
339B
3F9B
339B
339B
3F83
2383
639F
8386
ENDCHAR
STARTCHAR 5265
ENCODING 21093
SWIDTH 1020 0
DWIDTH 17 0
BBX 16 17 0 -2
BITMAP
0607
7FB6
7FB6
0636
7E36
0636
0636
FFF6
8DB6
6DF6
6FB6
1C36
2FB6
EDC6
CDC6
1C1E
080C
ENDCHAR
STARTCHAR 5269
ENCODING 21097
SWIDTH 1020 0
DWIDTH 17 0
BBX 15 17 0 -2
BITMAP
0786
7FC6
7FC6
0C36
FFF6
0C36
2DB6
EDF6
2DB6
EDF6
BDF6
1E36
3FB6
6D86
8C06
0C1E
0C0C
ENDCHAR
STARTCHAR 526A
ENCODING 21098
SWIDTH 1020 0
DWIDTH 17 0
BBX 16 17 0 -2
BITMAP
1838
0C36
0C36
FFFF
0000
7EEE
76EC
6EEC
76EC
6E0C
661C
000A
FFFF
0386
0606
1C3C
E018
ENDCHAR
STARTCHAR 526F
ENCODING 21103
SWIDTH 1020 0
DWIDTH 17 0
BBX 16 17 0 -2
BITMAP
0387
FFF6
FFF6
4236
7FB6
6636
6636
7E36
81B6
FFF6
DBB6
DBB6
FFB6
DB86
DB86
FFBE
C38C
ENDCHAR
STARTCHAR 5270
ENCODING 21104
SWIDTH 1020 0
DWIDTH 17 0
BBX 16 17 0 -2
BITMAP
0383
0FC3
0FC3
7C1B
0C1B
FFFB
6DDB
FFFB
6DDB
6DDB
FFFB
1C1B
1F9B
3DC3
2DC3
6C0F
8C06
ENDCHAR
STARTCHAR 5271
ENCODING 21105
SWIDTH 1020 0
DWIDTH 17 0
BBX 16 17 0 -2
BITMAP
1802
1EFF
1EFF
339B
31DB
7FDB
8C1B
7FBB
6DBB
6D93
7FBB
0C3E
1FE7
1BE7
31C6
219E
C20C
ENDCHAR
STARTCHAR 5272
ENCODING 21106
SWIDTH 1020 0
DWIDTH 17 0
BBX 16 17 0 -2
BITMAP
0E03
4CDB
4CDB
FFFB
CDDB
0C1B
7F9B
0C1B
7F9B
0C1B
FFDB
019B
7FDB
6383
6383
7F8F
6386
ENDCHAR
STARTCHAR 5273
ENCODING 21107
SWIDTH 1020 0
DWIDTH 17 0
BBX 16 17 0 -2
BITMAP
3383
33A3
33A3
FFFB
339B
0C1B
0C1B
1A1B
1B9B
3FDB
61FB
A1DB
3FDB
3383
3383
3F8F
3386
ENDCHAR
STARTCHAR 5274
ENCODING 21108
SWIDTH 1020 0
DWIDTH 17 0
BBX 16 17 0 -2
BITMAP
0C07
6D86
6D86
6DB6
7FB6
61B6
03B6
FFF6
0036
7FB6
63B6
63B6
7FB6
2606
3406
FFDE
780C
ENDCHAR
STARTCHAR 5275
ENCODING 21109
SWIDTH 1020 0
DWIDTH 17 0
BBX 16 17 0 -2
BITMAP
1807
1E36
1E36
33B6
3FB6
6236
BFB6
33B6
3FB6
33B6
3FB6
3036
7FB6
7386
B386
3FBE
338C
ENDCHAR
STARTCHAR 527D
ENCODING 21117
SWIDTH 1020 0
DWIDTH 17 0
BBX 16 17 0 -2
BITMAP
00C3
FFE3
FFE3
0A1B
7FDB
6ADB
6ADB
7FDB
019B
7FDB
00DB
FFFB
4E1B
6DC3
4DC3
9CCF
0806
ENDCHAR
STARTCHAR 527F
ENCODING 21119
SWIDTH 1020 0
DWIDTH 17 0
BBX 15 17 0 -2
BITMAP
6DC6
DB86
DB86
9236
DBB6
49B6
7FB6
6DB6
7FB6
6DB6
7FB6
0C36
FFF6
3E06
3F86
6D9E
8C0C
ENDCHAR
STARTCHAR 5283
ENCODING 21123
SWIDTH 1020 0
DWIDTH 17 0
BBX 16 17 0 -2
BITMAP
1983
7FC3
7FC3
1B9B
FFFB
1B9B
7F9B
181B
FFFB
7F9B
6B9B
7F9B
6B9B
7F83
01E3
FE0F
7006
ENDCHAR
STARTCHAR 5287
ENCODING 21127
SWIDTH 1020 0
DWIDTH 17 0
BBX 16 17 0 -2
BITMAP
0D83
0FC3
0FC3
4C1B
7FFB
6DDB
7F9B
6CDB
67DB
7FFB
661B
6FBB
7BDB
6FC3
47E3
5BAF
8206
ENDCHAR
STARTCHAR 5288
ENCODING 21128
SWIDTH 1020 0
DWIDTH 17 0
BBX 16 17 0 -2
BITMAP
4234
7FFE
7FFE
66CC
7EEA
63FF
6030
7E34
B7FE
BE30
0036
7FFF
0386
0606
0E06
183C
E008
ENDCHAR
STARTCHAR 5289
ENCODING 21129
SWIDTH 1020 0
DWIDTH 17 0
BBX 16 17 0 -2
BITMAP
5187
7FC6
7FC6
45B6
55B6
F7B6
D9B6
1C36
3636
73F6
5FB6
8C36
7FB6
6D86
2E06
FFDE
F00C
ENDCHAR
STARTCHAR 528D
ENCODING 21133
SWIDTH 1020 0
DWIDTH 17 0
BBX 16 17 0 -2
BITMAP
0C03
0E03
0E03
199B
31DB
61FB
BEDB
001B
7BFB
6BBB
6BBB
7BFB
31DB
3DC3
6FE3
42EF
8406
ENDCHAR
STARTCHAR 5291
ENCODING 21137
SWIDTH 1020 0
DWIDTH 17 0
BBX 16 17 0 -2
BITMAP
0623
FFF3
FFF3
118B
0A2B
F5EB
55AB
55BB
B5DB
000B
31EB
3FCB
31CB
3FCB
31C3
61C7
C1C2
ENDCHAR
STARTCHAR 5292
ENCODING 21138
SWIDTH 1020 0
DWIDTH 17 0
BBX 16 17 0 -2
BITMAP
1802
1EFF
1EFF
339B
31DB
5FDB
803B
77BB
55FB
55D3
77B3
2233
77E6
55E6
44C6
899E
020C
ENDCHAR
STARTCHAR 5294
ENCODING 21140
SWIDTH 1020 0
DWIDTH 17 0
BBX 16 17 0 -2
BITMAP
1802
1EFF
1EFF
339B
31DB
5FDB
801B
77BB
55BB
5593
77BB
223E
77E7
55E7
44C6
899E
020C
ENDCHAR
STARTCHAR 529B
ENCODING 21147
SWIDTH 1020 0
DWIDTH 17 0
BBX 16 17 0 -2
BITMAP
03C0
0380
0380
0380
0386
FFFF
0386
0386
0386
0386
0606
0606
0606
0C0C
180C
30FC
C018
ENDCHAR
STARTCHAR 529F
ENCODING 21151
SWIDTH 1020 0
DWIDTH 17 0
BBX 16 17 0 -2
BITMAP
00F0
00E0
00E0
08E0
FCE3
33FF
30E3
30E3
30E3
30E3
30E3
3DC3
F1C3
C183
0386
061E
180C
ENDCHAR
STARTCHAR 52A0
ENCODING 21152
SWIDTH 1020 0
DWIDTH 17 0
BBX 16 17 0 -2
BITMAP
1C00
1800
1800
1BA3
FFBF
1BB3
1BB3
1BB3
1BB3
1BB3
1BB3
33B3
33B3
33BF
6E33
4630
8400
ENDCHAR
STARTCHAR 52A3
ENCODING 21155
SWIDTH 1020 0
DWIDTH 17 0
BBX 16 17 0 -2
BITMAP
01E0
19CC
19CC
1DC6
31DB
C3FB
01E0
0F80
71C0
01C6
7FFF
0386
0386
0606
0C0C
183C
6018
ENDCHAR
STARTCHAR 52A9
ENCODING 21161
SWIDTH 1020 0
DWIDTH 17 0
BBX 16 17 0 -2
BITMAP
0038
4630
4630
7FB0
6633
67FF
7E33
6633
6633
7E33
6633
6623
66E3
6FE6
F8C6
C19E
060C
ENDCHAR
STARTCHAR 52AA
ENCODING 21162
SWIDTH 1020 0
DWIDTH 17 0
BBX 16 17 0 -2
BITMAP
1C02
19FF
19FF
FFA6
3626
661C
7C18
1E3F
37C6
C384
7FFE
038C
060C
060C
0C18
19F8
6030
ENDCHAR
STARTCHAR 52AB
ENCODING 21163
SWIDTH 1020 0
DWIDTH 17 0
BBX 16 17 0 -2
BITMAP
1C1C
1818
1818
1A18
7E18
181B
19FF
1A1B
FF9B
181B
341B
3233
23B3
3FB6
F2E6
C1DE
060C
ENDCHAR
STARTCHAR 52AC
ENCODING 21164
SWIDTH 1020 0
DWIDTH 17 0
BBX 16 17 0 -2
BITMAP
181C
1818
1818
3198
3FDB
63BF
839B
7B9B
6B9B
6B9B
6B9B
7BB3
6633
0633
1EE6
0CDE
0184
ENDCHAR
STARTCHAR 52AD
ENCODING 21165
SWIDTH 1020 0
DWIDTH 17 0
BBX 16 17 0 -2
BITMAP
0038
0230
0230
FFB0
33B3
33FF
63B3
4E33
8633
8233
FFB3
C623
C6E3
C6E6
FFC6
C19E
060C
ENDCHAR
STARTCHAR 52B1
ENCODING 21169
SWIDTH 1020 0
DWIDTH 17 0
BBX 16 17 0 -2
BITMAP
419C
7FD8
7FD8
6018
6198
7FDB
6C3F
6CDB
6FDB
6DDB
6DDB
6DDB
6DD3
49D3
5BB6
97AE
66CC
ENDCHAR
STARTCHAR 52B4
ENCODING 21172
SWIDTH 1020 0
DWIDTH 17 0
BBX 16 17 0 -2
BITMAP
220C
1B8C
1B8C
19D8
4DD2
7FFF
C206
C38C
3FFC
038C
038C
060C
060C
0C0C
1818
30F8
C030
ENDCHAR
STARTCHAR 52B5
ENCODING 21173
SWIDTH 1020 0
DWIDTH 17 0
BBX 16 17 0 -2
BITMAP
11D8
19CC
19CC
31C6
3FFE
43A0
07A6
FFFF
0E30
1B9C
339F
DFFA
0398
0618
0C18
18F0
6030
ENDCHAR
STARTCHAR 52B9
ENCODING 21177
SWIDTH 1020 0
DWIDTH 17 0
BBX 16 17 0 -2
BITMAP
1C38
1830
1830
FFB0
2033
36FF
33B3
63B3
6433
9E33
0C33
1C33
1EE3
36E3
25C6
419E
860C
ENDCHAR
STARTCHAR 52BC
ENCODING 21180
SWIDTH 1020 0
DWIDTH 17 0
BBX 16 17 0 -2
BITMAP
1C1C
1818
1818
1A18
FF98
181B
1AFF
7F9B
001B
421B
7FB3
6633
6633
66E6
7EC6
619E
060C
ENDCHAR
STARTCHAR 52BE
ENCODING 21182
SWIDTH 1020 0
DWIDTH 17 0
BBX 16 17 0 -2
BITMAP
1C1C
1818
1818
1A18
FF9B
30FF
341B
CE1B
6C1B
3A1B
339B
27B3
C633
0C33
1EE6
36DE
C18C
ENDCHAR
STARTCHAR 52C1
ENCODING 21185
SWIDTH 1020 0
DWIDTH 17 0
BBX 16 17 0 -2
BITMAP
019C
FFD8
FFD8
4998
6DDB
DBBF
921B
DB9B
6DDB
24DB
FF9B
1833
1833
1FA3
F8E3
C0CE
0186
ENDCHAR
STARTCHAR 52C3
ENCODING 21187
SWIDTH 1020 0
DWIDTH 17 0
BBX 16 17 0 -2
BITMAP
1C38
1A30
1A30
FFB0
1836
59FF
7FB6
C236
C436
7E36
0C36
1836
FFA6
D8E6
18CC
79BC
1208
ENDCHAR
STARTCHAR 52C5
ENCODING 21189
SWIDTH 1020 0
DWIDTH 17 0
BBX 16 17 0 -2
BITMAP
0C1C
0D98
0D98
FFD8
0C1B
4CFF
7FDB
6DDB
6DDB
7FDB
1C33
3E33
2FB3
6CE6
4CC6
8D9E
0E0C
ENDCHAR
STARTCHAR 52C7
ENCODING 21191
SWIDTH 1020 0
DWIDTH 17 0
BBX 16 17 0 -2
BITMAP
0008
3FFC
3FFC
0018
03B0
21C4
3FFE
31CC
3FFC
31CC
3FFC
0386
FFFF
0386
0606
0C1C
700C
ENDCHAR
STARTCHAR 52C9
ENCODING 21193
SWIDTH 1020 0
DWIDTH 17 0
BBX 16 17 0 -2
BITMAP
3438
3E30
3E30
6C30
8832
11FF
FE36
D636
D636
D636
FEE6
4CE6
6CDC
6D8C
6C02
4FFF
87FE
ENDCHAR
STARTCHAR 52CD
ENCODING 21197
SWIDTH 1020 0
DWIDTH 17 0
BBX 16 17 0 -2
BITMAP
0C1C
0D98
0D98
FFD8
0018
419B
7FFF
639B
639B
7F9B
0C33
6E33
6FB3
4DA6
8CE6
3CDE
098C
ENDCHAR
STARTCHAR 52D2
ENCODING 21202
SWIDTH 1020 0
DWIDTH 17 0
BBX 16 17 0 -2
BITMAP
339C
3218
3218
FFD8
321B
3FFF
0C1B
7F9B
6D9B
6D9B
7FB3
0C33
0DB3
FFE6
0CE6
0CDE
0D8C
ENDCHAR
STARTCHAR 52D5
ENCODING 21205
SWIDTH 1020 0
DWIDTH 17 0
BBX 16 17 0 -2
BITMAP
0C38
FE30
FE30
1830
FE33
19FF
FE33
DA33
FE33
DA33
DA33
FEE3
18E3
FEE6
19C6
FDBE
E20C
ENDCHAR
STARTCHAR 52D7
ENCODING 21207
SWIDTH 1020 0
DWIDTH 17 0
BBX 16 17 0 -2
BITMAP
1004
1FFE
1FFE
180C
1FFC
180C
1FFC
4218
7F9B
66FF
7E1B
661B
7E33
6633
FFA3
F0C3
018E
ENDCHAR
STARTCHAR 52D8
ENCODING 21208
SWIDTH 1020 0
DWIDTH 17 0
BBX 16 17 0 -2
BITMAP
361C
3618
3618
FFD8
361B
3EFF
361B
3E1B
36DB
FFDB
6C1B
6DDB
77DB
63B3
6036
7FAE
60C6
ENDCHAR
STARTCHAR 52D9
ENCODING 21209
SWIDTH 1020 0
DWIDTH 17 0
BBX 16 17 0 -2
BITMAP
0230
7FB2
7FB2
06FF
44CC
3DAC
1838
0B9F
FFE6
1BB2
3C32
39FF
7836
58E6
98E6
79DC
360C
ENDCHAR
STARTCHAR 52DD
ENCODING 21213
SWIDTH 1020 0
DWIDTH 17 0
BBX 16 17 0 -2
BITMAP
459A
7DDB
7DDB
6DFB
6CDC
6DFF
7C18
6FFF
6C34
6CE7
7DB7
6FFE
6C36
6CE6
4CE6
5DDC
9A0C
ENDCHAR
STARTCHAR 52DE
ENCODING 21214
SWIDTH 1020 0
DWIDTH 17 0
BBX 16 17 0 -2
BITMAP
0808
2A2A
2A2A
6EEE
58D8
1616
2222
7FFF
C383
C394
3FF8
0618
0618
0C18
0C30
19F0
60E0
ENDCHAR
STARTCHAR 52DF
ENCODING 21215
SWIDTH 1020 0
DWIDTH 17 0
BBX 16 17 0 -2
BITMAP
0C32
FFFF
FFFF
0C30
1FF8
1818
1FF8
1818
1FF8
0606
FFFF
0DD8
1FFF
339E
C61A
0CF0
3030
ENDCHAR
STARTCHAR 52E0
ENCODING 21216
SWIDTH 1020 0
DWIDTH 17 0
BBX 16 17 0 -2
BITMAP
001C
F7D8
F7D8
73D8
B5DB
73FF
F7DB
0DDB
1C1B
37DB
D99B
3633
6C33
1BA6
66E6
0CCE
F184
ENDCHAR
STARTCHAR 52E2
ENCODING 21218
SWIDTH 1020 0
DWIDTH 17 0
BBX 16 17 0 -2
BITMAP
1838
7E32
7E32
19FF
FE36
6DF6
D626
7EF6
19DB
FF83
E386
3FFF
0606
0606
0C06
183C
E018
ENDCHAR
STARTCHAR 52E3
ENCODING 21219
SWIDTH 1020 0
DWIDTH 17 0
BBX 16 17 0 -2
BITMAP
1A1C
FF98
FF98
1818
7E18
199B
FFFF
421B
7F9B
661B
7E33
6633
7E33
6626
7EE6
77DE
C38C
ENDCHAR
STARTCHAR 52E4
ENCODING 21220
SWIDTH 1020 0
DWIDTH 17 0
BBX 16 17 0 -2
BITMAP
6C38
FFB0
FFB0
6C30
0030
FE33
B7FF
B633
FE33
3033
FE33
3033
FEE3
30E6
3FC6
F19E
C60C
ENDCHAR
STARTCHAR 52E6
ENCODING 21222
SWIDTH 1020 0
DWIDTH 17 0
BBX 16 17 0 -2
BITMAP
6DDC
4998
4998
6DD8
019B
7FFF
6D9B
7F9B
6D9B
7F9B
0C33
FFF3
1C33
3FA6
2EEE
4CC6
8D84
ENDCHAR
STARTCHAR 52E7
ENCODING 21223
SWIDTH 1020 0
DWIDTH 17 0
BBX 16 17 0 -2
BITMAP
301C
3218
3218
7FD8
D81B
18FF
FF9B
361B
6C1B
FF9B
6C1B
7F9B
6C1B
7F93
6C36
7FAE
60C6
ENDCHAR
STARTCHAR 52F2
ENCODING 21234
SWIDTH 1020 0
DWIDTH 17 0
BBX 16 17 0 -2
BITMAP
061C
7F98
7F98
0C18
FFDB
0CFF
7F9B
6D9B
7F9B
6D9B
7FB3
0C33
7FAE
0CC6
FFCC
CCE6
CCE6
ENDCHAR
STARTCHAR 52F3
ENCODING 21235
SWIDTH 1020 0
DWIDTH 17 0
BBX 16 17 0 -2
BITMAP
079C
7FD8
7FD8
0C18
FFDB
0C3F
7F9B
6F9B
5D9B
7F9B
0C13
7FB3
0DB3
FFF6
55A6
FFBE
D5CC
ENDCHAR
STARTCHAR 52F5
ENCODING 21237
SWIDTH 1020 0
DWIDTH 17 0
BBX 16 17 0 -2
BITMAP
001C
7FF8
7FF8
4018
4B98
7FDB
4BBF
5FDB
56DB
5FDB
56DB
5FDB
4613
BFD3
B5F6
BFEE
B1C4
ENDCHAR
STARTCHAR 52F8
ENCODING 21240
SWIDTH 1020 0
DWIDTH 17 0
BBX 16 17 0 -2
BITMAP
339C
FFD8
FFD8
3398
7798
559B
77FF
361B
6C1B
7FDB
B61B
3F93
3613
3FB6
3626
3FFE
30CC
ENDCHAR
STARTCHAR 52F9
ENCODING 21241
SWIDTH 1020 0
DWIDTH 17 0
BBX 16 17 0 -2
BITMAP
0800
0C00
0C00
0C06
1FFF
1806
3006
2006
4006
8006
0006
000C
000C
000C
0018
00F8
0030
ENDCHAR
STARTCHAR 52FA
ENCODING 21242
SWIDTH 1020 0
DWIDTH 17 0
BBX 16 17 0 -2
BITMAP
0C00
0C00
0C00
1806
1FFF
3006
2806
4606
8386
03C6
0186
0006
0006
000C
000C
01F8
0030
ENDCHAR
STARTCHAR 52FE
ENCODING 21246
SWIDTH 1020 0
DWIDTH 17 0
BBX 16 17 0 -2
BITMAP
0800
0C00
0C00
1806
1FFF
3006
2606
4606
8C06
0D86
08C6
13C6
7EE6
70E6
000C
00FC
0018
ENDCHAR
STARTCHAR 52FF
ENCODING 21247
SWIDTH 1020 0
DWIDTH 17 0
BBX 16 17 0 -2
BITMAP
0C00
0C00
0C00
1806
1FFF
36E6
66E6
8CE6
0CE6
18E6
11C6
61C6
038C
060C
0C0C
70F8
0030
ENDCHAR
STARTCHAR 5301
ENCODING 21249
SWIDTH 1020 0
DWIDTH 17 0
BBX 16 17 0 -2
BITMAP
0C00
0C02
0C02
0FFF
19C6
19C6
35C6
25C6
4386
8386
07CC
06EC
0C3F
181E
3032
C1F0
00E0
ENDCHAR
STARTCHAR 5302
ENCODING 21250
SWIDTH 1020 0
DWIDTH 17 0
BBX 16 17 0 -2
BITMAP
0C00
0C06
0C06
1FFF
1806
3006
78E6
99E6
1F86
1826
1826
1836
1FF6
0FEC
000C
00FC
0018
ENDCHAR
STARTCHAR 5305
ENCODING 21253
SWIDTH 1020 0
DWIDTH 17 0
BBX 16 17 0 -2
BITMAP
0C00
0C0C
0C0C
1FFE
180C
31CC
7FEC
81CC
01CC
11CC
1FCC
19D8
183A
1812
1803
1FFF
0FFE
ENDCHAR
STARTCHAR 5306
ENCODING 21254
SWIDTH 1020 0
DWIDTH 17 0
BBX 16 17 0 -2
BITMAP
0C00
0C03
0C03
1FFF
19D3
31DB
639B
9BB3
07B3
07F3
0CE3
19F6
61B6
0386
060C
183C
6018
ENDCHAR
STARTCHAR 5308
ENCODING 21256
SWIDTH 1020 0
DWIDTH 17 0
BBX 16 17 0 -2
BITMAP
1800
1803
1803
1FFF
3003
2003
71B3
B9F3
37B3
3233
37B3
39F3
3036
3FF6
3016
003C
0018
ENDCHAR
STARTCHAR 530D
ENCODING 21261
SWIDTH 1020 0
DWIDTH 17 0
BBX 16 17 0 -2
BITMAP
1800
1803
1803
3FFF
30E3
63B3
BFFB
0383
3FFB
33B3
3FF3
33B3
3FF3
33B3
33B6
33FE
33AC
ENDCHAR
STARTCHAR 530F
ENCODING 21263
SWIDTH 1020 0
DWIDTH 17 0
BBX 16 17 0 -2
BITMAP
1830
1A32
1A32
FFBF
3CE3
67C3
4ACB
BCFF
02EB
FFEB
30EF
7EFE
66EA
06E0
0CE2
3CFF
183E
ENDCHAR
STARTCHAR 5310
ENCODING 21264
SWIDTH 1020 0
DWIDTH 17 0
BBX 16 17 0 -2
BITMAP
1800
1803
1803
3FFF
3023
6FF3
8003
1FE3
18E3
1FE3
0003
3FF3
33B6
3FF6
33B6
3FFC
000C
ENDCHAR
STARTCHAR 5315
ENCODING 21269
SWIDTH 1020 0
DWIDTH 17 0
BBX 14 17 1 -2
BITMAP
3800
3000
3000
3000
3010
3038
3070
31C0
3780
3C00
F000
3000
3008
3008
300C
3FFC
1FF8
ENDCHAR
STARTCHAR 5316
ENCODING 21270
SWIDTH 1020 0
DWIDTH 17 0
BBX 16 17 0 -2
BITMAP
11E0
1DC0
1DC0
19C0
39C4
31CE
71CC
71D8
B1F0
31C0
31C0
31C0
31C2
31C2
31C3
31FF
30FE
ENDCHAR
STARTCHAR 5317
ENCODING 21271
SWIDTH 1020 0
DWIDTH 17 0
BBX 16 17 0 -2
BITMAP
0EF0
0CE0
0CE0
0CE0
0CE6
0CE6
FCEC
0CF8
0CE0
0CE0
0CE0
3CE2
ECE2
4CE3
0CFF
0C3E
0C00
ENDCHAR
STARTCHAR 5319
ENCODING 21273
SWIDTH 1020 0
DWIDTH 17 0
BBX 16 17 0 -2
BITMAP
42F0
7EE0
7EE0
66E0
7EE6
66E6
7EEC
00F8
FFE0
18E2
5AE2
5EE3
58FF
583E
7800
9FFF
87FE
ENDCHAR
STARTCHAR 531A
ENCODING 21274
SWIDTH 1020 0
DWIDTH 17 0
BBX 15 17 1 -2
BITMAP
8018
FFFC
FFFC
C000
C000
C000
C000
C000
C000
C000
C000
C000
C000
C000
C00C
FFFE
C000
ENDCHAR
STARTCHAR 531D
ENCODING 21277
SWIDTH 1020 0
DWIDTH 17 0
BBX 15 17 1 -2
BITMAP
8018
FFFC
FFFC
C000
C3C0
D398
DFFC
DB98
DB98
DB98
DB98
DBF8
DBB0
C380
C38C
FFFE
C000
ENDCHAR
STARTCHAR 5320
ENCODING 21280
SWIDTH 1020 0
DWIDTH 17 0
BBX 15 17 1 -2
BITMAP
800C
FFFE
FFFE
C000
C030
C9F8
CF80
CC08
CFFC
CC60
C860
D860
D060
E060
C00C
FFFE
C000
ENDCHAR
STARTCHAR 5321
ENCODING 21281
SWIDTH 1020 0
DWIDTH 17 0
BBX 15 17 1 -2
BITMAP
800C
FFFE
FFFE
C000
C018
DFFC
C1C0
C1D0
CFF8
C1C0
C1C0
C1D8
DFFC
C000
C00C
FFFE
C000
ENDCHAR
STARTCHAR 5323
ENCODING 21283
SWIDTH 1020 0
DWIDTH 17 0
BBX 15 17 1 -2
BITMAP
8018
FFFC
FFFC
C000
DFF8
D9D8
D9D8
DFF8
D9D8
D9D8
DFF8
D9D8
C1C0
C1C0
C1CC
FFFE
C000
ENDCHAR
STARTCHAR 532A
ENCODING 21290
SWIDTH 1020 0
DWIDTH 17 0
BBX 15 17 1 -2
BITMAP
800C
FFFE
FFFE
C000
C768
FF7C
C760
C760
DF78
C760
DF64
F77E
C460
CC60
D00C
FFFE
C000
ENDCHAR
STARTCHAR 532F
ENCODING 21295
SWIDTH 1020 0
DWIDTH 17 0
BBX 15 17 1 -2
BITMAP
8018
FFFC
FFFC
D1D8
DBB0
CFFC
EBB0
F3B0
D7F8
CBB0
CBF8
DBB0
F3B0
DBFC
D384
FFFE
C000
ENDCHAR
STARTCHAR 5331
ENCODING 21297
SWIDTH 1020 0
DWIDTH 17 0
BBX 15 17 1 -2
BITMAP
8018
FFFC
FFFC
C380
DFF8
DB98
DFF8
C388
FFFC
D818
DFF8
D818
DFF8
CC18
D80C
FFFE
C000
ENDCHAR
STARTCHAR 5333
ENCODING 21299
SWIDTH 1020 0
DWIDTH 17 0
BBX 15 17 1 -2
BITMAP
8018
FFFC
FFFC
C1C0
C3A0
C730
CC1E
F7EC
C000
DF78
DB68
DF78
CC30
DF38
E348
FFFE
C000
ENDCHAR
STARTCHAR 5338
ENCODING 21304
SWIDTH 1020 0
DWIDTH 17 0
BBX 16 16 0 -1
BITMAP
0006
FFFF
FFFF
3000
3000
3000
3000
3000
3000
3000
3000
3000
3000
3000
3FFE
1FFE
ENDCHAR
STARTCHAR 5339
ENCODING 21305
SWIDTH 1020 0
DWIDTH 17 0
BBX 15 16 1 -2
BITMAP
800C
800C
FFFE
CC60
CC60
CC60
CC60
CC68
C868
D87C
D038
E000
C000
C00C
FFFE
C000
ENDCHAR
STARTCHAR 533A
ENCODING 21306
SWIDTH 1020 0
DWIDTH 17 0
BBX 15 17 1 -2
BITMAP
800C
FFFE
FFFE
C000
C018
D818
C730
C3B0
C1E0
C1E0
C3B0
C738
CC18
F010
C00C
FFFE
C000
ENDCHAR
STARTCHAR 533B
ENCODING 21307
SWIDTH 1020 0
DWIDTH 17 0
BBX 15 17 1 -2
BITMAP
800C
FFFE
FFFE
C000
C730
C7F8
CDC0
C9C0
C1D8
DFFC
C3B0
C398
C70C
D80C
C000
FFFE
C000
ENDCHAR
STARTCHAR 533F
ENCODING 21311
SWIDTH 1020 0
DWIDTH 17 0
BBX 15 17 1 -2
BITMAP
800C
FFFE
FFFE
C730
DFFC
C730
C1C4
FFFE
C380
C7F8
DC18
FC18
CFF8
CC18
C00C
FFFE
C000
ENDCHAR
STARTCHAR 5340
ENCODING 21312
SWIDTH 1020 0
DWIDTH 17 0
BBX 15 17 1 -2
BITMAP
8018
FFFC
FFFC
C000
CFF0
CC30
CC30
CFF0
C000
DF7C
DB6C
DB6C
DF7C
DB6C
C00C
FFFE
C000
ENDCHAR
STARTCHAR 5341
ENCODING 21313
SWIDTH 1020 0
DWIDTH 17 0
BBX 16 17 0 -2
BITMAP
01E0
01C0
01C0
01C0
01C0
01C0
01C6
FFFF
01C0
01C0
01C0
01C0
01C0
01C0
01C0
01C0
01C0
ENDCHAR
STARTCHAR 5343
ENCODING 21315
SWIDTH 1020 0
DWIDTH 17 0
BBX 16 17 0 -2
BITMAP
0038
03FC
03FC
3FC0
01C0
01C0
01C0
01C6
FFFF
01C0
01C0
01C0
01C0
01C0
01C0
01C0
01C0
ENDCHAR
STARTCHAR 5345
ENCODING 21317
SWIDTH 1020 0
DWIDTH 17 0
BBX 16 17 0 -2
BITMAP
1DEE
19CC
19CC
19CC
19CC
19CC
19CE
FFFF
19CC
19CC
19CC
19CC
19CC
11CC
31CC
21CC
C1CC
ENDCHAR
STARTCHAR 5346
ENCODING 21318
SWIDTH 1020 0
DWIDTH 17 0
BBX 16 17 0 -2
BITMAP
0600
0618
0618
7FFC
0618
0618
0C1A
0C1A
181F
31EE
C1C0
01C6
FFFF
01C0
01C0
01C0
01C0
ENDCHAR
STARTCHAR 5347
ENCODING 21319
SWIDTH 1020 0
DWIDTH 17 0
BBX 16 17 0 -2
BITMAP
039C
0FD8
0FD8
7C18
0C18
0C18
0C18
0C1A
FFFF
0C18
0C18
0C18
1818
1818
3018
2018
C018
ENDCHAR
STARTCHAR 5348
ENCODING 21320
SWIDTH 1020 0
DWIDTH 17 0
BBX 16 17 0 -2
BITMAP
0C00
0C00
0C00
180C
1FFE
31C0
21C0
41C0
01C6
FFFF
01C0
01C0
01C0
01C0
01C0
01C0
01C0
ENDCHAR
STARTCHAR 5349
ENCODING 21321
SWIDTH 1020 0
DWIDTH 17 0
BBX 16 17 0 -2
BITMAP
01E0
01CC
01CC
7FFE
01C0
1DDC
19D8
19D8
181A
FFFF
1818
1818
1818
3018
3018
2018
C018
ENDCHAR
STARTCHAR 534A
ENCODING 21322
SWIDTH 1020 0
DWIDTH 17 0
BBX 16 17 0 -2
BITMAP
01E0
11C4
11C4
09CE
0DCC
0DD0
01D4
7FFE
01C0
01C0
01C6
FFFF
01C0
01C0
01C0
01C0
01C0
ENDCHAR
STARTCHAR 534D
ENCODING 21325
SWIDTH 1020 0
DWIDTH 17 0
BBX 16 17 0 -2
BITMAP
01C0
FFE7
FFE7
01C6
01C6
01C6
01C6
41C6
7FFE
61C6
61C0
61C0
61C0
61C0
61C6
61FF
61C0
ENDCHAR
STARTCHAR 5351
ENCODING 21329
SWIDTH 1020 0
DWIDTH 17 0
BBX 16 17 0 -2
BITMAP
0600
2C0C
2C0C
3FFE
31CC
31CC
3FFC
31CC
31CC
3FFC
0CE0
18E6
FFFF
00E0
00E0
00E0
00E0
ENDCHAR
STARTCHAR 5352
ENCODING 21330
SWIDTH 1020 0
DWIDTH 17 0
BBX 16 17 0 -2
BITMAP
01E0
01C0
01C0
01C6
FFFF
1818
1818
3C3C
2626
C6C4
01C6
FFFF
01C0
01C0
01C0
01C0
01C0
ENDCHAR
STARTCHAR 5353
ENCODING 21331
SWIDTH 1020 0
DWIDTH 17 0
BBX 16 17 0 -2
BITMAP
01C4
01FE
01FE
01C0
21CC
3FFE
300C
300C
3FFC
300C
300C
3FFC
31CC
01C6
FFFF
01C0
01C0
ENDCHAR
STARTCHAR 5354
ENCODING 21332
SWIDTH 1020 0
DWIDTH 17 0
BBX 16 17 0 -2
BITMAP
3830
3032
3032
37FF
30E6
FCE6
31C6
379C
3388
33AD
3FFF
32EB
32EB
32EB
36FB
37DE
39A4
ENDCHAR
STARTCHAR 5357
ENCODING 21335
SWIDTH 1020 0
DWIDTH 17 0
BBX 16 17 0 -2
BITMAP
01E0
01C6
01C6
FFFF
01C0
41C6
7FFF
6426
66F6
62C6
6FF6
61C6
61C6
7FFE
61C6
61DE
61CC
ENDCHAR
STARTCHAR 5358
ENCODING 21336
SWIDTH 1020 0
DWIDTH 17 0
BBX 16 17 0 -2
BITMAP
1B98
0DD8
0DD8
2DD4
3FFE
31CC
31CC
3FFC
31CC
31CC
3FFC
31CC
01C6
FFFF
01C0
01C0
01C0
ENDCHAR
STARTCHAR 535A
ENCODING 21338
SWIDTH 1020 0
DWIDTH 17 0
BBX 16 17 0 -2
BITMAP
3834
3036
3036
33FF
3030
FFFE
33B6
33FE
33B6
33FE
300C
37FF
320C
31CC
31CC
303C
3018
ENDCHAR
STARTCHAR 535C
ENCODING 21340
SWIDTH 1020 0
DWIDTH 17 0
BBX 9 17 6 -2
BITMAP
F000
E000
E000
E000
E000
E000
F800
EE00
E700
E380
E180
E000
E000
E000
E000
E000
E000
ENDCHAR
STARTCHAR 535E
ENCODING 21342
SWIDTH 1020 0
DWIDTH 17 0
BBX 16 17 0 -2
BITMAP
01E0
01C0
01C0
01C6
FFFF
01C0
01C0
01C0
01F0
01DC
01CE
01C6
01C0
01C0
01C0
01C0
01C0
ENDCHAR
STARTCHAR 5360
ENCODING 21344
SWIDTH 1020 0
DWIDTH 17 0
BBX 13 17 2 -2
BITMAP
0F00
0E00
0E00
0E30
0FF8
0E00
0E00
0E00
8E30
FFF8
C030
C030
C030
C030
C030
FFF0
C030
ENDCHAR
STARTCHAR 5366
ENCODING 21350
SWIDTH 1020 0
DWIDTH 17 0
BBX 16 17 0 -2
BITMAP
1C38
1830
1830
7FB0
1830
1830
1BB8
FFF6
0033
1C33
1830
7FB0
1830
1830
1FF0
F830
C030
ENDCHAR
STARTCHAR 5369
ENCODING 21353
SWIDTH 1020 0
DWIDTH 17 0
BBX 10 17 4 -2
BITMAP
8180
FFC0
FFC0
C180
C180
C180
C180
C180
C180
C180
C180
C180
DF80
C300
C000
C000
C000
ENDCHAR
STARTCHAR 536E
ENCODING 21358
SWIDTH 1020 0
DWIDTH 17 0
BBX 16 17 0 -2
BITMAP
001C
21FE
21FE
3F80
3006
3FFF
3000
3418
37FC
3618
3618
3618
263A
6612
4603
87FF
03FE
ENDCHAR
STARTCHAR 536F
ENCODING 21359
SWIDTH 1020 0
DWIDTH 17 0
BBX 16 17 0 -2
BITMAP
0623
4FBF
4FBF
7833
67B3
6633
6633
6633
6633
6633
6633
7E33
F633
C63F
0C32
1830
6030
ENDCHAR
STARTCHAR 5370
ENCODING 21360
SWIDTH 1020 0
DWIDTH 17 0
BBX 15 17 1 -2
BITMAP
0C00
9F86
9F86
F1FE
C1C6
C1C6
C9C6
FDC6
C1C6
C1C6
C1C6
C1C6
CDE6
FFDE
C3CC
C1C0
01C0
ENDCHAR
STARTCHAR 5371
ENCODING 21361
SWIDTH 1020 0
DWIDTH 17 0
BBX 16 17 0 -2
BITMAP
0610
07F8
07F8
0C30
18E0
3186
FFFF
3000
3418
37FC
3618
3618
363A
261A
6603
47FF
83FE
ENDCHAR
STARTCHAR 5373
ENCODING 21363
SWIDTH 1020 0
DWIDTH 17 0
BBX 16 17 0 -2
BITMAP
4223
7FBF
7FBF
6633
6633
7E33
6633
6633
6633
7E33
6433
6433
6233
6E3F
F3B2
C3B0
0030
ENDCHAR
STARTCHAR 5374
ENCODING 21364
SWIDTH 1020 0
DWIDTH 17 0
BBX 16 17 0 -2
BITMAP
1C23
183F
183F
1A33
7FB3
1833
1833
1BB3
FFF3
1833
3433
3633
223F
3FB6
F3B0
C030
0030
ENDCHAR
STARTCHAR 5375
ENCODING 21365
SWIDTH 1020 0
DWIDTH 17 0
BBX 16 17 0 -2
BITMAP
0623
4FBF
4FBF
7C33
63B3
73BB
7BBF
6FB7
6BB7
63B3
63B3
7FB3
F3B3
C63F
0636
0C30
3030
ENDCHAR
STARTCHAR 5377
ENCODING 21367
SWIDTH 1020 0
DWIDTH 17 0
BBX 16 17 0 -2
BITMAP
11C0
19D8
19D8
31CE
7FF6
83C0
03A6
FFFF
0610
0C1C
1FFF
3C36
CC32
0CF4
0C06
0FFE
07FC
ENDCHAR
STARTCHAR 5378
ENCODING 21368
SWIDTH 1020 0
DWIDTH 17 0
BBX 16 17 0 -2
BITMAP
60C6
66FF
66FF
7FE6
D8E6
98E6
1AE6
FFE6
18E6
1AE6
DFE6
D8E6
D8FE
DFEC
FCE0
E0E0
00E0
ENDCHAR
STARTCHAR 537B
ENCODING 21371
SWIDTH 1020 0
DWIDTH 17 0
BBX 16 17 0 -2
BITMAP
2622
33BF
33BF
63B3
4C33
9C33
1A33
33F3
63B3
FFB3
6633
6633
663F
6632
7E30
6630
0030
ENDCHAR
STARTCHAR 537F
ENCODING 21375
SWIDTH 1020 0
DWIDTH 17 0
BBX 16 17 0 -2
BITMAP
1800
5C29
5C29
77FF
46ED
57ED
56ED
56ED
57ED
56ED
F78D
D6CD
36EF
2FED
662C
440C
800C
ENDCHAR
STARTCHAR 5382
ENCODING 21378
SWIDTH 1020 0
DWIDTH 17 0
BBX 16 17 0 -2
BITMAP
2006
3FFF
3FFF
3000
3000
3000
3000
3000
3000
3000
3000
3000
2000
6000
6000
4000
8000
ENDCHAR
STARTCHAR 5384
ENCODING 21380
SWIDTH 1020 0
DWIDTH 17 0
BBX 16 16 0 -1
BITMAP
2006
3FFF
3FFF
3000
320C
33FE
338C
338C
338C
338C
33BC
338A
2382
6383
43FF
81FE
ENDCHAR
STARTCHAR 5396
ENCODING 21398
SWIDTH 1020 0
DWIDTH 17 0
BBX 16 17 0 -2
BITMAP
4006
7FFF
7FFF
63E0
63B0
6380
7FF4
638E
67DC
67C6
67CE
65DB
6DC6
6DDC
49C2
51FF
80FE
ENDCHAR
STARTCHAR 5398
ENCODING 21400
SWIDTH 1020 0
DWIDTH 17 0
BBX 16 16 0 -1
BITMAP
2002
3FFF
3FFF
3000
37FC
36EC
37FC
36EC
36EC
37FC
30E0
30E8
27FC
60E0
40E6
9FFF
ENDCHAR
STARTCHAR 539A
ENCODING 21402
SWIDTH 1020 0
DWIDTH 17 0
BBX 16 17 0 -2
BITMAP
2006
3FFF
3FFF
3000
37FC
360C
37FC
360C
37FC
3008
37FC
301A
2FFF
60E0
40E0
87E0
01C0
ENDCHAR
STARTCHAR 539F
ENCODING 21407
SWIDTH 1020 0
DWIDTH 17 0
BBX 16 17 0 -2
BITMAP
2006
3FFF
3FFF
30E0
35CC
37FE
360C
360C
37FC
360C
360C
37FC
32E0
26EC
66E6
4DE6
91C0
ENDCHAR
STARTCHAR 53A0
ENCODING 21408
SWIDTH 1020 0
DWIDTH 17 0
BBX 16 17 0 -2
BITMAP
4006
7FFF
7FFF
6000
6FC7
6DD6
6DD6
6FD6
6DD6
6DD6
6FD6
6DD6
6DD6
6FD6
4DC6
58EE
A0E4
ENDCHAR
STARTCHAR 53A5
ENCODING 21413
SWIDTH 1020 0
DWIDTH 17 0
BBX 16 17 0 -2
BITMAP
4006
7FFF
7FFF
68D8
6DD8
659A
6FFF
622A
6ADC
6AD8
6ADC
6FDC
6AD4
4636
4427
88C2
1382
ENDCHAR
STARTCHAR 53A6
ENCODING 21414
SWIDTH 1020 0
DWIDTH 17 0
BBX 16 17 0 -2
BITMAP
4006
7FFF
7FFF
6004
7FFE
6380
6FF8
6C18
6FF8
6C18
6FF8
6390
67F8
5E30
41F0
47DF
BC06
ENDCHAR
STARTCHAR 53A8
ENCODING 21416
SWIDTH 1020 0
DWIDTH 17 0
BBX 16 17 0 -2
BITMAP
4002
7FFF
7FFF
6000
618C
7FCC
600C
6F8C
6DFF
6DAC
6DBC
6F8C
638C
4A0C
4FCC
9E3C
1818
ENDCHAR
STARTCHAR 53A9
ENCODING 21417
SWIDTH 1020 0
DWIDTH 17 0
BBX 16 17 0 -2
BITMAP
4006
7FFF
7FFF
6000
6FFE
6DAC
6FAC
6DAC
6DAC
6FFF
6E1C
6D9C
6DDD
4FFD
5E2E
8CEF
0186
ENDCHAR
STARTCHAR 53AD
ENCODING 21421
SWIDTH 1020 0
DWIDTH 17 0
BBX 16 17 0 -2
BITMAP
4006
7FFF
7FFF
6000
6F9C
6D9E
6F9A
6D9A
6FFF
6018
6F98
6D9C
6F94
4DB6
4FB7
8DA2
0DC2
ENDCHAR
STARTCHAR 53AE
ENCODING 21422
SWIDTH 1020 0
DWIDTH 17 0
BBX 16 17 0 -2
BITMAP
4006
7FFF
7FFF
6000
6D82
6DAF
7FFC
6DB0
6FB2
6DBF
6FB6
6DB6
5FF6
4BA6
59E6
90C6
2186
ENDCHAR
STARTCHAR 53B0
ENCODING 21424
SWIDTH 1020 0
DWIDTH 17 0
BBX 16 17 0 -2
BITMAP
4006
7FFF
7FFF
6600
6FD8
7EF8
761A
6FDF
69F6
69D6
6FD6
6BDC
6BCC
6FCC
49DF
4BD6
89E2
ENDCHAR
STARTCHAR 53B3
ENCODING 21427
SWIDTH 1020 0
DWIDTH 17 0
BBX 16 17 0 -2
BITMAP
098C
4DDA
4DDA
7FFF
6010
6198
7FF2
663F
7FEC
6BEC
6FAC
6B9C
6F98
6B9C
5FB7
5BA6
83C2
ENDCHAR
STARTCHAR 53B6
ENCODING 21430
SWIDTH 1020 0
DWIDTH 17 0
BBX 16 16 0 -1
BITMAP
0180
01C0
01C0
01C0
0380
0380
0380
0200
0610
0408
0408
0C04
0806
11FE
FFC3
F003
ENDCHAR
STARTCHAR 53BB
ENCODING 21435
SWIDTH 1020 0
DWIDTH 17 0
BBX 16 17 0 -2
BITMAP
01E0
01C0
01C0
01CC
7FFE
01C0
01C0
01C0
01C6
FFFF
0380
0388
0608
0404
0DFE
7F86
7806
ENDCHAR
STARTCHAR 53C2
ENCODING 21442
SWIDTH 1020 0
DWIDTH 17 0
BBX 16 17 0 -2
BITMAP
0390
0608
0608
7FFC
79CC
01C2
FFFF
0610
0CD8
19EF
3386
CCF2
01E0
0F88
003C
01F0
1F80
ENDCHAR
STARTCHAR 53C3
ENCODING 21443
SWIDTH 1020 0
DWIDTH 17 0
BBX 16 17 0 -2
BITMAP
0610
0C0C
0C0C
7FFE
7E1A
1412
FEFF
E3BB
07E0
0DB8
3BDF
C7A6
3CF0
03C8
3E1C
01F0
7F80
ENDCHAR
STARTCHAR 53C8
ENCODING 21448
SWIDTH 1020 0
DWIDTH 17 0
BBX 16 16 0 -2
BITMAP
000C
000C
7FFE
080C
0818
0418
0430
0230
02E0
01C0
01C0
03E0
0638
0C1F
3006
C002
ENDCHAR
STARTCHAR 53C9
ENCODING 21449
SWIDTH 1020 0
DWIDTH 17 0
BBX 16 16 0 -2
BITMAP
000C
000C
7FFE
0A0C
09CC
09D8
0418
0630
0230
03E0
01C0
03E0
0638
0C1F
3006
C002
ENDCHAR
STARTCHAR 53CA
ENCODING 21450
SWIDTH 1020 0
DWIDTH 17 0
BBX 16 17 0 -2
BITMAP
0030
7FF8
7FF8
0C30
0C30
0C30
0CEC
0EFE
0EEC
0B8C
198C
19D8
10F0
3038
20FF
43CE
8C02
ENDCHAR
STARTCHAR 53CB
ENCODING 21451
SWIDTH 1020 0
DWIDTH 17 0
BBX 16 17 0 -2
BITMAP
03C0
0380
0380
0386
FFFF
0380
0380
0398
07FC
0798
0DB0
0DB0
18E0
31F0
C39F
060E
3802
ENDCHAR
STARTCHAR 53CC
ENCODING 21452
SWIDTH 1020 0
DWIDTH 17 0
BBX 16 17 0 -2
BITMAP
0C0C
FFFE
FFFE
0D8C
0D8C
8D8C
6CCC
38CC
18D8
1C38
1E30
3638
30F8
20EC
61CF
4386
8C02
ENDCHAR
STARTCHAR 53CD
ENCODING 21453
SWIDTH 1020 0
DWIDTH 17 0
BBX 16 17 0 -2
BITMAP
2006
3FFF
3FFF
3000
3000
3018
3FFC
3418
3418
3230
3230
31E0
60E0
61F0
439F
8C0E
3002
ENDCHAR
STARTCHAR 53CE
ENCODING 21454
SWIDTH 1020 0
DWIDTH 17 0
BBX 16 17 0 -2
BITMAP
0E00
0C0C
0C0C
6FFE
6D8C
6D8C
6D8C
6CCC
6CD8
6CD8
6C38
FC30
CC38
0CEC
0CCF
0D86
0E02
ENDCHAR
STARTCHAR 53D4
ENCODING 21460
SWIDTH 1020 0
DWIDTH 17 0
BBX 16 17 0 -2
BITMAP
1C00
180C
180C
19FE
1ECC
18CC
1ACC
FFAC
1828
5C38
7A18
7BB0
5BB8
58EC
98CF
3986
3602
ENDCHAR
STARTCHAR 53D6
ENCODING 21462
SWIDTH 1020 0
DWIDTH 17 0
BBX 16 17 0 -2
BITMAP
0180
FFC0
FFC0
360C
37FE
3ECC
36CC
362C
3E2C
3638
3618
3618
3E38
F62C
C6E7
06C6
0782
ENDCHAR
STARTCHAR 53D7
ENCODING 21463
SWIDTH 1020 0
DWIDTH 17 0
BBX 16 17 0 -2
BITMAP
003C
7FFE
7FFE
120C
1B98
4DD2
7FFF
C006
C034
3FF8
0430
02E0
03C0
03F0
0E3F
380E
C002
ENDCHAR
STARTCHAR 53D9
ENCODING 21465
SWIDTH 1020 0
DWIDTH 17 0
BBX 16 17 0 -2
BITMAP
1800
1C0C
1C0C
37FE
36CC
60CC
7ECC
982C
1A2C
FFA8
1838
5E18
7B98
7BBC
582F
98C6
1B82
ENDCHAR
STARTCHAR 53DB
ENCODING 21467
SWIDTH 1020 0
DWIDTH 17 0
BBX 16 17 0 -2
BITMAP
1D86
99FF
99FF
5BC0
7FC0
59CC
19FE
FFCC
19CC
1BEC
FDAC
DB98
1218
363C
64E7
49C6
8602
ENDCHAR
STARTCHAR 53DF
ENCODING 21471
SWIDTH 1020 0
DWIDTH 17 0
BBX 16 17 0 -2
BITMAP
2DE2
3DDF
3DDF
31C6
31C6
3DDE
31C6
31C6
3FFE
01C8
7FFC
0818
0430
06E0
03E0
0EFF
F01E
ENDCHAR
STARTCHAR 53E1
ENCODING 21473
SWIDTH 1020 0
DWIDTH 17 0
BBX 16 17 0 -2
BITMAP
1F86
59BF
59BF
7FE6
C3A6
BE26
5996
5DD6
B6D4
3FDC
739C
BF88
321C
3E1C
3237
3E26
33C2
ENDCHAR
STARTCHAR 53E2
ENCODING 21474
SWIDTH 1020 0
DWIDTH 17 0
BBX 16 17 0 -2
BITMAP
26EC
36EA
36EA
FFFF
0630
3FFC
01C0
1FF8
01C6
FFFF
6604
7FFE
66CC
7E38
663F
FEE6
C782
ENDCHAR
STARTCHAR 53E3
ENCODING 21475
SWIDTH 1020 0
DWIDTH 17 0
BBX 13 15 2 -1
BITMAP
8030
8030
FFF8
C030
C030
C030
C030
C030
C030
C030
C030
C030
C030
FFF0
C030
ENDCHAR
STARTCHAR 53E4
ENCODING 21476
SWIDTH 1020 0
DWIDTH 17 0
BBX 16 17 0 -2
BITMAP
01E0
01C0
01C0
01C6
FFFF
01C0
01C0
01C0
21CC
3FFE
300C
300C
300C
300C
300C
3FFC
300C
ENDCHAR
STARTCHAR 53E5
ENCODING 21477
SWIDTH 1020 0
DWIDTH 17 0
BBX 16 17 0 -2
BITMAP
0C00
0C00
0C00
1803
1FFF
3003
70E3
9FF3
18E3
18E3
18E3
18E3
1FE3
18E3
1806
001E
000C
ENDCHAR
STARTCHAR 53E8
ENCODING 21480
SWIDTH 1020 0
DWIDTH 17 0
BBX 16 17 0 -2
BITMAP
0006
8BFF
8BFF
FEE6
CCE6
CCE6
CCE6
CCE6
CCE6
CDC6
FDC6
CDC6
C18C
038C
020C
0438
1818
ENDCHAR
STARTCHAR 53E9
ENCODING 21481
SWIDTH 1020 0
DWIDTH 17 0
BBX 16 17 0 -2
BITMAP
8CC3
FEFF
FEFF
CCE3
CCE3
CCE3
CCE3
CCE3
CCE3
CCE3
CCE3
FCE3
CCEF
C0E6
00E0
00E0
00E0
ENDCHAR
STARTCHAR 53EA
ENCODING 21482
SWIDTH 1020 0
DWIDTH 17 0
BBX 16 17 0 -2
BITMAP
100C
1FFE
1FFE
180C
180C
180C
180C
180C
180C
1FFC
180C
0410
0E08
0C0C
1806
3003
C003
ENDCHAR
STARTCHAR 53EB
ENCODING 21483
SWIDTH 1020 0
DWIDTH 17 0
BBX 16 17 0 -2
BITMAP
000E
000C
000C
99EC
FDCC
D9CC
D9CC
D9CC
D9CC
D9CC
D9CF
F9DE
D9FC
C78C
000C
000C
000C
ENDCHAR
STARTCHAR 53EC
ENCODING 21484
SWIDTH 1020 0
DWIDTH 17 0
BBX 16 17 0 -2
BITMAP
0006
FFFF
FFFF
0606
0C06
0C06
180C
30FC
C018
200C
3FFE
300C
300C
300C
300C
3FFC
300C
ENDCHAR
STARTCHAR 53ED
ENCODING 21485
SWIDTH 1020 0
DWIDTH 17 0
BBX 16 17 0 -2
BITMAP
0008
883C
883C
FD88
C9C8
C9C8
C9C8
C9C8
C9C8
CB8C
FB8C
CB8C
C204
0606
0407
0806
3002
ENDCHAR
STARTCHAR 53EE
ENCODING 21486
SWIDTH 1020 0
DWIDTH 17 0
BBX 16 17 0 -2
BITMAP
0006
8BFF
8BFF
FE18
CC18
CC18
CC18
CC18
CC18
CC18
CC18
FC18
CC18
C018
0018
00F8
0030
ENDCHAR
STARTCHAR 53EF
ENCODING 21487
SWIDTH 1020 0
DWIDTH 17 0
BBX 16 16 0 -2
BITMAP
0006
0006
FFFF
000C
11CC
1FEC
19CC
19CC
19CC
19CC
1FCC
19CC
180C
000C
00FC
0018
ENDCHAR
STARTCHAR 53F0
ENCODING 21488
SWIDTH 1020 0
DWIDTH 17 0
BBX 16 17 0 -2
BITMAP
0380
0380
0380
0608
0404
0806
FFFE
7F87
0002
200C
3FFE
300C
300C
300C
300C
3FFC
300C
ENDCHAR
STARTCHAR 53F1
ENCODING 21489
SWIDTH 1020 0
DWIDTH 17 0
BBX 16 17 0 -2
BITMAP
01E0
01C0
01C0
99C0
FDC2
D9C7
D9DC
D9E0
DBC0
DDC0
F9C0
D9C0
C1C2
01C2
01C3
01FF
00FE
ENDCHAR
STARTCHAR 53F2
ENCODING 21490
SWIDTH 1020 0
DWIDTH 17 0
BBX 16 17 0 -2
BITMAP
01E0
01C0
01C0
41C6
7FFF
61C6
61C6
61C6
7FFE
51C6
09C0
0780
0380
07E0
0CFF
381E
C002
ENDCHAR
STARTCHAR 53F3
ENCODING 21491
SWIDTH 1020 0
DWIDTH 17 0
BBX 16 17 0 -2
BITMAP
03C0
0380
0380
0386
FFFF
0600
0600
0C00
0C0C
1FFE
3C0C
CC0C
0C0C
0C0C
0C0C
0FFC
0C0C
ENDCHAR
STARTCHAR 53F6
ENCODING 21494
SWIDTH 1020 0
DWIDTH 17 0
BBX 15 17 1 -2
BITMAP
0038
0030
0030
8C30
FF30
CC30
CC34
CFFE
CC30
CC30
CC30
FC30
CC30
C030
0030
0030
0030
ENDCHAR
STARTCHAR 53F7
ENCODING 21495
SWIDTH 1020 0
DWIDTH 17 0
BBX 16 17 0 -2
BITMAP
1018
1FFC
1FFC
1818
1818
1818
1FF8
0006
FFFF
0600
0C18
0FFC
1818
0018
0030
03F0
00E0
ENDCHAR
STARTCHAR 53F8
ENCODING 21496
SWIDTH 1020 0
DWIDTH 17 0
BBX 16 17 0 -2
BITMAP
0006
FFFF
FFFF
0006
00E6
3FF6
0006
10C6
1FE6
19C6
19C6
19C6
1FC6
19C6
0006
003E
000C
ENDCHAR
STARTCHAR 53FA
ENCODING 21498
SWIDTH 1020 0
DWIDTH 17 0
BBX 16 17 0 -2
BITMAP
0020
8DF0
8DF0
FE20
CC20
CC20
CC20
CC20
CC30
CCF0
FCF0
CDD8
C1D8
038C
060F
0C06
3002
ENDCHAR
STARTCHAR 5401
ENCODING 21505
SWIDTH 1020 0
DWIDTH 17 0
BBX 16 17 0 -2
BITMAP
0004
8BFE
8BFE
FC18
CC18
CC18
CC18
CC1A
CFFF
CC18
CC18
FC18
CC18
C018
0018
00F8
0030
ENDCHAR
STARTCHAR 5403
ENCODING 21507
SWIDTH 1020 0
DWIDTH 17 0
BBX 16 17 0 -2
BITMAP
01C0
01C0
01C0
8B86
FBFF
DA00
DC0C
DBFE
D80C
D818
D830
F8E0
D9C2
C382
0383
03FF
01FE
ENDCHAR
STARTCHAR 5404
ENCODING 21508
SWIDTH 1020 0
DWIDTH 17 0
BBX 16 17 0 -2
BITMAP
0200
0398
0398
07FC
0C18
1C30
72E0
03C0
03F0
0E3F
381E
DFFA
1818
1818
1818
1FF8
1818
ENDCHAR
STARTCHAR 5408
ENCODING 21512
SWIDTH 1020 0
DWIDTH 17 0
BBX 16 17 0 -2
BITMAP
01C0
03C0
03C0
03A0
0630
0C18
180F
3036
CFFA
0000
1018
1FFC
1818
1818
1818
1FF8
1818
ENDCHAR
STARTCHAR 5409
ENCODING 21513
SWIDTH 1020 0
DWIDTH 17 0
BBX 16 17 0 -2
BITMAP
01E0
01C0
01C0
01C6
FFFF
01C0
01C0
01CC
7FFE
0000
200C
3FFE
300C
300C
300C
3FFC
300C
ENDCHAR
STARTCHAR 540A
ENCODING 21514
SWIDTH 1020 0
DWIDTH 17 0
BBX 15 17 1 -2
BITMAP
4018
7FFC
7FFC
6018
6018
6018
7FF8
0380
838C
FFFE
C38C
C38C
C38C
C38C
C3BC
C398
0380
ENDCHAR
STARTCHAR 540B
ENCODING 21515
SWIDTH 1020 0
DWIDTH 17 0
BBX 16 17 0 -2
BITMAP
000E
000C
000C
8C0C
FE0C
CC0E
CFFF
CC0C
CF8C
CDCC
CDCC
FC0C
CC0C
C00C
000C
003C
0018
ENDCHAR
STARTCHAR 540C
ENCODING 21516
SWIDTH 1020 0
DWIDTH 17 0
BBX 15 17 1 -2
BITMAP
800C
FFFE
FFFE
C00C
C04C
DFEC
C00C
D06C
DFEC
D86C
D86C
D86C
DFEC
D86C
C00C
C03C
C018
ENDCHAR
STARTCHAR 540D
ENCODING 21517
SWIDTH 1020 0
DWIDTH 17 0
BBX 16 17 0 -2
BITMAP
0380
0388
0388
07FC
0E18
1818
6E30
03E0
03C0
0386
07FF
1E06
3606
C606
0606
07FE
0606
ENDCHAR
STARTCHAR 540E
ENCODING 21518
SWIDTH 1020 0
DWIDTH 17 0
BBX 16 17 0 -2
BITMAP
0018
21FC
21FC
3F80
3000
3006
3FFF
3000
340C
37FE
360C
360C
260C
660C
460C
87FC
060C
ENDCHAR
STARTCHAR 540F
ENCODING 21519
SWIDTH 1020 0
DWIDTH 17 0
BBX 16 17 0 -2
BITMAP
01E0
01C6
01C6
FFFF
01C0
3FFC
31CC
31CC
3FFC
11CC
09C0
0B80
0780
07E0
0CFF
181E
E002
ENDCHAR
STARTCHAR 5410
ENCODING 21520
SWIDTH 1020 0
DWIDTH 17 0
BBX 16 16 0 -1
BITMAP
0038
8C30
8C30
FE30
CC30
CC34
CFFE
CC30
CC30
CC30
CC30
FC30
CC30
C030
0036
0FFF
ENDCHAR
STARTCHAR 5411
ENCODING 21521
SWIDTH 1020 0
DWIDTH 17 0
BBX 15 17 1 -2
BITMAP
0380
0380
0380
8706
FFFE
C006
C826
CFF6
CC66
CC66
CC66
CC66
CFE6
CC66
C006
C01E
C00C
ENDCHAR
STARTCHAR 541B
ENCODING 21531
SWIDTH 1020 0
DWIDTH 17 0
BBX 16 17 0 -2
BITMAP
0018
3FFC
3FFC
0618
061A
FFFF
0618
0618
3FF8
0C18
0C0C
1FFE
3C0C
CC0C
0C0C
0FFC
0C0C
ENDCHAR
STARTCHAR 541D
ENCODING 21533
SWIDTH 1020 0
DWIDTH 17 0
BBX 16 17 0 -2
BITMAP
01E0
01C6
01C6
FFFF
0830
04E0
06E0
03C0
06F0
1C3F
E00E
1FF8
1818
1818
1818
1FF8
1818
ENDCHAR
STARTCHAR 541F
ENCODING 21535
SWIDTH 1020 0
DWIDTH 17 0
BBX 16 17 0 -2
BITMAP
0030
8830
8830
FCE8
D8EC
D9CF
DB86
DDFA
D800
D80C
DBFE
F80C
D818
C018
0030
0030
00E0
ENDCHAR
STARTCHAR 5420
ENCODING 21536
SWIDTH 1020 0
DWIDTH 17 0
BBX 16 17 0 -2
BITMAP
0030
983C
983C
FC36
D836
D832
DFFF
D830
D830
D830
D8E8
F8E8
D8CC
C1CC
0187
0206
0C02
ENDCHAR
STARTCHAR 5426
ENCODING 21542
SWIDTH 1020 0
DWIDTH 17 0
BBX 16 17 0 -2
BITMAP
0006
FFFF
FFFF
01C0
03D8
07CE
0DC3
31C3
C1C0
11CC
1FFE
180C
180C
180C
180C
1FFC
180C
ENDCHAR
STARTCHAR 5429
ENCODING 21545
SWIDTH 1020 0
DWIDTH 17 0
BBX 16 17 0 -2
BITMAP
0010
89B8
89B8
FDD0
D9D8
D9C8
DB8C
DA07
DC06
DBFE
F9CC
D9CC
C1CC
038C
0398
06F8
1830
ENDCHAR
STARTCHAR 542B
ENCODING 21547
SWIDTH 1020 0
DWIDTH 17 0
BBX 16 17 0 -2
BITMAP
0380
03C0
03C0
0620
0C30
1BD8
302F
CFF6
0032
00E0
21CC
3FFE
300C
300C
300C
3FFC
300C
ENDCHAR
STARTCHAR 542C
ENCODING 21548
SWIDTH 1020 0
DWIDTH 17 0
BBX 16 17 0 -2
BITMAP
0004
859E
859E
FFF8
CDC0
CDC0
CDC6
CDFF
CDCC
CDCC
FDCC
CDCC
C18C
038C
020C
040C
080C
ENDCHAR
STARTCHAR 542D
ENCODING 21549
SWIDTH 1020 0
DWIDTH 17 0
BBX 16 17 0 -2
BITMAP
0038
9830
9830
FC36
DFFF
D800
DA18
DBFC
DB98
DB98
FB98
DB98
C39A
061A
061B
0C1F
300E
ENDCHAR
STARTCHAR 542E
ENCODING 21550
SWIDTH 1020 0
DWIDTH 17 0
BBX 16 17 0 -2
BITMAP
00E0
88E0
88E0
FCE0
D9CC
D986
D9BF
DFFB
DFD8
D9D8
F9D8
D9D8
C39A
039A
061B
0C1F
300E
ENDCHAR
STARTCHAR 5436
ENCODING 21558
SWIDTH 1020 0
DWIDTH 17 0
BBX 16 17 0 -2
BITMAP
03F0
8830
8830
FE32
DBFF
DBB6
DBB6
DBB6
DBBE
DBDE
DBC6
FB86
DB86
C386
0386
039E
038C
ENDCHAR
STARTCHAR 5438
ENCODING 21560
SWIDTH 1020 0
DWIDTH 17 0
BBX 16 17 0 -2
BITMAP
000C
07FE
07FE
89CC
FDCC
D9D8
D9DA
D9DF
D9E6
D9E6
FBA6
DBAC
C3BC
0618
0C3F
31E6
0602
ENDCHAR
STARTCHAR 5439
ENCODING 21561
SWIDTH 1020 0
DWIDTH 17 0
BBX 16 17 0 -2
BITMAP
00E0
00E0
00E0
8CE2
FDFF
CD86
CE34
CC38
CC30
CC30
CC30
FCE8
CCE8
C1CC
0387
0606
1802
ENDCHAR
STARTCHAR 543B
ENCODING 21563
SWIDTH 1020 0
DWIDTH 17 0
BBX 16 17 0 -2
BITMAP
00E0
88E0
88E0
FDC3
D9FF
DBFB
DADB
DDDB
D9DB
D9B3
FBB3
DA33
CCE3
00C6
0186
061E
000C
ENDCHAR
STARTCHAR 543C
ENCODING 21564
SWIDTH 1020 0
DWIDTH 17 0
BBX 16 17 0 -2
BITMAP
002E
8FFC
8FFC
FC3C
D82C
D9CC
D9CC
D9FC
DBCC
DFCC
DDCC
F9CC
D9CD
C1CD
01CE
07CF
0387
ENDCHAR
STARTCHAR 543D
ENCODING 21565
SWIDTH 1020 0
DWIDTH 17 0
BBX 16 17 0 -2
BITMAP
0038
8A30
8A30
FBB0
DBB4
DBFE
DE30
DC30
D830
D836
FFFF
D830
C030
0030
0030
0030
0030
ENDCHAR
STARTCHAR 543E
ENCODING 21566
SWIDTH 1020 0
DWIDTH 17 0
BBX 16 17 0 -2
BITMAP
000C
7FFE
7FFE
0380
0618
3FFC
0618
0C18
0C1A
FFFF
0000
3FFC
300C
300C
300C
3FFC
300C
ENDCHAR
STARTCHAR 5440
ENCODING 21568
SWIDTH 1020 0
DWIDTH 17 0
BBX 16 17 0 -2
BITMAP
0004
8BFE
8BFE
FDD8
D9D8
D9D8
DB98
DB9A
DFFF
D8F8
F9D8
D9D8
C398
0618
0C18
30F8
0030
ENDCHAR
STARTCHAR 5442
ENCODING 21570
SWIDTH 1020 0
DWIDTH 17 0
BBX 14 17 2 -2
BITMAP
4030
7FF8
7FF8
6030
6030
6030
7FF0
6E30
0E00
8818
FFFC
C018
C018
C018
C018
FFF8
C018
ENDCHAR
STARTCHAR 5446
ENCODING 21574
SWIDTH 1020 0
DWIDTH 17 0
BBX 16 17 0 -2
BITMAP
1004
1FFE
1FFE
180C
180C
180C
1FFC
19CC
01C6
FFFF
03E0
07D0
0DD8
19CF
31C6
C1C2
01C0
ENDCHAR
STARTCHAR 5448
ENCODING 21576
SWIDTH 1020 0
DWIDTH 17 0
BBX 16 16 0 -1
BITMAP
200C
3FFE
3FFE
300C
300C
300C
3FFC
300C
0004
7FFE
01C0
01C8
3FFC
01C0
01C6
FFFF
ENDCHAR
STARTCHAR 5449
ENCODING 21577
SWIDTH 1020 0
DWIDTH 17 0
BBX 16 17 0 -2
BITMAP
040C
07FE
07FE
360C
360C
360C
37FC
3600
300C
3FFE
300C
000C
FFFF
0410
0E0C
1806
6006
ENDCHAR
STARTCHAR 544A
ENCODING 21578
SWIDTH 1020 0
DWIDTH 17 0
BBX 16 17 0 -2
BITMAP
11E0
19C0
19C0
19CC
3FFE
21C0
41C0
01C6
FFFF
0000
200C
3FFE
300C
300C
300C
3FFC
300C
ENDCHAR
STARTCHAR 544E
ENCODING 21582
SWIDTH 1020 0
DWIDTH 17 0
BBX 16 17 0 -2
BITMAP
020C
8BFE
8BFE
FF8C
DB8C
DB8C
DB8C
DBFC
DBAC
DBA0
FB90
DB90
C618
060C
040F
0806
1002
ENDCHAR
STARTCHAR 5451
ENCODING 21585
SWIDTH 1020 0
DWIDTH 17 0
BBX 16 17 0 -2
BITMAP
001C
01FE
01FE
7FE0
01C0
01C6
FFFF
0390
0618
0C0C
3007
DFFE
181A
1818
1818
1FF8
1818
ENDCHAR
STARTCHAR 545F
ENCODING 21599
SWIDTH 1020 0
DWIDTH 17 0
BBX 16 17 0 -2
BITMAP
00F0
00E0
00E0
98E6
FFFF
D8E0
D9C0
D9C8
DF9C
DBD8
F9F0
D8E0
C1C8
0184
0202
0FFF
0FC3
ENDCHAR
STARTCHAR 5468
ENCODING 21608
SWIDTH 1020 0
DWIDTH 17 0
BBX 16 17 0 -2
BITMAP
2006
3FFF
3FFF
3006
31C6
37F6
31C6
31D6
3FFE
3006
37F6
3636
3636
27F6
6606
401E
800C
ENDCHAR
STARTCHAR 546A
ENCODING 21610
SWIDTH 1020 0
DWIDTH 17 0
BBX 16 17 0 -2
BITMAP
0186
8DFF
8DFF
FDC6
CDC6
CDC6
CDC6
CDC6
CDFE
FD9A
CDD8
C1D8
039A
039A
061B
041F
180E
ENDCHAR
STARTCHAR 5470
ENCODING 21616
SWIDTH 1020 0
DWIDTH 17 0
BBX 16 17 0 -2
BITMAP
0E38
6C30
6C30
6DB6
6FFC
6C32
6C32
6FFF
FC1E
D008
1FFC
1818
1818
1818
1818
1FF8
1818
ENDCHAR
STARTCHAR 5471
ENCODING 21617
SWIDTH 1020 0
DWIDTH 17 0
BBX 16 17 0 -2
BITMAP
0006
021F
021F
8BF4
FFB4
DBB4
DBB4
DBB4
DBB4
DBB4
FBB6
DBB6
C236
C63B
05FE
09CA
1000
ENDCHAR
STARTCHAR 5473
ENCODING 21619
SWIDTH 1020 0
DWIDTH 17 0
BBX 16 17 0 -2
BITMAP
0038
8C30
8C30
FE34
CDFE
CC30
CC30
CC36
CFFF
CC38
CCF8
FDFC
CDF7
C3B6
0632
0830
0030
ENDCHAR
STARTCHAR 5475
ENCODING 21621
SWIDTH 1020 0
DWIDTH 17 0
BBX 16 17 0 -2
BITMAP
0002
07FF
07FF
8806
FC06
DA16
DBFE
DBB6
DBB6
DBB6
DBF6
FBB6
D806
C006
0006
001E
000C
ENDCHAR
STARTCHAR 5476
ENCODING 21622
SWIDTH 1020 0
DWIDTH 17 0
BBX 16 17 0 -2
BITMAP
0382
93BF
93BF
FB96
D7F6
D2D6
D2D6
D6D6
D6D6
F7DC
D78C
C3E8
02EC
063E
0417
0822
31C2
ENDCHAR
STARTCHAR 5477
ENCODING 21623
SWIDTH 1020 0
DWIDTH 17 0
BBX 16 17 0 -2
BITMAP
0201
8BFF
8BFF
FFB3
DBB3
DBB3
DBFF
DBB3
DBB3
DBB3
FBFF
DBB3
C030
0030
0030
0030
0030
ENDCHAR
STARTCHAR 547B
ENCODING 21627
SWIDTH 1020 0
DWIDTH 17 0
BBX 16 17 0 -2
BITMAP
0038
8A33
8A33
FFFF
DBB3
DBB3
DBB3
DBFF
DBB3
DBB3
FBB3
DBFF
C3B3
0030
0030
0030
0030
ENDCHAR
STARTCHAR 547C
ENCODING 21628
SWIDTH 1020 0
DWIDTH 17 0
BBX 16 17 0 -2
BITMAP
000C
983E
983E
FBF8
D830
DA36
DBB6
DBB4
D9B8
D832
DFFF
F830
D830
C030
0030
01F0
00E0
ENDCHAR
STARTCHAR 547D
ENCODING 21629
SWIDTH 1020 0
DWIDTH 17 0
BBX 16 17 0 -2
BITMAP
01C0
03C0
03C0
03A0
0630
0C18
1BEF
3006
C2C2
3FFF
36E6
36E6
36E6
3EE6
36FE
30E4
00E0
ENDCHAR
STARTCHAR 5480
ENCODING 21632
SWIDTH 1020 0
DWIDTH 17 0
BBX 16 16 0 -1
BITMAP
018C
85FE
85FE
FFCC
CDCC
CDCC
CDCC
CDFC
CDCC
CDCC
FDCC
CDFC
C1CC
01CC
01CE
0FFF
ENDCHAR
STARTCHAR 5484
ENCODING 21636
SWIDTH 1020 0
DWIDTH 17 0
BBX 16 17 0 -2
BITMAP
0038
8830
8830
FFB7
DBB6
DBB6
DBB6
DBFE
DBB6
D830
FBB3
DBB3
C3B3
03B3
03B3
03FF
0383
ENDCHAR
STARTCHAR 5486
ENCODING 21638
SWIDTH 1020 0
DWIDTH 17 0
BBX 16 17 0 -2
BITMAP
01C0
89C6
89C6
FDFF
DB86
DA06
DC16
DBF6
DBB6
DBB6
DBFE
FB8C
DB8C
C382
0382
03FF
01FE
ENDCHAR
STARTCHAR 548B
ENCODING 21643
SWIDTH 1020 0
DWIDTH 17 0
BBX 16 17 0 -2
BITMAP
0020
0030
0030
8CE6
FEFF
CDF0
CDB0
CE34
CC3E
CC30
CC30
CC34
FC3E
CC30
C030
0030
0030
ENDCHAR
STARTCHAR 548C
ENCODING 21644
SWIDTH 1020 0
DWIDTH 17 0
BBX 16 17 0 -2
BITMAP
0600
1E00
1E00
F986
19FF
19C6
FFC6
19C6
3DC6
3FC6
79C6
59C6
99C6
19FE
19C6
1800
1800
ENDCHAR
ENDFONT
